G04 Layer_Physical_Order=2*
G04 Layer_Color=16711680*
%FSLAX44Y44*%
%MOMM*%
G71*
G01*
G75*
%ADD10C,0.2000*%
%ADD11C,1.2000*%
%ADD12R,1.7000X1.7000*%
%ADD13C,1.7000*%
%ADD14C,1.5000*%
%ADD15R,1.5000X1.5000*%
%ADD16C,3.8000*%
G36*
X325000Y917622D02*
X323730Y917096D01*
X306163Y934663D01*
X305170Y935326D01*
X305056Y935349D01*
X304740Y936706D01*
X305506Y937294D01*
X306788Y938966D01*
X307594Y940912D01*
X307869Y943000D01*
X307594Y945088D01*
X306788Y947035D01*
X305506Y948706D01*
X303834Y949988D01*
X301888Y950794D01*
X299800Y951069D01*
X297712Y950794D01*
X295765Y949988D01*
X294094Y948706D01*
X292812Y947035D01*
X292006Y945088D01*
X291731Y943000D01*
X292006Y940912D01*
X292812Y938966D01*
X294094Y937294D01*
X294701Y936829D01*
X294270Y935559D01*
X291067D01*
X289190Y937436D01*
X289594Y938411D01*
X289869Y940500D01*
X289594Y942588D01*
X288788Y944535D01*
X287506Y946206D01*
X285835Y947488D01*
X283888Y948294D01*
X281800Y948569D01*
X279712Y948294D01*
X277766Y947488D01*
X276094Y946206D01*
X274812Y944535D01*
X274006Y942588D01*
X273731Y940500D01*
X274006Y938411D01*
X274812Y936465D01*
X276094Y934794D01*
X277766Y933512D01*
X279712Y932706D01*
X281800Y932431D01*
X283888Y932706D01*
X284864Y933110D01*
X287637Y930337D01*
X287637Y930337D01*
X288629Y929674D01*
X289800Y929441D01*
X293729D01*
X294002Y928638D01*
X294068Y928171D01*
X292812Y926535D01*
X292006Y924588D01*
X291731Y922500D01*
X292006Y920412D01*
X292812Y918465D01*
X294094Y916794D01*
X295765Y915512D01*
X297712Y914706D01*
X299800Y914431D01*
X301888Y914706D01*
X303834Y915512D01*
X305506Y916794D01*
X306788Y918465D01*
X307594Y920412D01*
X307869Y922500D01*
X307853Y922620D01*
X308992Y923182D01*
X319441Y912733D01*
Y240913D01*
X319304Y240859D01*
X318171Y240702D01*
X317663Y241463D01*
X317663Y241463D01*
X313538Y245588D01*
X314256Y247320D01*
X314582Y249800D01*
X314256Y252280D01*
X313298Y254591D01*
X311775Y256576D01*
X309791Y258098D01*
X307480Y259056D01*
X305000Y259382D01*
X302520Y259056D01*
X300209Y258098D01*
X298225Y256576D01*
X296702Y254591D01*
X295744Y252280D01*
X295418Y249800D01*
X295744Y247320D01*
X296702Y245009D01*
X298225Y243025D01*
X300209Y241502D01*
X302520Y240545D01*
X305000Y240218D01*
X307480Y240545D01*
X309212Y241262D01*
X312441Y238033D01*
Y232265D01*
X311171Y231639D01*
X309791Y232698D01*
X307480Y233655D01*
X305000Y233982D01*
X302520Y233655D01*
X300788Y232938D01*
X248059Y285667D01*
Y996700D01*
X247826Y997870D01*
X247163Y998863D01*
X247163Y998863D01*
X185590Y1060436D01*
X185994Y1061412D01*
X186269Y1063500D01*
X185994Y1065588D01*
X185188Y1067534D01*
X183906Y1069206D01*
X182234Y1070488D01*
X180288Y1071294D01*
X178200Y1071569D01*
X176112Y1071294D01*
X174165Y1070488D01*
X172494Y1069206D01*
X171212Y1067534D01*
X170406Y1065588D01*
X170131Y1063500D01*
X170406Y1061412D01*
X171212Y1059465D01*
X172494Y1057794D01*
X174165Y1056512D01*
X176112Y1055706D01*
X178200Y1055431D01*
X180288Y1055706D01*
X181264Y1056110D01*
X241941Y995433D01*
Y877744D01*
X240768Y877258D01*
X203590Y914436D01*
X203994Y915412D01*
X204269Y917500D01*
X203994Y919588D01*
X203188Y921535D01*
X201906Y923206D01*
X200235Y924488D01*
X198288Y925294D01*
X196200Y925569D01*
X194112Y925294D01*
X192166Y924488D01*
X190494Y923206D01*
X189212Y921535D01*
X188406Y919588D01*
X188131Y917500D01*
X188406Y915412D01*
X189212Y913466D01*
X190494Y911795D01*
X192166Y910512D01*
X194112Y909706D01*
X196200Y909431D01*
X198288Y909706D01*
X199264Y910110D01*
X237941Y871433D01*
Y259300D01*
X219300D01*
Y240300D01*
X238300D01*
X238300Y240300D01*
Y240300D01*
X239513Y240162D01*
X282837Y196837D01*
X282837Y196837D01*
X283829Y196174D01*
X285000Y195941D01*
X285000Y195941D01*
X295984D01*
X296702Y194209D01*
X298145Y192329D01*
X297989Y191531D01*
X297829Y191059D01*
X235971D01*
X235811Y191531D01*
X235655Y192329D01*
X237098Y194209D01*
X238055Y196520D01*
X238382Y199000D01*
X238055Y201480D01*
X237098Y203791D01*
X235575Y205776D01*
X233591Y207298D01*
X231280Y208256D01*
X228800Y208582D01*
X226320Y208256D01*
X224009Y207298D01*
X222024Y205776D01*
X220502Y203791D01*
X219545Y201480D01*
X219218Y199000D01*
X219545Y196520D01*
X220502Y194209D01*
X221945Y192329D01*
X221789Y191531D01*
X221629Y191059D01*
X212267D01*
X149059Y254267D01*
Y948033D01*
X157136Y956110D01*
X158112Y955706D01*
X160200Y955431D01*
X162288Y955706D01*
X164235Y956512D01*
X165906Y957794D01*
X167188Y959466D01*
X167994Y961412D01*
X168269Y963500D01*
X167994Y965589D01*
X167188Y967535D01*
X165906Y969206D01*
X164235Y970488D01*
X162288Y971294D01*
X160200Y971569D01*
X158112Y971294D01*
X156166Y970488D01*
X154494Y969206D01*
X153212Y967535D01*
X152406Y965589D01*
X152131Y963500D01*
X152406Y961412D01*
X152810Y960436D01*
X143837Y951463D01*
X143174Y950471D01*
X142941Y949300D01*
X142941Y949300D01*
Y253000D01*
X142941Y253000D01*
X143174Y251829D01*
X143837Y250837D01*
X208837Y185837D01*
X208837Y185837D01*
X209830Y185174D01*
X211000Y184941D01*
X309000D01*
X309000Y184941D01*
X310170Y185174D01*
X311163Y185837D01*
X317663Y192337D01*
X317663Y192337D01*
X318171Y193098D01*
X319304Y192941D01*
X319441Y192887D01*
Y173767D01*
X314807Y169133D01*
X313730Y169852D01*
X314256Y171120D01*
X314582Y173600D01*
X314256Y176080D01*
X313298Y178391D01*
X311775Y180375D01*
X309791Y181898D01*
X307480Y182855D01*
X305000Y183182D01*
X302520Y182855D01*
X300209Y181898D01*
X298225Y180375D01*
X296702Y178391D01*
X295744Y176080D01*
X295418Y173600D01*
X295744Y171120D01*
X296702Y168809D01*
X298225Y166825D01*
X300209Y165302D01*
X302520Y164345D01*
X305000Y164018D01*
X307480Y164345D01*
X308748Y164870D01*
X309467Y163793D01*
X307433Y161759D01*
X172900D01*
X172900Y161759D01*
X171730Y161526D01*
X170737Y160863D01*
X122478Y112603D01*
X120241Y113530D01*
X117500Y113891D01*
X114759Y113530D01*
X112205Y112472D01*
X110329Y111032D01*
X109059Y111486D01*
Y120514D01*
X110329Y120968D01*
X112205Y119528D01*
X114759Y118470D01*
X117500Y118109D01*
X120241Y118470D01*
X122795Y119528D01*
X124989Y121211D01*
X126672Y123405D01*
X127730Y125959D01*
X128091Y128700D01*
X127730Y131441D01*
X126672Y133995D01*
X125112Y136028D01*
X125255Y137015D01*
X125339Y137276D01*
X125456Y137431D01*
X126363Y138037D01*
X134163Y145837D01*
X134163Y145837D01*
X134826Y146829D01*
X135059Y148000D01*
Y174000D01*
X134826Y175170D01*
X134163Y176163D01*
X108163Y202163D01*
X107170Y202826D01*
X106000Y203059D01*
X106000Y203059D01*
X33000D01*
X31830Y202826D01*
X30837Y202163D01*
X-7267Y164059D01*
X-11857D01*
X-12110Y165329D01*
X-11209Y165702D01*
X-9225Y167225D01*
X-7702Y169209D01*
X-6744Y171520D01*
X-6418Y174000D01*
X-6744Y176480D01*
X-7462Y178212D01*
X3163Y188837D01*
X3826Y189830D01*
X4059Y191000D01*
X4059Y191000D01*
Y234876D01*
X4163Y234980D01*
X4826Y235973D01*
X5059Y237143D01*
Y262657D01*
X4826Y263827D01*
X4163Y264820D01*
X4059Y264924D01*
Y916335D01*
X5329Y916418D01*
X5480Y915270D01*
X6340Y913193D01*
X7709Y911409D01*
X9493Y910040D01*
X11571Y909180D01*
X12530Y909053D01*
Y917500D01*
Y925946D01*
X11571Y925820D01*
X9493Y924960D01*
X7709Y923591D01*
X6340Y921807D01*
X5480Y919729D01*
X5329Y918582D01*
X4059Y918665D01*
Y949433D01*
X28736Y974110D01*
X29712Y973706D01*
X31800Y973431D01*
X33888Y973706D01*
X35835Y974512D01*
X37506Y975794D01*
X38788Y977466D01*
X39594Y979412D01*
X39869Y981500D01*
X39594Y983588D01*
X38788Y985535D01*
X37506Y987206D01*
X35835Y988488D01*
X33888Y989294D01*
X31800Y989569D01*
X29712Y989294D01*
X27766Y988488D01*
X26094Y987206D01*
X24812Y985535D01*
X24006Y983588D01*
X23731Y981500D01*
X24006Y979412D01*
X24410Y978436D01*
X-1163Y952863D01*
X-1826Y951870D01*
X-2059Y950700D01*
X-2059Y950700D01*
Y267044D01*
X-3232Y266558D01*
X-12941Y276267D01*
Y1007700D01*
X-13174Y1008871D01*
X-13837Y1009863D01*
X-64410Y1060436D01*
X-64006Y1061412D01*
X-63731Y1063500D01*
X-64006Y1065588D01*
X-64812Y1067534D01*
X-66094Y1069206D01*
X-67765Y1070488D01*
X-69712Y1071294D01*
X-71800Y1071569D01*
X-73888Y1071294D01*
X-75834Y1070488D01*
X-77506Y1069206D01*
X-78788Y1067534D01*
X-79594Y1065588D01*
X-79869Y1063500D01*
X-79594Y1061412D01*
X-78788Y1059465D01*
X-77506Y1057794D01*
X-75834Y1056512D01*
X-73888Y1055706D01*
X-71800Y1055431D01*
X-69712Y1055706D01*
X-68736Y1056110D01*
X-19059Y1006433D01*
Y275000D01*
X-19059Y275000D01*
X-18826Y273829D01*
X-18163Y272837D01*
X-5059Y259733D01*
Y240067D01*
X-11788Y233338D01*
X-13520Y234056D01*
X-16000Y234382D01*
X-18480Y234056D01*
X-20791Y233098D01*
X-22775Y231576D01*
X-24298Y229591D01*
X-25255Y227280D01*
X-25582Y224800D01*
X-25255Y222320D01*
X-24298Y220009D01*
X-22775Y218025D01*
X-20791Y216502D01*
X-18480Y215545D01*
X-16000Y215218D01*
X-13520Y215545D01*
X-11209Y216502D01*
X-9225Y218025D01*
X-7702Y220009D01*
X-6744Y222320D01*
X-6418Y224800D01*
X-6744Y227280D01*
X-7462Y229012D01*
X-3232Y233242D01*
X-2059Y232756D01*
Y192267D01*
X-11788Y182538D01*
X-13520Y183256D01*
X-16000Y183582D01*
X-18480Y183256D01*
X-20791Y182298D01*
X-22775Y180776D01*
X-24298Y178791D01*
X-25255Y176480D01*
X-25582Y174000D01*
X-25255Y171520D01*
X-24298Y169209D01*
X-22775Y167225D01*
X-20791Y165702D01*
X-19890Y165329D01*
X-20143Y164059D01*
X-26733D01*
X-67941Y205267D01*
Y256000D01*
X-67941Y256000D01*
X-68174Y257171D01*
X-68837Y258163D01*
X-68837Y258163D01*
X-99941Y289267D01*
Y929733D01*
X-98733Y930941D01*
X-93645D01*
X-93392Y929671D01*
X-93834Y929488D01*
X-95506Y928206D01*
X-96788Y926535D01*
X-97594Y924588D01*
X-97869Y922500D01*
X-97594Y920412D01*
X-96788Y918466D01*
X-95506Y916795D01*
X-93834Y915512D01*
X-91888Y914706D01*
X-89800Y914431D01*
X-87712Y914706D01*
X-85765Y915512D01*
X-84094Y916795D01*
X-82812Y918466D01*
X-82006Y920412D01*
X-81731Y922500D01*
X-82006Y924588D01*
X-82812Y926535D01*
X-84094Y928206D01*
X-85765Y929488D01*
X-86208Y929671D01*
X-85955Y930941D01*
X-78300D01*
X-78300Y930941D01*
X-77130Y931174D01*
X-76137Y931837D01*
X-74864Y933110D01*
X-73888Y932706D01*
X-71800Y932431D01*
X-69712Y932706D01*
X-67765Y933512D01*
X-66094Y934794D01*
X-64812Y936466D01*
X-64006Y938412D01*
X-63731Y940500D01*
X-63748Y940626D01*
X-62545Y941219D01*
X-43059Y921733D01*
Y912744D01*
X-44232Y912258D01*
X-46410Y914436D01*
X-46006Y915412D01*
X-45731Y917500D01*
X-46006Y919588D01*
X-46812Y921535D01*
X-48094Y923206D01*
X-49766Y924488D01*
X-51712Y925294D01*
X-53800Y925569D01*
X-55888Y925294D01*
X-57835Y924488D01*
X-59506Y923206D01*
X-60788Y921535D01*
X-61594Y919588D01*
X-61869Y917500D01*
X-61594Y915412D01*
X-60788Y913466D01*
X-59506Y911795D01*
X-57835Y910512D01*
X-55888Y909706D01*
X-53800Y909431D01*
X-51712Y909706D01*
X-50736Y910110D01*
X-47059Y906433D01*
Y903259D01*
X-48329Y902886D01*
X-49766Y903988D01*
X-51712Y904794D01*
X-53800Y905069D01*
X-55888Y904794D01*
X-57835Y903988D01*
X-59506Y902706D01*
X-60788Y901035D01*
X-61594Y899089D01*
X-61869Y897000D01*
X-61594Y894912D01*
X-60788Y892966D01*
X-59506Y891294D01*
X-57835Y890012D01*
X-55888Y889206D01*
X-53800Y888931D01*
X-51712Y889206D01*
X-49766Y890012D01*
X-48329Y891115D01*
X-47059Y890742D01*
Y882759D01*
X-48329Y882386D01*
X-49766Y883488D01*
X-51712Y884294D01*
X-53800Y884569D01*
X-55888Y884294D01*
X-57835Y883488D01*
X-59506Y882206D01*
X-60788Y880535D01*
X-61594Y878589D01*
X-61869Y876500D01*
X-61594Y874412D01*
X-60788Y872466D01*
X-59506Y870795D01*
X-57835Y869512D01*
X-55888Y868706D01*
X-53800Y868431D01*
X-51712Y868706D01*
X-49766Y869512D01*
X-48329Y870615D01*
X-47059Y870241D01*
Y863193D01*
X-48329Y862566D01*
X-49493Y863460D01*
X-51571Y864320D01*
X-52530Y864447D01*
Y856000D01*
Y847554D01*
X-51571Y847680D01*
X-49493Y848540D01*
X-48329Y849434D01*
X-47059Y848808D01*
Y215000D01*
X-47059Y215000D01*
X-46826Y213829D01*
X-46163Y212837D01*
X-30563Y197237D01*
X-30563Y197237D01*
X-29571Y196574D01*
X-28400Y196341D01*
X-25016D01*
X-24298Y194609D01*
X-22775Y192625D01*
X-20791Y191102D01*
X-18480Y190145D01*
X-16000Y189818D01*
X-13520Y190145D01*
X-11209Y191102D01*
X-9225Y192625D01*
X-7702Y194609D01*
X-6744Y196920D01*
X-6418Y199400D01*
X-6744Y201880D01*
X-7702Y204191D01*
X-9225Y206175D01*
X-11209Y207698D01*
X-13520Y208655D01*
X-16000Y208982D01*
X-18480Y208655D01*
X-20791Y207698D01*
X-22775Y206175D01*
X-24298Y204191D01*
X-25016Y202459D01*
X-27133D01*
X-40941Y216267D01*
Y269156D01*
X-39768Y269642D01*
X-24538Y254412D01*
X-25255Y252680D01*
X-25582Y250200D01*
X-25255Y247720D01*
X-24298Y245409D01*
X-22775Y243425D01*
X-20791Y241902D01*
X-18480Y240945D01*
X-16000Y240618D01*
X-13520Y240945D01*
X-11209Y241902D01*
X-9225Y243425D01*
X-7702Y245409D01*
X-6744Y247720D01*
X-6418Y250200D01*
X-6744Y252680D01*
X-7702Y254991D01*
X-9225Y256975D01*
X-11209Y258498D01*
X-13520Y259456D01*
X-16000Y259782D01*
X-18480Y259456D01*
X-20212Y258738D01*
X-36941Y275467D01*
Y923000D01*
X-37174Y924171D01*
X-37837Y925163D01*
X-37837Y925163D01*
X-65837Y953163D01*
X-66344Y953502D01*
X-66527Y954962D01*
X-66094Y955294D01*
X-64812Y956966D01*
X-64006Y958912D01*
X-63731Y961000D01*
X-64006Y963089D01*
X-64812Y965035D01*
X-66094Y966706D01*
X-67765Y967988D01*
X-69712Y968794D01*
X-71800Y969069D01*
X-73888Y968794D01*
X-75834Y967988D01*
X-77506Y966706D01*
X-78788Y965035D01*
X-79594Y963089D01*
X-79869Y961000D01*
X-79671Y959492D01*
X-80873Y958899D01*
X-82410Y960436D01*
X-82006Y961412D01*
X-81731Y963500D01*
X-82006Y965589D01*
X-82812Y967535D01*
X-84094Y969206D01*
X-85765Y970488D01*
X-87712Y971294D01*
X-89800Y971569D01*
X-91888Y971294D01*
X-93834Y970488D01*
X-95506Y969206D01*
X-96788Y967535D01*
X-97594Y965589D01*
X-97869Y963500D01*
X-97594Y961412D01*
X-96788Y959466D01*
X-95506Y957794D01*
X-93834Y956512D01*
X-91888Y955706D01*
X-89800Y955431D01*
X-87712Y955706D01*
X-86736Y956110D01*
X-79463Y948837D01*
X-79463Y948837D01*
X-78470Y948174D01*
X-77324Y947946D01*
X-77280Y947878D01*
X-76899Y946671D01*
X-77506Y946206D01*
X-78788Y944535D01*
X-79594Y942589D01*
X-79869Y940500D01*
X-79594Y938412D01*
X-79558Y938325D01*
X-80408Y937059D01*
X-82674D01*
X-83301Y938329D01*
X-82812Y938966D01*
X-82006Y940912D01*
X-81731Y943000D01*
X-82006Y945089D01*
X-82812Y947035D01*
X-84094Y948706D01*
X-85765Y949988D01*
X-87712Y950794D01*
X-89800Y951069D01*
X-91888Y950794D01*
X-93834Y949988D01*
X-95506Y948706D01*
X-96788Y947035D01*
X-97594Y945089D01*
X-97869Y943000D01*
X-97594Y940912D01*
X-96788Y938966D01*
X-96299Y938329D01*
X-96926Y937059D01*
X-100000D01*
X-101171Y936826D01*
X-102163Y936163D01*
X-102163Y936163D01*
X-105163Y933163D01*
X-105826Y932170D01*
X-106059Y931000D01*
X-106059Y931000D01*
Y288000D01*
X-106059Y288000D01*
X-105826Y286829D01*
X-105163Y285837D01*
X-74059Y254733D01*
Y204000D01*
X-74059Y204000D01*
X-73826Y202829D01*
X-73163Y201837D01*
X-30163Y158837D01*
X-30163Y158837D01*
X-29171Y158174D01*
X-28000Y157941D01*
X-28000Y157941D01*
X-21432D01*
X-21087Y156671D01*
X-22775Y155375D01*
X-24298Y153391D01*
X-25255Y151080D01*
X-25582Y148600D01*
X-25255Y146120D01*
X-24298Y143809D01*
X-22775Y141825D01*
X-20791Y140302D01*
X-18480Y139345D01*
X-16000Y139018D01*
X-13520Y139345D01*
X-11209Y140302D01*
X-9225Y141825D01*
X-7702Y143809D01*
X-6744Y146120D01*
X-6418Y148600D01*
X-6744Y151080D01*
X-7702Y153391D01*
X-9225Y155375D01*
X-10913Y156671D01*
X-10568Y157941D01*
X-6000D01*
X-6000Y157941D01*
X-4830Y158174D01*
X-3837Y158837D01*
X34267Y196941D01*
X104733D01*
X128941Y172733D01*
Y157089D01*
X127730Y156841D01*
X126672Y159395D01*
X124989Y161589D01*
X122795Y163272D01*
X120241Y164330D01*
X117500Y164691D01*
X114759Y164330D01*
X112522Y163403D01*
X101763Y174163D01*
X100771Y174826D01*
X99600Y175059D01*
X99600Y175059D01*
X65000D01*
X65000Y175059D01*
X63829Y174826D01*
X62837Y174163D01*
X2733Y114059D01*
X-10222D01*
X-10653Y115329D01*
X-9225Y116425D01*
X-7702Y118409D01*
X-6744Y120720D01*
X-6418Y123200D01*
X-6744Y125680D01*
X-7702Y127991D01*
X-9225Y129976D01*
X-11209Y131498D01*
X-13520Y132456D01*
X-16000Y132782D01*
X-18480Y132456D01*
X-20791Y131498D01*
X-22775Y129976D01*
X-24298Y127991D01*
X-25255Y125680D01*
X-25582Y123200D01*
X-25255Y120720D01*
X-24298Y118409D01*
X-22775Y116425D01*
X-21347Y115329D01*
X-21779Y114059D01*
X-79000D01*
X-79000Y114059D01*
X-80170Y113826D01*
X-81163Y113163D01*
X-81163Y113163D01*
X-87988Y106338D01*
X-89720Y107056D01*
X-92200Y107382D01*
X-94680Y107056D01*
X-96991Y106098D01*
X-98975Y104576D01*
X-100498Y102591D01*
X-100671Y102173D01*
X-101941Y102426D01*
Y109133D01*
X-96412Y114662D01*
X-94680Y113945D01*
X-92200Y113618D01*
X-89720Y113945D01*
X-87409Y114902D01*
X-85424Y116425D01*
X-83902Y118409D01*
X-82944Y120720D01*
X-82618Y123200D01*
X-82944Y125680D01*
X-83902Y127991D01*
X-85424Y129976D01*
X-87409Y131498D01*
X-89720Y132456D01*
X-92200Y132782D01*
X-94680Y132456D01*
X-96991Y131498D01*
X-98975Y129976D01*
X-100498Y127991D01*
X-101455Y125680D01*
X-101782Y123200D01*
X-101455Y120720D01*
X-100738Y118988D01*
X-107163Y112563D01*
X-107826Y111571D01*
X-108059Y110400D01*
X-108059Y110400D01*
Y68000D01*
X-108059Y68000D01*
X-107826Y66830D01*
X-107163Y65837D01*
X-99163Y57837D01*
X-99163Y57837D01*
X-98170Y57174D01*
X-97000Y56941D01*
X-96812Y56747D01*
X-96979Y55399D01*
X-97100Y55215D01*
X-98975Y53776D01*
X-100498Y51791D01*
X-101455Y49480D01*
X-101782Y47000D01*
X-101455Y44520D01*
X-100498Y42209D01*
X-98975Y40225D01*
X-96991Y38702D01*
X-94680Y37745D01*
X-92200Y37418D01*
X-89720Y37745D01*
X-87409Y38702D01*
X-85424Y40225D01*
X-83902Y42209D01*
X-82944Y44520D01*
X-82618Y47000D01*
X-82944Y49480D01*
X-83902Y51791D01*
X-85424Y53776D01*
X-87409Y55298D01*
X-88310Y55671D01*
X-88057Y56941D01*
X-20143D01*
X-19890Y55671D01*
X-20791Y55298D01*
X-22775Y53776D01*
X-24298Y51791D01*
X-25255Y49480D01*
X-25582Y47000D01*
X-25255Y44520D01*
X-24298Y42209D01*
X-22775Y40225D01*
X-20791Y38702D01*
X-18480Y37745D01*
X-16000Y37418D01*
X-13520Y37745D01*
X-11209Y38702D01*
X-9225Y40225D01*
X-7702Y42209D01*
X-6744Y44520D01*
X-6418Y47000D01*
X-6744Y49480D01*
X-7702Y51791D01*
X-9225Y53776D01*
X-11209Y55298D01*
X-12110Y55671D01*
X-11857Y56941D01*
X30733D01*
X37337Y50337D01*
X37337Y50337D01*
X38330Y49674D01*
X39500Y49441D01*
X82002D01*
X82928Y47205D01*
X84611Y45011D01*
X86805Y43328D01*
X89359Y42270D01*
X92100Y41909D01*
X94841Y42270D01*
X97395Y43328D01*
X99589Y45011D01*
X101272Y47205D01*
X102330Y49759D01*
X102691Y52500D01*
X102330Y55241D01*
X101272Y57795D01*
X99832Y59671D01*
X100286Y60941D01*
X109314D01*
X109768Y59671D01*
X108328Y57795D01*
X107270Y55241D01*
X106909Y52500D01*
X107270Y49759D01*
X108328Y47205D01*
X110011Y45011D01*
X112205Y43328D01*
X114759Y42270D01*
X117500Y41909D01*
X120241Y42270D01*
X122795Y43328D01*
X124989Y45011D01*
X126672Y47205D01*
X127730Y49759D01*
X128091Y52500D01*
X127730Y55241D01*
X126672Y57795D01*
X125232Y59671D01*
X125686Y60941D01*
X138000D01*
X138000Y60941D01*
X139171Y61174D01*
X140163Y61837D01*
X198067Y119741D01*
X219784D01*
X220502Y118009D01*
X222024Y116025D01*
X224009Y114502D01*
X226320Y113545D01*
X228800Y113218D01*
X231280Y113545D01*
X233591Y114502D01*
X235575Y116025D01*
X237098Y118009D01*
X238055Y120320D01*
X238382Y122800D01*
X238055Y125280D01*
X237098Y127591D01*
X235575Y129576D01*
X233591Y131098D01*
X231280Y132056D01*
X228800Y132382D01*
X226320Y132056D01*
X224009Y131098D01*
X222024Y129576D01*
X220502Y127591D01*
X219784Y125859D01*
X196800D01*
X195630Y125626D01*
X194637Y124963D01*
X194637Y124963D01*
X136733Y67059D01*
X122083D01*
X121831Y68329D01*
X122795Y68728D01*
X124989Y70411D01*
X126672Y72605D01*
X127730Y75159D01*
X128091Y77900D01*
X127730Y80641D01*
X126672Y83195D01*
X124989Y85389D01*
X122795Y87072D01*
X120241Y88130D01*
X117500Y88491D01*
X114759Y88130D01*
X113654Y87672D01*
X109059Y92267D01*
Y95114D01*
X110329Y95568D01*
X112205Y94128D01*
X114759Y93070D01*
X117500Y92709D01*
X120241Y93070D01*
X122795Y94128D01*
X124989Y95811D01*
X126672Y98005D01*
X127730Y100559D01*
X128091Y103300D01*
X127730Y106041D01*
X126803Y108278D01*
X174167Y155641D01*
X220935D01*
X221561Y154371D01*
X220502Y152991D01*
X219545Y150680D01*
X219218Y148200D01*
X219545Y145720D01*
X220502Y143409D01*
X222024Y141425D01*
X224009Y139902D01*
X226320Y138945D01*
X228800Y138618D01*
X231280Y138945D01*
X233591Y139902D01*
X235575Y141425D01*
X237098Y143409D01*
X238055Y145720D01*
X238382Y148200D01*
X238055Y150680D01*
X237098Y152991D01*
X236039Y154371D01*
X236665Y155641D01*
X297135D01*
X297761Y154371D01*
X296702Y152991D01*
X295744Y150680D01*
X295418Y148200D01*
X295744Y145720D01*
X296702Y143409D01*
X298225Y141425D01*
X300209Y139902D01*
X302520Y138945D01*
X305000Y138618D01*
X307480Y138945D01*
X309791Y139902D01*
X311775Y141425D01*
X313298Y143409D01*
X314256Y145720D01*
X314582Y148200D01*
X314256Y150680D01*
X313298Y152991D01*
X311775Y154976D01*
X311209Y155410D01*
X311281Y156955D01*
X323730Y169404D01*
X325000Y168878D01*
Y-1000D01*
X-115000Y-1000D01*
Y1219000D01*
X325000Y1219000D01*
Y917622D01*
D02*
G37*
G36*
X108197Y159078D02*
X107270Y156841D01*
X106909Y154100D01*
X107270Y151359D01*
X108328Y148805D01*
X110011Y146611D01*
X112205Y144928D01*
X113169Y144529D01*
X112917Y143259D01*
X112737D01*
X111566Y143026D01*
X110574Y142363D01*
X110574Y142363D01*
X103837Y135626D01*
X103174Y134634D01*
X102941Y133463D01*
X101802Y133057D01*
X101671Y133031D01*
X101272Y133995D01*
X99589Y136189D01*
X97395Y137872D01*
X94841Y138930D01*
X92100Y139291D01*
X89359Y138930D01*
X86805Y137872D01*
X84611Y136189D01*
X82928Y133995D01*
X81870Y131441D01*
X81509Y128700D01*
X81870Y125959D01*
X82928Y123405D01*
X84611Y121211D01*
X86805Y119528D01*
X89359Y118470D01*
X92100Y118109D01*
X94841Y118470D01*
X97395Y119528D01*
X99589Y121211D01*
X101272Y123405D01*
X101671Y124369D01*
X102941Y124117D01*
Y109737D01*
X101811Y108958D01*
X101671Y108962D01*
X99974Y111174D01*
X97668Y112943D01*
X94982Y114056D01*
X93370Y114268D01*
Y103300D01*
Y92332D01*
X94982Y92544D01*
X97668Y93657D01*
X99974Y95426D01*
X101671Y97638D01*
X101811Y97642D01*
X102941Y96863D01*
Y91000D01*
X102941Y91000D01*
X103174Y89830D01*
X103837Y88837D01*
X108828Y83846D01*
X108328Y83195D01*
X107270Y80641D01*
X106909Y77900D01*
X107270Y75159D01*
X108328Y72605D01*
X110011Y70411D01*
X112205Y68728D01*
X113169Y68329D01*
X112917Y67059D01*
X98537D01*
X97758Y68190D01*
X97762Y68329D01*
X99974Y70026D01*
X101743Y72332D01*
X102856Y75018D01*
X103068Y76630D01*
X81132D01*
X81344Y75018D01*
X82457Y72332D01*
X84226Y70026D01*
X86438Y68329D01*
X86442Y68190D01*
X85663Y67059D01*
X80267D01*
X73059Y74267D01*
Y130733D01*
X85926Y143600D01*
X102600D01*
Y162878D01*
X103870Y163404D01*
X108197Y159078D01*
D02*
G37*
G36*
X101404Y165870D02*
X100878Y164600D01*
X81600D01*
Y147926D01*
X67837Y134163D01*
X67174Y133170D01*
X66941Y132000D01*
X66941Y132000D01*
Y73000D01*
X66941Y73000D01*
X67174Y71829D01*
X67837Y70837D01*
X76837Y61837D01*
X76837Y61837D01*
X77829Y61174D01*
X79000Y60941D01*
X83914D01*
X84368Y59671D01*
X82928Y57795D01*
X82002Y55559D01*
X40767D01*
X34163Y62163D01*
X33170Y62826D01*
X32000Y63059D01*
X32000Y63059D01*
X-10568D01*
X-10913Y64329D01*
X-9225Y65625D01*
X-7702Y67609D01*
X-6744Y69920D01*
X-6418Y72400D01*
X-6744Y74880D01*
X-7702Y77191D01*
X-9225Y79176D01*
X-11209Y80698D01*
X-13520Y81656D01*
X-16000Y81982D01*
X-18480Y81656D01*
X-20791Y80698D01*
X-22775Y79176D01*
X-24298Y77191D01*
X-25255Y74880D01*
X-25582Y72400D01*
X-25255Y69920D01*
X-24298Y67609D01*
X-22775Y65625D01*
X-21087Y64329D01*
X-21432Y63059D01*
X-86768D01*
X-87113Y64329D01*
X-85424Y65625D01*
X-83902Y67609D01*
X-82944Y69920D01*
X-82618Y72400D01*
X-82944Y74880D01*
X-83902Y77191D01*
X-85424Y79176D01*
X-87409Y80698D01*
X-89720Y81656D01*
X-92200Y81982D01*
X-94680Y81656D01*
X-96991Y80698D01*
X-98975Y79176D01*
X-100498Y77191D01*
X-100671Y76773D01*
X-101941Y77026D01*
Y93174D01*
X-100671Y93427D01*
X-100498Y93009D01*
X-98975Y91025D01*
X-96991Y89502D01*
X-94680Y88545D01*
X-92200Y88218D01*
X-89720Y88545D01*
X-87409Y89502D01*
X-85424Y91025D01*
X-83902Y93009D01*
X-82944Y95320D01*
X-82618Y97800D01*
X-82944Y100280D01*
X-83662Y102012D01*
X-77733Y107941D01*
X-19660D01*
X-19408Y106671D01*
X-20791Y106098D01*
X-22775Y104576D01*
X-24298Y102591D01*
X-25255Y100280D01*
X-25582Y97800D01*
X-25255Y95320D01*
X-24298Y93009D01*
X-22775Y91025D01*
X-20791Y89502D01*
X-18480Y88545D01*
X-16000Y88218D01*
X-13520Y88545D01*
X-11209Y89502D01*
X-9225Y91025D01*
X-7702Y93009D01*
X-6744Y95320D01*
X-6418Y97800D01*
X-6744Y100280D01*
X-7702Y102591D01*
X-9225Y104576D01*
X-11209Y106098D01*
X-12592Y106671D01*
X-12340Y107941D01*
X4000D01*
X4000Y107941D01*
X5171Y108174D01*
X6163Y108837D01*
X66267Y168941D01*
X98333D01*
X101404Y165870D01*
D02*
G37*
G36*
X296462Y228612D02*
X295744Y226880D01*
X295418Y224400D01*
X295744Y221920D01*
X296702Y219609D01*
X298225Y217625D01*
X300209Y216102D01*
X302520Y215145D01*
X305000Y214818D01*
X307480Y215145D01*
X309791Y216102D01*
X311171Y217161D01*
X312441Y216535D01*
Y206865D01*
X311171Y206239D01*
X309791Y207298D01*
X307480Y208256D01*
X305000Y208582D01*
X302520Y208256D01*
X300209Y207298D01*
X298225Y205776D01*
X296702Y203791D01*
X295984Y202059D01*
X286267D01*
X244059Y244267D01*
Y279356D01*
X245232Y279842D01*
X296462Y228612D01*
D02*
G37*
%LPC*%
G36*
X30530Y887446D02*
X29571Y887320D01*
X27493Y886460D01*
X25709Y885091D01*
X24340Y883307D01*
X23480Y881229D01*
X23354Y880270D01*
X30530D01*
Y887446D01*
D02*
G37*
G36*
X48530Y889946D02*
X47571Y889820D01*
X45493Y888960D01*
X43709Y887591D01*
X42340Y885807D01*
X41480Y883729D01*
X41234Y881860D01*
X39930Y881688D01*
X39260Y883307D01*
X37891Y885091D01*
X36107Y886460D01*
X34029Y887320D01*
X33070Y887446D01*
Y879000D01*
Y870553D01*
X34029Y870680D01*
X36107Y871540D01*
X37891Y872909D01*
X39260Y874693D01*
X40120Y876770D01*
X40366Y878640D01*
X41670Y878812D01*
X42340Y877193D01*
X43709Y875409D01*
X45493Y874040D01*
X47571Y873180D01*
X48530Y873053D01*
Y881500D01*
Y889946D01*
D02*
G37*
G36*
X160200Y889569D02*
X158112Y889294D01*
X156166Y888488D01*
X154494Y887206D01*
X153212Y885535D01*
X152406Y883589D01*
X152131Y881500D01*
X152406Y879412D01*
X153212Y877466D01*
X154494Y875795D01*
X156166Y874512D01*
X158112Y873706D01*
X160200Y873431D01*
X162288Y873706D01*
X164235Y874512D01*
X165906Y875795D01*
X167188Y877466D01*
X167994Y879412D01*
X168269Y881500D01*
X167994Y883589D01*
X167188Y885535D01*
X165906Y887206D01*
X164235Y888488D01*
X162288Y889294D01*
X160200Y889569D01*
D02*
G37*
G36*
X298530Y889946D02*
X297571Y889820D01*
X295493Y888960D01*
X293709Y887591D01*
X292340Y885807D01*
X291480Y883729D01*
X291234Y881860D01*
X289930Y881688D01*
X289260Y883307D01*
X287891Y885091D01*
X286107Y886460D01*
X284029Y887320D01*
X283070Y887446D01*
Y879000D01*
Y870553D01*
X284029Y870680D01*
X286107Y871540D01*
X287891Y872909D01*
X289260Y874693D01*
X290120Y876770D01*
X290366Y878640D01*
X291670Y878812D01*
X292340Y877193D01*
X293709Y875409D01*
X295493Y874040D01*
X297571Y873180D01*
X298530Y873053D01*
Y881500D01*
Y889946D01*
D02*
G37*
G36*
X280530Y887446D02*
X279571Y887320D01*
X277493Y886460D01*
X275709Y885091D01*
X274340Y883307D01*
X273480Y881229D01*
X273354Y880270D01*
X280530D01*
Y887446D01*
D02*
G37*
G36*
X176930Y887447D02*
X175971Y887320D01*
X173893Y886460D01*
X172109Y885091D01*
X170740Y883307D01*
X169880Y881229D01*
X169753Y880270D01*
X176930D01*
Y887447D01*
D02*
G37*
G36*
X179470Y887447D02*
Y880270D01*
X186646D01*
X186520Y881229D01*
X185660Y883307D01*
X184291Y885091D01*
X182507Y886460D01*
X180429Y887320D01*
X179470Y887447D01*
D02*
G37*
G36*
X-73070D02*
X-74029Y887320D01*
X-76107Y886460D01*
X-77891Y885091D01*
X-79260Y883307D01*
X-80120Y881229D01*
X-80246Y880270D01*
X-73070D01*
Y887447D01*
D02*
G37*
G36*
X-70530D02*
Y880270D01*
X-63354D01*
X-63480Y881229D01*
X-64340Y883307D01*
X-65709Y885091D01*
X-67493Y886460D01*
X-69571Y887320D01*
X-70530Y887447D01*
D02*
G37*
G36*
X30530Y877730D02*
X23354D01*
X23480Y876770D01*
X24340Y874693D01*
X25709Y872909D01*
X27493Y871540D01*
X29571Y870680D01*
X30530Y870553D01*
Y877730D01*
D02*
G37*
G36*
X280530D02*
X273354D01*
X273480Y876770D01*
X274340Y874693D01*
X275709Y872909D01*
X277493Y871540D01*
X279571Y870680D01*
X280530Y870554D01*
Y877730D01*
D02*
G37*
G36*
X186646Y877730D02*
X179470D01*
Y870554D01*
X180429Y870680D01*
X182507Y871541D01*
X184291Y872909D01*
X185660Y874693D01*
X186520Y876771D01*
X186646Y877730D01*
D02*
G37*
G36*
X13800Y884569D02*
X11712Y884294D01*
X9765Y883488D01*
X8094Y882206D01*
X6812Y880534D01*
X6006Y878588D01*
X5731Y876500D01*
X6006Y874411D01*
X6812Y872465D01*
X8094Y870794D01*
X9765Y869512D01*
X11712Y868706D01*
X13800Y868431D01*
X15888Y868706D01*
X17835Y869512D01*
X19506Y870794D01*
X20788Y872465D01*
X21594Y874411D01*
X21869Y876500D01*
X21594Y878588D01*
X20788Y880534D01*
X19506Y882206D01*
X17835Y883488D01*
X15888Y884294D01*
X13800Y884569D01*
D02*
G37*
G36*
X263800D02*
X261712Y884294D01*
X259765Y883488D01*
X258094Y882206D01*
X256812Y880534D01*
X256006Y878588D01*
X255731Y876500D01*
X256006Y874411D01*
X256812Y872465D01*
X258094Y870794D01*
X259765Y869512D01*
X261712Y868706D01*
X263800Y868431D01*
X265888Y868706D01*
X267834Y869512D01*
X269506Y870794D01*
X270788Y872465D01*
X271594Y874411D01*
X271869Y876500D01*
X271594Y878588D01*
X270788Y880534D01*
X269506Y882206D01*
X267834Y883488D01*
X265888Y884294D01*
X263800Y884569D01*
D02*
G37*
G36*
X196200Y884569D02*
X194112Y884294D01*
X192166Y883488D01*
X190494Y882206D01*
X189212Y880535D01*
X188406Y878589D01*
X188131Y876500D01*
X188406Y874412D01*
X189212Y872466D01*
X190494Y870795D01*
X192166Y869512D01*
X194112Y868706D01*
X196200Y868431D01*
X198288Y868706D01*
X200235Y869512D01*
X201906Y870795D01*
X203188Y872466D01*
X203994Y874412D01*
X204269Y876500D01*
X203994Y878589D01*
X203188Y880535D01*
X201906Y882206D01*
X200235Y883488D01*
X198288Y884294D01*
X196200Y884569D01*
D02*
G37*
G36*
X58246Y880230D02*
X51070D01*
Y873053D01*
X52029Y873180D01*
X54107Y874040D01*
X55891Y875409D01*
X57260Y877193D01*
X58120Y879271D01*
X58246Y880230D01*
D02*
G37*
G36*
X308246D02*
X301070D01*
Y873053D01*
X302029Y873180D01*
X304107Y874040D01*
X305891Y875409D01*
X307260Y877193D01*
X308120Y879271D01*
X308246Y880230D01*
D02*
G37*
G36*
X-89800Y889569D02*
X-91888Y889294D01*
X-93834Y888488D01*
X-95506Y887206D01*
X-96788Y885535D01*
X-97594Y883589D01*
X-97869Y881500D01*
X-97594Y879412D01*
X-96788Y877466D01*
X-95506Y875795D01*
X-93834Y874512D01*
X-91888Y873706D01*
X-89800Y873431D01*
X-87712Y873706D01*
X-85765Y874512D01*
X-84094Y875795D01*
X-82812Y877466D01*
X-82006Y879412D01*
X-81731Y881500D01*
X-82006Y883589D01*
X-82812Y885535D01*
X-84094Y887206D01*
X-85765Y888488D01*
X-87712Y889294D01*
X-89800Y889569D01*
D02*
G37*
G36*
X-73070Y877730D02*
X-80246D01*
X-80120Y876771D01*
X-79260Y874693D01*
X-77891Y872909D01*
X-76107Y871541D01*
X-74029Y870680D01*
X-73070Y870554D01*
Y877730D01*
D02*
G37*
G36*
X-63354D02*
X-70530D01*
Y870554D01*
X-69571Y870680D01*
X-67493Y871541D01*
X-65709Y872909D01*
X-64340Y874693D01*
X-63480Y876771D01*
X-63354Y877730D01*
D02*
G37*
G36*
X176930D02*
X169753D01*
X169880Y876771D01*
X170740Y874693D01*
X172109Y872909D01*
X173893Y871541D01*
X175971Y870680D01*
X176930Y870554D01*
Y877730D01*
D02*
G37*
G36*
X51070Y889946D02*
Y882770D01*
X58246D01*
X58120Y883729D01*
X57260Y885807D01*
X55891Y887591D01*
X54107Y888960D01*
X52029Y889820D01*
X51070Y889946D01*
D02*
G37*
G36*
X-91070Y910447D02*
X-92029Y910320D01*
X-94107Y909460D01*
X-95891Y908091D01*
X-97260Y906307D01*
X-98120Y904230D01*
X-98246Y903270D01*
X-91070D01*
Y910447D01*
D02*
G37*
G36*
X158930D02*
X157971Y910320D01*
X155893Y909460D01*
X154109Y908091D01*
X152740Y906307D01*
X151880Y904230D01*
X151754Y903270D01*
X158930D01*
Y910447D01*
D02*
G37*
G36*
X299800Y910069D02*
X297712Y909794D01*
X295765Y908988D01*
X294094Y907706D01*
X292812Y906034D01*
X292006Y904088D01*
X291731Y902000D01*
X292006Y899911D01*
X292812Y897965D01*
X294094Y896294D01*
X295765Y895012D01*
X297712Y894206D01*
X299800Y893931D01*
X301888Y894206D01*
X303834Y895012D01*
X305506Y896294D01*
X306788Y897965D01*
X307594Y899911D01*
X307869Y902000D01*
X307594Y904088D01*
X306788Y906034D01*
X305506Y907706D01*
X303834Y908988D01*
X301888Y909794D01*
X299800Y910069D01*
D02*
G37*
G36*
X168647Y900730D02*
X161470D01*
Y893554D01*
X162429Y893680D01*
X164507Y894540D01*
X166291Y895909D01*
X167660Y897693D01*
X168520Y899771D01*
X168647Y900730D01*
D02*
G37*
G36*
X49800Y910069D02*
X47712Y909794D01*
X45766Y908988D01*
X44094Y907706D01*
X42812Y906034D01*
X42006Y904088D01*
X41731Y902000D01*
X42006Y899911D01*
X42812Y897965D01*
X44094Y896294D01*
X45766Y895012D01*
X47712Y894206D01*
X49800Y893931D01*
X51888Y894206D01*
X53835Y895012D01*
X55506Y896294D01*
X56788Y897965D01*
X57594Y899911D01*
X57869Y902000D01*
X57594Y904088D01*
X56788Y906034D01*
X55506Y907706D01*
X53835Y908988D01*
X51888Y909794D01*
X49800Y910069D01*
D02*
G37*
G36*
X22246Y916230D02*
X15070D01*
Y909053D01*
X16029Y909180D01*
X18107Y910040D01*
X19891Y911409D01*
X21260Y913193D01*
X22120Y915270D01*
X22246Y916230D01*
D02*
G37*
G36*
X272246D02*
X265070D01*
Y909053D01*
X266029Y909180D01*
X268107Y910040D01*
X269891Y911409D01*
X271260Y913193D01*
X272120Y915270D01*
X272246Y916230D01*
D02*
G37*
G36*
X262530D02*
X255354D01*
X255480Y915270D01*
X256340Y913193D01*
X257709Y911409D01*
X259493Y910040D01*
X261571Y909180D01*
X262530Y909053D01*
Y916230D01*
D02*
G37*
G36*
X-88530Y910447D02*
Y903270D01*
X-81354D01*
X-81480Y904230D01*
X-82340Y906307D01*
X-83709Y908091D01*
X-85493Y909460D01*
X-87571Y910320D01*
X-88530Y910447D01*
D02*
G37*
G36*
X161470D02*
Y903270D01*
X168647D01*
X168520Y904230D01*
X167660Y906307D01*
X166291Y908091D01*
X164507Y909460D01*
X162429Y910320D01*
X161470Y910447D01*
D02*
G37*
G36*
X-81354Y900730D02*
X-88530D01*
Y893554D01*
X-87571Y893680D01*
X-85493Y894540D01*
X-83709Y895909D01*
X-82340Y897693D01*
X-81480Y899771D01*
X-81354Y900730D01*
D02*
G37*
G36*
X196200Y905069D02*
X194112Y904794D01*
X192166Y903988D01*
X190494Y902706D01*
X189212Y901035D01*
X188406Y899089D01*
X188131Y897000D01*
X188406Y894912D01*
X189212Y892966D01*
X190494Y891294D01*
X192166Y890012D01*
X194112Y889206D01*
X196200Y888931D01*
X198288Y889206D01*
X200235Y890012D01*
X201906Y891294D01*
X203188Y892966D01*
X203994Y894912D01*
X204269Y897000D01*
X203994Y899089D01*
X203188Y901035D01*
X201906Y902706D01*
X200235Y903988D01*
X198288Y904794D01*
X196200Y905069D01*
D02*
G37*
G36*
X31800Y907569D02*
X29712Y907294D01*
X27766Y906488D01*
X26094Y905206D01*
X24812Y903534D01*
X24006Y901588D01*
X23731Y899500D01*
X24006Y897411D01*
X24812Y895465D01*
X26094Y893794D01*
X27766Y892512D01*
X29712Y891706D01*
X31800Y891431D01*
X33888Y891706D01*
X35835Y892512D01*
X37506Y893794D01*
X38788Y895465D01*
X39594Y897411D01*
X39869Y899500D01*
X39594Y901588D01*
X38788Y903534D01*
X37506Y905206D01*
X35835Y906488D01*
X33888Y907294D01*
X31800Y907569D01*
D02*
G37*
G36*
X263800Y905069D02*
X261712Y904794D01*
X259765Y903988D01*
X258094Y902706D01*
X256812Y901034D01*
X256006Y899088D01*
X255731Y897000D01*
X256006Y894911D01*
X256812Y892965D01*
X258094Y891294D01*
X259765Y890012D01*
X261712Y889206D01*
X263800Y888931D01*
X265888Y889206D01*
X267834Y890012D01*
X269506Y891294D01*
X270788Y892965D01*
X271594Y894911D01*
X271869Y897000D01*
X271594Y899088D01*
X270788Y901034D01*
X269506Y902706D01*
X267834Y903988D01*
X265888Y904794D01*
X263800Y905069D01*
D02*
G37*
G36*
X301070Y889946D02*
Y882770D01*
X308246D01*
X308120Y883729D01*
X307260Y885807D01*
X305891Y887591D01*
X304107Y888960D01*
X302029Y889820D01*
X301070Y889946D01*
D02*
G37*
G36*
X13800Y905069D02*
X11712Y904794D01*
X9765Y903988D01*
X8094Y902706D01*
X6812Y901034D01*
X6006Y899088D01*
X5731Y897000D01*
X6006Y894911D01*
X6812Y892965D01*
X8094Y891294D01*
X9765Y890012D01*
X11712Y889206D01*
X13800Y888931D01*
X15888Y889206D01*
X17835Y890012D01*
X19506Y891294D01*
X20788Y892965D01*
X21594Y894911D01*
X21869Y897000D01*
X21594Y899088D01*
X20788Y901034D01*
X19506Y902706D01*
X17835Y903988D01*
X15888Y904794D01*
X13800Y905069D01*
D02*
G37*
G36*
X-91070Y900730D02*
X-98246D01*
X-98120Y899771D01*
X-97260Y897693D01*
X-95891Y895909D01*
X-94107Y894540D01*
X-92029Y893680D01*
X-91070Y893554D01*
Y900730D01*
D02*
G37*
G36*
X158930D02*
X151754D01*
X151880Y899771D01*
X152740Y897693D01*
X154109Y895909D01*
X155893Y894540D01*
X157971Y893680D01*
X158930Y893554D01*
Y900730D01*
D02*
G37*
G36*
X178200Y907569D02*
X176112Y907294D01*
X174165Y906488D01*
X172494Y905206D01*
X171212Y903535D01*
X170406Y901589D01*
X170131Y899500D01*
X170406Y897412D01*
X171212Y895466D01*
X172494Y893794D01*
X174165Y892512D01*
X176112Y891706D01*
X178200Y891431D01*
X180288Y891706D01*
X182234Y892512D01*
X183906Y893794D01*
X185188Y895466D01*
X185994Y897412D01*
X186269Y899500D01*
X185994Y901589D01*
X185188Y903535D01*
X183906Y905206D01*
X182234Y906488D01*
X180288Y907294D01*
X178200Y907569D01*
D02*
G37*
G36*
X281800Y907569D02*
X279712Y907294D01*
X277766Y906488D01*
X276094Y905206D01*
X274812Y903534D01*
X274006Y901588D01*
X273731Y899500D01*
X274006Y897411D01*
X274812Y895465D01*
X276094Y893794D01*
X277766Y892512D01*
X279712Y891706D01*
X281800Y891431D01*
X283888Y891706D01*
X285835Y892512D01*
X287506Y893794D01*
X288788Y895465D01*
X289594Y897411D01*
X289869Y899500D01*
X289594Y901588D01*
X288788Y903534D01*
X287506Y905206D01*
X285835Y906488D01*
X283888Y907294D01*
X281800Y907569D01*
D02*
G37*
G36*
X-71800Y907569D02*
X-73888Y907294D01*
X-75834Y906488D01*
X-77506Y905206D01*
X-78788Y903535D01*
X-79594Y901589D01*
X-79869Y899500D01*
X-79594Y897412D01*
X-78788Y895466D01*
X-77506Y893794D01*
X-75834Y892512D01*
X-73888Y891706D01*
X-71800Y891431D01*
X-69712Y891706D01*
X-67765Y892512D01*
X-66094Y893794D01*
X-64812Y895466D01*
X-64006Y897412D01*
X-63731Y899500D01*
X-64006Y901589D01*
X-64812Y903535D01*
X-66094Y905206D01*
X-67765Y906488D01*
X-69712Y907294D01*
X-71800Y907569D01*
D02*
G37*
G36*
X301070Y869446D02*
Y862270D01*
X308246D01*
X308120Y863229D01*
X307260Y865307D01*
X305891Y867091D01*
X304107Y868460D01*
X302029Y869320D01*
X301070Y869446D01*
D02*
G37*
G36*
X305000Y132382D02*
X302520Y132056D01*
X300209Y131098D01*
X298225Y129576D01*
X296702Y127591D01*
X295744Y125280D01*
X295418Y122800D01*
X295744Y120320D01*
X296702Y118009D01*
X298225Y116025D01*
X300209Y114502D01*
X302520Y113545D01*
X305000Y113218D01*
X307480Y113545D01*
X309791Y114502D01*
X311775Y116025D01*
X313298Y118009D01*
X314256Y120320D01*
X314582Y122800D01*
X314256Y125280D01*
X313298Y127591D01*
X311775Y129576D01*
X309791Y131098D01*
X307480Y132056D01*
X305000Y132382D01*
D02*
G37*
G36*
X-92200Y158182D02*
X-94680Y157856D01*
X-96991Y156898D01*
X-98975Y155375D01*
X-100498Y153391D01*
X-101455Y151080D01*
X-101782Y148600D01*
X-101455Y146120D01*
X-100498Y143809D01*
X-98975Y141825D01*
X-96991Y140302D01*
X-94680Y139345D01*
X-92200Y139018D01*
X-89720Y139345D01*
X-87409Y140302D01*
X-85424Y141825D01*
X-83902Y143809D01*
X-82944Y146120D01*
X-82618Y148600D01*
X-82944Y151080D01*
X-83902Y153391D01*
X-85424Y155375D01*
X-87409Y156898D01*
X-89720Y157856D01*
X-92200Y158182D01*
D02*
G37*
G36*
X305000Y106982D02*
X302520Y106656D01*
X300209Y105698D01*
X298225Y104176D01*
X296702Y102191D01*
X295744Y99880D01*
X295418Y97400D01*
X295744Y94920D01*
X296702Y92609D01*
X298225Y90625D01*
X300209Y89102D01*
X302520Y88145D01*
X305000Y87818D01*
X307480Y88145D01*
X309791Y89102D01*
X311775Y90625D01*
X313298Y92609D01*
X314256Y94920D01*
X314582Y97400D01*
X314256Y99880D01*
X313298Y102191D01*
X311775Y104176D01*
X309791Y105698D01*
X307480Y106656D01*
X305000Y106982D01*
D02*
G37*
G36*
X228800Y183182D02*
X226320Y182855D01*
X224009Y181898D01*
X222024Y180375D01*
X220502Y178391D01*
X219545Y176080D01*
X219218Y173600D01*
X219545Y171120D01*
X220502Y168809D01*
X222024Y166825D01*
X224009Y165302D01*
X226320Y164345D01*
X228800Y164018D01*
X231280Y164345D01*
X233591Y165302D01*
X235575Y166825D01*
X237098Y168809D01*
X238055Y171120D01*
X238382Y173600D01*
X238055Y176080D01*
X237098Y178391D01*
X235575Y180375D01*
X233591Y181898D01*
X231280Y182855D01*
X228800Y183182D01*
D02*
G37*
G36*
X-92200Y234382D02*
X-94680Y234056D01*
X-96991Y233098D01*
X-98975Y231576D01*
X-100498Y229591D01*
X-101455Y227280D01*
X-101782Y224800D01*
X-101455Y222320D01*
X-100498Y220009D01*
X-98975Y218025D01*
X-96991Y216502D01*
X-94680Y215545D01*
X-92200Y215218D01*
X-89720Y215545D01*
X-87409Y216502D01*
X-85424Y218025D01*
X-83902Y220009D01*
X-82944Y222320D01*
X-82618Y224800D01*
X-82944Y227280D01*
X-83902Y229591D01*
X-85424Y231576D01*
X-87409Y233098D01*
X-89720Y234056D01*
X-92200Y234382D01*
D02*
G37*
G36*
X-82700Y259700D02*
X-101700D01*
Y240700D01*
X-82700D01*
Y259700D01*
D02*
G37*
G36*
X228800Y233982D02*
X226320Y233655D01*
X224009Y232698D01*
X222024Y231175D01*
X220502Y229191D01*
X219545Y226880D01*
X219218Y224400D01*
X219545Y221920D01*
X220502Y219609D01*
X222024Y217625D01*
X224009Y216102D01*
X226320Y215145D01*
X228800Y214818D01*
X231280Y215145D01*
X233591Y216102D01*
X235575Y217625D01*
X237098Y219609D01*
X238055Y221920D01*
X238382Y224400D01*
X238055Y226880D01*
X237098Y229191D01*
X235575Y231175D01*
X233591Y232698D01*
X231280Y233655D01*
X228800Y233982D01*
D02*
G37*
G36*
X-92200Y183582D02*
X-94680Y183256D01*
X-96991Y182298D01*
X-98975Y180776D01*
X-100498Y178791D01*
X-101455Y176480D01*
X-101782Y174000D01*
X-101455Y171520D01*
X-100498Y169209D01*
X-98975Y167225D01*
X-96991Y165702D01*
X-94680Y164745D01*
X-92200Y164418D01*
X-89720Y164745D01*
X-87409Y165702D01*
X-85424Y167225D01*
X-83902Y169209D01*
X-82944Y171520D01*
X-82618Y174000D01*
X-82944Y176480D01*
X-83902Y178791D01*
X-85424Y180776D01*
X-87409Y182298D01*
X-89720Y183256D01*
X-92200Y183582D01*
D02*
G37*
G36*
Y208982D02*
X-94680Y208655D01*
X-96991Y207698D01*
X-98975Y206175D01*
X-100498Y204191D01*
X-101455Y201880D01*
X-101782Y199400D01*
X-101455Y196920D01*
X-100498Y194609D01*
X-98975Y192625D01*
X-96991Y191102D01*
X-94680Y190145D01*
X-92200Y189818D01*
X-89720Y190145D01*
X-87409Y191102D01*
X-85424Y192625D01*
X-83902Y194609D01*
X-82944Y196920D01*
X-82618Y199400D01*
X-82944Y201880D01*
X-83902Y204191D01*
X-85424Y206175D01*
X-87409Y207698D01*
X-89720Y208655D01*
X-92200Y208982D01*
D02*
G37*
G36*
X-16000Y31182D02*
X-18480Y30856D01*
X-20791Y29898D01*
X-22775Y28375D01*
X-24298Y26391D01*
X-25255Y24080D01*
X-25582Y21600D01*
X-25255Y19120D01*
X-24298Y16809D01*
X-22775Y14825D01*
X-20791Y13302D01*
X-18480Y12345D01*
X-16000Y12018D01*
X-13520Y12345D01*
X-11209Y13302D01*
X-9225Y14825D01*
X-7702Y16809D01*
X-6744Y19120D01*
X-6418Y21600D01*
X-6744Y24080D01*
X-7702Y26391D01*
X-9225Y28375D01*
X-11209Y29898D01*
X-13520Y30856D01*
X-16000Y31182D01*
D02*
G37*
G36*
X228800Y56182D02*
X226320Y55855D01*
X224009Y54898D01*
X222024Y53376D01*
X220502Y51391D01*
X219545Y49080D01*
X219218Y46600D01*
X219545Y44120D01*
X220502Y41809D01*
X222024Y39825D01*
X224009Y38302D01*
X226320Y37345D01*
X228800Y37018D01*
X231280Y37345D01*
X233591Y38302D01*
X235575Y39825D01*
X237098Y41809D01*
X238055Y44120D01*
X238382Y46600D01*
X238055Y49080D01*
X237098Y51391D01*
X235575Y53376D01*
X233591Y54898D01*
X231280Y55855D01*
X228800Y56182D01*
D02*
G37*
G36*
X-92200Y31182D02*
X-94680Y30856D01*
X-96991Y29898D01*
X-98975Y28375D01*
X-100498Y26391D01*
X-101455Y24080D01*
X-101782Y21600D01*
X-101455Y19120D01*
X-100498Y16809D01*
X-98975Y14825D01*
X-96991Y13302D01*
X-94680Y12345D01*
X-92200Y12018D01*
X-89720Y12345D01*
X-87409Y13302D01*
X-85424Y14825D01*
X-83902Y16809D01*
X-82944Y19120D01*
X-82618Y21600D01*
X-82944Y24080D01*
X-83902Y26391D01*
X-85424Y28375D01*
X-87409Y29898D01*
X-89720Y30856D01*
X-92200Y31182D01*
D02*
G37*
G36*
X228800Y30782D02*
X226320Y30456D01*
X224009Y29498D01*
X222024Y27975D01*
X220502Y25991D01*
X219545Y23680D01*
X219218Y21200D01*
X219545Y18720D01*
X220502Y16409D01*
X222024Y14425D01*
X224009Y12902D01*
X226320Y11945D01*
X228800Y11618D01*
X231280Y11945D01*
X233591Y12902D01*
X235575Y14425D01*
X237098Y16409D01*
X238055Y18720D01*
X238382Y21200D01*
X238055Y23680D01*
X237098Y25991D01*
X235575Y27975D01*
X233591Y29498D01*
X231280Y30456D01*
X228800Y30782D01*
D02*
G37*
G36*
X305000D02*
X302520Y30456D01*
X300209Y29498D01*
X298225Y27975D01*
X296702Y25991D01*
X295744Y23680D01*
X295418Y21200D01*
X295744Y18720D01*
X296702Y16409D01*
X298225Y14425D01*
X300209Y12902D01*
X302520Y11945D01*
X305000Y11618D01*
X307480Y11945D01*
X309791Y12902D01*
X311775Y14425D01*
X313298Y16409D01*
X314256Y18720D01*
X314582Y21200D01*
X314256Y23680D01*
X313298Y25991D01*
X311775Y27975D01*
X309791Y29498D01*
X307480Y30456D01*
X305000Y30782D01*
D02*
G37*
G36*
Y56182D02*
X302520Y55855D01*
X300209Y54898D01*
X298225Y53376D01*
X296702Y51391D01*
X295744Y49080D01*
X295418Y46600D01*
X295744Y44120D01*
X296702Y41809D01*
X298225Y39825D01*
X300209Y38302D01*
X302520Y37345D01*
X305000Y37018D01*
X307480Y37345D01*
X309791Y38302D01*
X311775Y39825D01*
X313298Y41809D01*
X314256Y44120D01*
X314582Y46600D01*
X314256Y49080D01*
X313298Y51391D01*
X311775Y53376D01*
X309791Y54898D01*
X307480Y55855D01*
X305000Y56182D01*
D02*
G37*
G36*
X228800Y106982D02*
X226320Y106656D01*
X224009Y105698D01*
X222024Y104176D01*
X220502Y102191D01*
X219545Y99880D01*
X219218Y97400D01*
X219545Y94920D01*
X220502Y92609D01*
X222024Y90625D01*
X224009Y89102D01*
X226320Y88145D01*
X228800Y87818D01*
X231280Y88145D01*
X233591Y89102D01*
X235575Y90625D01*
X237098Y92609D01*
X238055Y94920D01*
X238382Y97400D01*
X238055Y99880D01*
X237098Y102191D01*
X235575Y104176D01*
X233591Y105698D01*
X231280Y106656D01*
X228800Y106982D01*
D02*
G37*
G36*
Y81582D02*
X226320Y81256D01*
X224009Y80298D01*
X222024Y78776D01*
X220502Y76791D01*
X219545Y74480D01*
X219218Y72000D01*
X219545Y69520D01*
X220502Y67209D01*
X222024Y65225D01*
X224009Y63702D01*
X226320Y62745D01*
X228800Y62418D01*
X231280Y62745D01*
X233591Y63702D01*
X235575Y65225D01*
X237098Y67209D01*
X238055Y69520D01*
X238382Y72000D01*
X238055Y74480D01*
X237098Y76791D01*
X235575Y78776D01*
X233591Y80298D01*
X231280Y81256D01*
X228800Y81582D01*
D02*
G37*
G36*
X305000D02*
X302520Y81256D01*
X300209Y80298D01*
X298225Y78776D01*
X296702Y76791D01*
X295744Y74480D01*
X295418Y72000D01*
X295744Y69520D01*
X296702Y67209D01*
X298225Y65225D01*
X300209Y63702D01*
X302520Y62745D01*
X305000Y62418D01*
X307480Y62745D01*
X309791Y63702D01*
X311775Y65225D01*
X313298Y67209D01*
X314256Y69520D01*
X314582Y72000D01*
X314256Y74480D01*
X313298Y76791D01*
X311775Y78776D01*
X309791Y80298D01*
X307480Y81256D01*
X305000Y81582D01*
D02*
G37*
G36*
X-89800Y869069D02*
X-91888Y868794D01*
X-93834Y867988D01*
X-95506Y866706D01*
X-96788Y865035D01*
X-97594Y863089D01*
X-97869Y861000D01*
X-97594Y858912D01*
X-96788Y856966D01*
X-95506Y855294D01*
X-93834Y854012D01*
X-91888Y853206D01*
X-89800Y852931D01*
X-87712Y853206D01*
X-85765Y854012D01*
X-84094Y855294D01*
X-82812Y856966D01*
X-82006Y858912D01*
X-81731Y861000D01*
X-82006Y863089D01*
X-82812Y865035D01*
X-84094Y866706D01*
X-85765Y867988D01*
X-87712Y868794D01*
X-89800Y869069D01*
D02*
G37*
G36*
X160200D02*
X158112Y868794D01*
X156166Y867988D01*
X154494Y866706D01*
X153212Y865035D01*
X152406Y863089D01*
X152131Y861000D01*
X152406Y858912D01*
X153212Y856966D01*
X154494Y855294D01*
X156166Y854012D01*
X158112Y853206D01*
X160200Y852931D01*
X162288Y853206D01*
X164235Y854012D01*
X165906Y855294D01*
X167188Y856966D01*
X167994Y858912D01*
X168269Y861000D01*
X167994Y863089D01*
X167188Y865035D01*
X165906Y866706D01*
X164235Y867988D01*
X162288Y868794D01*
X160200Y869069D01*
D02*
G37*
G36*
X308246Y859730D02*
X301070D01*
Y852553D01*
X302029Y852680D01*
X304107Y853540D01*
X305891Y854909D01*
X307260Y856693D01*
X308120Y858771D01*
X308246Y859730D01*
D02*
G37*
G36*
X298530D02*
X291353D01*
X291480Y858771D01*
X292340Y856693D01*
X293709Y854909D01*
X295493Y853540D01*
X297571Y852680D01*
X298530Y852553D01*
Y859730D01*
D02*
G37*
G36*
X58246D02*
X51070D01*
Y852553D01*
X52029Y852680D01*
X54107Y853540D01*
X55891Y854909D01*
X57260Y856693D01*
X58120Y858771D01*
X58246Y859730D01*
D02*
G37*
G36*
X-55070Y864447D02*
X-56029Y864320D01*
X-58107Y863460D01*
X-59891Y862091D01*
X-61260Y860307D01*
X-62120Y858230D01*
X-62246Y857270D01*
X-55070D01*
Y864447D01*
D02*
G37*
G36*
X298530Y869446D02*
X297571Y869320D01*
X295493Y868460D01*
X293709Y867091D01*
X292340Y865307D01*
X291480Y863229D01*
X291353Y862270D01*
X298530D01*
Y869446D01*
D02*
G37*
G36*
X51070D02*
Y862270D01*
X58246D01*
X58120Y863229D01*
X57260Y865307D01*
X55891Y867091D01*
X54107Y868460D01*
X52029Y869320D01*
X51070Y869446D01*
D02*
G37*
G36*
X48530D02*
X47571Y869320D01*
X45493Y868460D01*
X43709Y867091D01*
X42340Y865307D01*
X41480Y863229D01*
X41354Y862270D01*
X48530D01*
Y869446D01*
D02*
G37*
G36*
X194930Y864447D02*
X193971Y864320D01*
X191893Y863460D01*
X190109Y862091D01*
X188740Y860307D01*
X187880Y858230D01*
X187754Y857270D01*
X194930D01*
Y864447D01*
D02*
G37*
G36*
X197470D02*
Y857270D01*
X204646D01*
X204520Y858230D01*
X203660Y860307D01*
X202291Y862091D01*
X200507Y863460D01*
X198429Y864320D01*
X197470Y864447D01*
D02*
G37*
G36*
X204646Y854730D02*
X197470D01*
Y847554D01*
X198429Y847680D01*
X200507Y848540D01*
X202291Y849909D01*
X203660Y851693D01*
X204520Y853771D01*
X204646Y854730D01*
D02*
G37*
G36*
X13800Y864069D02*
X11712Y863794D01*
X9765Y862988D01*
X8094Y861705D01*
X6812Y860034D01*
X6006Y858088D01*
X5731Y856000D01*
X6006Y853912D01*
X6812Y851965D01*
X8094Y850294D01*
X9765Y849012D01*
X11712Y848206D01*
X13800Y847931D01*
X15888Y848206D01*
X17835Y849012D01*
X19506Y850294D01*
X20788Y851965D01*
X21594Y853912D01*
X21869Y856000D01*
X21594Y858088D01*
X20788Y860034D01*
X19506Y861705D01*
X17835Y862988D01*
X15888Y863794D01*
X13800Y864069D01*
D02*
G37*
G36*
X194930Y854730D02*
X187754D01*
X187880Y853771D01*
X188740Y851693D01*
X190109Y849909D01*
X191893Y848540D01*
X193971Y847680D01*
X194930Y847554D01*
Y854730D01*
D02*
G37*
G36*
X105000Y655102D02*
X100883Y654696D01*
X96925Y653495D01*
X93277Y651545D01*
X90079Y648921D01*
X87455Y645723D01*
X85505Y642075D01*
X84304Y638117D01*
X83898Y634000D01*
X84304Y629883D01*
X85505Y625925D01*
X87455Y622277D01*
X90079Y619079D01*
X93277Y616455D01*
X96925Y614505D01*
X100883Y613304D01*
X105000Y612898D01*
X109117Y613304D01*
X113075Y614505D01*
X116723Y616455D01*
X119921Y619079D01*
X122545Y622277D01*
X124495Y625925D01*
X125696Y629883D01*
X126102Y634000D01*
X125696Y638117D01*
X124495Y642075D01*
X122545Y645723D01*
X119921Y648921D01*
X116723Y651545D01*
X113075Y653495D01*
X109117Y654696D01*
X105000Y655102D01*
D02*
G37*
G36*
X-55070Y854730D02*
X-62246D01*
X-62120Y853771D01*
X-61260Y851693D01*
X-59891Y849909D01*
X-58107Y848540D01*
X-56029Y847680D01*
X-55070Y847554D01*
Y854730D01*
D02*
G37*
G36*
X263800Y864069D02*
X261712Y863794D01*
X259765Y862988D01*
X258094Y861705D01*
X256812Y860034D01*
X256006Y858088D01*
X255731Y856000D01*
X256006Y853912D01*
X256812Y851965D01*
X258094Y850294D01*
X259765Y849012D01*
X261712Y848206D01*
X263800Y847931D01*
X265888Y848206D01*
X267834Y849012D01*
X269506Y850294D01*
X270788Y851965D01*
X271594Y853912D01*
X271869Y856000D01*
X271594Y858088D01*
X270788Y860034D01*
X269506Y861705D01*
X267834Y862988D01*
X265888Y863794D01*
X263800Y864069D01*
D02*
G37*
G36*
X178200Y866569D02*
X176112Y866294D01*
X174165Y865488D01*
X172494Y864206D01*
X171212Y862535D01*
X170406Y860589D01*
X170131Y858500D01*
X170406Y856412D01*
X171212Y854466D01*
X172494Y852794D01*
X174165Y851512D01*
X176112Y850706D01*
X178200Y850431D01*
X180288Y850706D01*
X182234Y851512D01*
X183906Y852794D01*
X185188Y854466D01*
X185994Y856412D01*
X186269Y858500D01*
X185994Y860589D01*
X185188Y862535D01*
X183906Y864206D01*
X182234Y865488D01*
X180288Y866294D01*
X178200Y866569D01*
D02*
G37*
G36*
X48530Y859730D02*
X41354D01*
X41480Y858771D01*
X42340Y856693D01*
X43709Y854909D01*
X45493Y853540D01*
X47571Y852680D01*
X48530Y852553D01*
Y859730D01*
D02*
G37*
G36*
X-71800Y866569D02*
X-73888Y866294D01*
X-75834Y865488D01*
X-77506Y864206D01*
X-78788Y862535D01*
X-79594Y860589D01*
X-79869Y858500D01*
X-79594Y856412D01*
X-78788Y854466D01*
X-77506Y852794D01*
X-75834Y851512D01*
X-73888Y850706D01*
X-71800Y850431D01*
X-69712Y850706D01*
X-67765Y851512D01*
X-66094Y852794D01*
X-64812Y854466D01*
X-64006Y856412D01*
X-63731Y858500D01*
X-64006Y860589D01*
X-64812Y862535D01*
X-66094Y864206D01*
X-67765Y865488D01*
X-69712Y866294D01*
X-71800Y866569D01*
D02*
G37*
G36*
X31800Y866569D02*
X29712Y866294D01*
X27766Y865488D01*
X26094Y864206D01*
X24812Y862534D01*
X24006Y860588D01*
X23731Y858500D01*
X24006Y856412D01*
X24812Y854465D01*
X26094Y852794D01*
X27766Y851512D01*
X29712Y850706D01*
X31800Y850431D01*
X33888Y850706D01*
X35835Y851512D01*
X37506Y852794D01*
X38788Y854465D01*
X39594Y856412D01*
X39869Y858500D01*
X39594Y860588D01*
X38788Y862534D01*
X37506Y864206D01*
X35835Y865488D01*
X33888Y866294D01*
X31800Y866569D01*
D02*
G37*
G36*
X281800D02*
X279712Y866294D01*
X277766Y865488D01*
X276094Y864206D01*
X274812Y862534D01*
X274006Y860588D01*
X273731Y858500D01*
X274006Y856412D01*
X274812Y854465D01*
X276094Y852794D01*
X277766Y851512D01*
X279712Y850706D01*
X281800Y850431D01*
X283888Y850706D01*
X285835Y851512D01*
X287506Y852794D01*
X288788Y854465D01*
X289594Y856412D01*
X289869Y858500D01*
X289594Y860588D01*
X288788Y862534D01*
X287506Y864206D01*
X285835Y865488D01*
X283888Y866294D01*
X281800Y866569D01*
D02*
G37*
G36*
X31800Y928069D02*
X29712Y927794D01*
X27766Y926988D01*
X26094Y925706D01*
X24812Y924034D01*
X24006Y922088D01*
X23731Y920000D01*
X24006Y917912D01*
X24812Y915965D01*
X26094Y914294D01*
X27766Y913012D01*
X29712Y912206D01*
X31800Y911931D01*
X33888Y912206D01*
X35835Y913012D01*
X37506Y914294D01*
X38788Y915965D01*
X39594Y917912D01*
X39869Y920000D01*
X39594Y922088D01*
X38788Y924034D01*
X37506Y925706D01*
X35835Y926988D01*
X33888Y927794D01*
X31800Y928069D01*
D02*
G37*
G36*
X158930Y1033447D02*
X157971Y1033320D01*
X155893Y1032460D01*
X154109Y1031091D01*
X152740Y1029307D01*
X151880Y1027229D01*
X151754Y1026270D01*
X158930D01*
Y1033447D01*
D02*
G37*
G36*
X298530Y1033447D02*
X297571Y1033320D01*
X295493Y1032460D01*
X293709Y1031091D01*
X292340Y1029307D01*
X291480Y1027229D01*
X291353Y1026270D01*
X298530D01*
Y1033447D01*
D02*
G37*
G36*
X-91070Y1033447D02*
X-92029Y1033320D01*
X-94107Y1032460D01*
X-95891Y1031091D01*
X-97260Y1029307D01*
X-98120Y1027229D01*
X-98246Y1026270D01*
X-91070D01*
Y1033447D01*
D02*
G37*
G36*
X179470Y1030947D02*
Y1023770D01*
X186646D01*
X186520Y1024729D01*
X185660Y1026807D01*
X184291Y1028591D01*
X182507Y1029960D01*
X180429Y1030820D01*
X179470Y1030947D01*
D02*
G37*
G36*
X-70530D02*
Y1023770D01*
X-63354D01*
X-63480Y1024729D01*
X-64340Y1026807D01*
X-65709Y1028591D01*
X-67493Y1029960D01*
X-69571Y1030820D01*
X-70530Y1030947D01*
D02*
G37*
G36*
X48530Y1033447D02*
X47571Y1033320D01*
X45493Y1032460D01*
X43709Y1031091D01*
X42340Y1029307D01*
X41480Y1027229D01*
X41354Y1026270D01*
X48530D01*
Y1033447D01*
D02*
G37*
G36*
X281800Y1051069D02*
X279712Y1050794D01*
X277766Y1049988D01*
X276094Y1048706D01*
X274812Y1047035D01*
X274006Y1045088D01*
X273731Y1043000D01*
X274006Y1040912D01*
X274812Y1038966D01*
X276094Y1037294D01*
X277766Y1036012D01*
X279712Y1035206D01*
X281800Y1034931D01*
X283888Y1035206D01*
X285835Y1036012D01*
X287506Y1037294D01*
X288788Y1038966D01*
X289594Y1040912D01*
X289869Y1043000D01*
X289594Y1045088D01*
X288788Y1047035D01*
X287506Y1048706D01*
X285835Y1049988D01*
X283888Y1050794D01*
X281800Y1051069D01*
D02*
G37*
G36*
X-71800Y1051069D02*
X-73888Y1050794D01*
X-75834Y1049988D01*
X-77506Y1048706D01*
X-78788Y1047035D01*
X-79594Y1045088D01*
X-79869Y1043000D01*
X-79594Y1040912D01*
X-78788Y1038966D01*
X-77506Y1037294D01*
X-75834Y1036012D01*
X-73888Y1035206D01*
X-71800Y1034931D01*
X-69712Y1035206D01*
X-67765Y1036012D01*
X-66094Y1037294D01*
X-64812Y1038966D01*
X-64006Y1040912D01*
X-63731Y1043000D01*
X-64006Y1045088D01*
X-64812Y1047035D01*
X-66094Y1048706D01*
X-67765Y1049988D01*
X-69712Y1050794D01*
X-71800Y1051069D01*
D02*
G37*
G36*
X31800Y1051069D02*
X29712Y1050794D01*
X27766Y1049988D01*
X26094Y1048706D01*
X24812Y1047035D01*
X24006Y1045088D01*
X23731Y1043000D01*
X24006Y1040912D01*
X24812Y1038966D01*
X26094Y1037294D01*
X27766Y1036012D01*
X29712Y1035206D01*
X31800Y1034931D01*
X33888Y1035206D01*
X35835Y1036012D01*
X37506Y1037294D01*
X38788Y1038966D01*
X39594Y1040912D01*
X39869Y1043000D01*
X39594Y1045088D01*
X38788Y1047035D01*
X37506Y1048706D01*
X35835Y1049988D01*
X33888Y1050794D01*
X31800Y1051069D01*
D02*
G37*
G36*
X301070Y1033447D02*
Y1026270D01*
X308246D01*
X308120Y1027229D01*
X307260Y1029307D01*
X305891Y1031091D01*
X304107Y1032460D01*
X302029Y1033320D01*
X301070Y1033447D01*
D02*
G37*
G36*
X51070D02*
Y1026270D01*
X58246D01*
X58120Y1027229D01*
X57260Y1029307D01*
X55891Y1031091D01*
X54107Y1032460D01*
X52029Y1033320D01*
X51070Y1033447D01*
D02*
G37*
G36*
X31800Y1030569D02*
X29712Y1030294D01*
X27766Y1029488D01*
X26094Y1028206D01*
X24812Y1026535D01*
X24006Y1024588D01*
X23731Y1022500D01*
X24006Y1020412D01*
X24812Y1018465D01*
X26094Y1016794D01*
X27766Y1015512D01*
X29712Y1014706D01*
X31800Y1014431D01*
X33888Y1014706D01*
X35835Y1015512D01*
X37506Y1016794D01*
X38788Y1018465D01*
X39594Y1020412D01*
X39869Y1022500D01*
X39594Y1024588D01*
X38788Y1026535D01*
X37506Y1028206D01*
X35835Y1029488D01*
X33888Y1030294D01*
X31800Y1030569D01*
D02*
G37*
G36*
X281800D02*
X279712Y1030294D01*
X277766Y1029488D01*
X276094Y1028206D01*
X274812Y1026535D01*
X274006Y1024588D01*
X273731Y1022500D01*
X274006Y1020412D01*
X274812Y1018465D01*
X276094Y1016794D01*
X277766Y1015512D01*
X279712Y1014706D01*
X281800Y1014431D01*
X283888Y1014706D01*
X285835Y1015512D01*
X287506Y1016794D01*
X288788Y1018465D01*
X289594Y1020412D01*
X289869Y1022500D01*
X289594Y1024588D01*
X288788Y1026535D01*
X287506Y1028206D01*
X285835Y1029488D01*
X283888Y1030294D01*
X281800Y1030569D01*
D02*
G37*
G36*
X161470Y1033447D02*
Y1025000D01*
Y1016553D01*
X162429Y1016680D01*
X164507Y1017540D01*
X166291Y1018909D01*
X167660Y1020693D01*
X168330Y1022312D01*
X169634Y1022140D01*
X169880Y1020271D01*
X170740Y1018193D01*
X172109Y1016409D01*
X173893Y1015040D01*
X175971Y1014180D01*
X176930Y1014054D01*
Y1022500D01*
Y1030947D01*
X175971Y1030820D01*
X173893Y1029960D01*
X172109Y1028591D01*
X170740Y1026807D01*
X170070Y1025188D01*
X168766Y1025360D01*
X168520Y1027229D01*
X167660Y1029307D01*
X166291Y1031091D01*
X164507Y1032460D01*
X162429Y1033320D01*
X161470Y1033447D01*
D02*
G37*
G36*
X-88530D02*
Y1025000D01*
Y1016553D01*
X-87571Y1016680D01*
X-85493Y1017540D01*
X-83709Y1018909D01*
X-82340Y1020693D01*
X-81670Y1022312D01*
X-80366Y1022140D01*
X-80120Y1020271D01*
X-79260Y1018193D01*
X-77891Y1016409D01*
X-76107Y1015040D01*
X-74029Y1014180D01*
X-73070Y1014053D01*
Y1022500D01*
Y1030947D01*
X-74029Y1030820D01*
X-76107Y1029960D01*
X-77891Y1028591D01*
X-79260Y1026807D01*
X-79930Y1025188D01*
X-81234Y1025360D01*
X-81480Y1027229D01*
X-82340Y1029307D01*
X-83709Y1031091D01*
X-85493Y1032460D01*
X-87571Y1033320D01*
X-88530Y1033447D01*
D02*
G37*
G36*
X-63354Y1021230D02*
X-70530D01*
Y1014053D01*
X-69571Y1014180D01*
X-67493Y1015040D01*
X-65709Y1016409D01*
X-64340Y1018193D01*
X-63480Y1020271D01*
X-63354Y1021230D01*
D02*
G37*
G36*
X48530Y1023730D02*
X41354D01*
X41480Y1022771D01*
X42340Y1020693D01*
X43709Y1018909D01*
X45493Y1017540D01*
X47571Y1016680D01*
X48530Y1016553D01*
Y1023730D01*
D02*
G37*
G36*
X-91070Y1023730D02*
X-98246D01*
X-98120Y1022771D01*
X-97260Y1020693D01*
X-95891Y1018909D01*
X-94107Y1017540D01*
X-92029Y1016680D01*
X-91070Y1016553D01*
Y1023730D01*
D02*
G37*
G36*
X158930D02*
X151754D01*
X151880Y1022771D01*
X152740Y1020693D01*
X154109Y1018909D01*
X155893Y1017540D01*
X157971Y1016680D01*
X158930Y1016553D01*
Y1023730D01*
D02*
G37*
G36*
X308246Y1023730D02*
X301070D01*
Y1016553D01*
X302029Y1016680D01*
X304107Y1017540D01*
X305891Y1018909D01*
X307260Y1020693D01*
X308120Y1022771D01*
X308246Y1023730D01*
D02*
G37*
G36*
X298530D02*
X291353D01*
X291480Y1022771D01*
X292340Y1020693D01*
X293709Y1018909D01*
X295493Y1017540D01*
X297571Y1016680D01*
X298530Y1016553D01*
Y1023730D01*
D02*
G37*
G36*
X58246D02*
X51070D01*
Y1016553D01*
X52029Y1016680D01*
X54107Y1017540D01*
X55891Y1018909D01*
X57260Y1020693D01*
X58120Y1022771D01*
X58246Y1023730D01*
D02*
G37*
G36*
X178200Y1051069D02*
X176112Y1050794D01*
X174165Y1049988D01*
X172494Y1048706D01*
X171212Y1047035D01*
X170406Y1045088D01*
X170131Y1043000D01*
X170406Y1040912D01*
X171212Y1038966D01*
X172494Y1037294D01*
X174165Y1036012D01*
X176112Y1035206D01*
X178200Y1034931D01*
X180288Y1035206D01*
X182234Y1036012D01*
X183906Y1037294D01*
X185188Y1038966D01*
X185994Y1040912D01*
X186269Y1043000D01*
X185994Y1045088D01*
X185188Y1047035D01*
X183906Y1048706D01*
X182234Y1049988D01*
X180288Y1050794D01*
X178200Y1051069D01*
D02*
G37*
G36*
X58246Y1064730D02*
X51070D01*
Y1057553D01*
X52029Y1057680D01*
X54107Y1058540D01*
X55891Y1059909D01*
X57260Y1061693D01*
X58120Y1063771D01*
X58246Y1064730D01*
D02*
G37*
G36*
X308246D02*
X301070D01*
Y1057553D01*
X302029Y1057680D01*
X304107Y1058540D01*
X305891Y1059909D01*
X307260Y1061693D01*
X308120Y1063771D01*
X308246Y1064730D01*
D02*
G37*
G36*
X48530D02*
X41354D01*
X41480Y1063771D01*
X42340Y1061693D01*
X43709Y1059909D01*
X45493Y1058540D01*
X47571Y1057680D01*
X48530Y1057553D01*
Y1064730D01*
D02*
G37*
G36*
X281800Y1071569D02*
X279712Y1071294D01*
X277766Y1070488D01*
X276094Y1069206D01*
X274812Y1067534D01*
X274006Y1065588D01*
X273731Y1063500D01*
X274006Y1061412D01*
X274812Y1059465D01*
X276094Y1057794D01*
X277766Y1056512D01*
X279712Y1055706D01*
X281800Y1055431D01*
X283888Y1055706D01*
X285835Y1056512D01*
X287506Y1057794D01*
X288788Y1059465D01*
X289594Y1061412D01*
X289869Y1063500D01*
X289594Y1065588D01*
X288788Y1067534D01*
X287506Y1069206D01*
X285835Y1070488D01*
X283888Y1071294D01*
X281800Y1071569D01*
D02*
G37*
G36*
X298530Y1064730D02*
X291353D01*
X291480Y1063771D01*
X292340Y1061693D01*
X293709Y1059909D01*
X295493Y1058540D01*
X297571Y1057680D01*
X298530Y1057553D01*
Y1064730D01*
D02*
G37*
G36*
X-89800Y1074069D02*
X-91888Y1073794D01*
X-93834Y1072988D01*
X-95506Y1071706D01*
X-96788Y1070034D01*
X-97594Y1068088D01*
X-97869Y1066000D01*
X-97594Y1063912D01*
X-96788Y1061965D01*
X-95506Y1060294D01*
X-93834Y1059012D01*
X-91888Y1058206D01*
X-89800Y1057931D01*
X-87712Y1058206D01*
X-85765Y1059012D01*
X-84094Y1060294D01*
X-82812Y1061965D01*
X-82006Y1063912D01*
X-81731Y1066000D01*
X-82006Y1068088D01*
X-82812Y1070034D01*
X-84094Y1071706D01*
X-85765Y1072988D01*
X-87712Y1073794D01*
X-89800Y1074069D01*
D02*
G37*
G36*
X301070Y1074446D02*
Y1067270D01*
X308246D01*
X308120Y1068229D01*
X307260Y1070307D01*
X305891Y1072091D01*
X304107Y1073460D01*
X302029Y1074320D01*
X301070Y1074446D01*
D02*
G37*
G36*
X51070D02*
Y1067270D01*
X58246D01*
X58120Y1068229D01*
X57260Y1070307D01*
X55891Y1072091D01*
X54107Y1073460D01*
X52029Y1074320D01*
X51070Y1074446D01*
D02*
G37*
G36*
X48530D02*
X47571Y1074320D01*
X45493Y1073460D01*
X43709Y1072091D01*
X42340Y1070307D01*
X41480Y1068229D01*
X41354Y1067270D01*
X48530D01*
Y1074446D01*
D02*
G37*
G36*
X160200Y1074069D02*
X158112Y1073794D01*
X156166Y1072988D01*
X154494Y1071706D01*
X153212Y1070034D01*
X152406Y1068088D01*
X152131Y1066000D01*
X152406Y1063912D01*
X153212Y1061965D01*
X154494Y1060294D01*
X156166Y1059012D01*
X158112Y1058206D01*
X160200Y1057931D01*
X162288Y1058206D01*
X164235Y1059012D01*
X165906Y1060294D01*
X167188Y1061965D01*
X167994Y1063912D01*
X168269Y1066000D01*
X167994Y1068088D01*
X167188Y1070034D01*
X165906Y1071706D01*
X164235Y1072988D01*
X162288Y1073794D01*
X160200Y1074069D01*
D02*
G37*
G36*
X298530Y1074446D02*
X297571Y1074320D01*
X295493Y1073460D01*
X293709Y1072091D01*
X292340Y1070307D01*
X291480Y1068229D01*
X291353Y1067270D01*
X298530D01*
Y1074446D01*
D02*
G37*
G36*
X168647Y1044230D02*
X161470D01*
Y1037054D01*
X162429Y1037180D01*
X164507Y1038040D01*
X166291Y1039409D01*
X167660Y1041193D01*
X168520Y1043271D01*
X168647Y1044230D01*
D02*
G37*
G36*
X49800Y1053569D02*
X47712Y1053294D01*
X45766Y1052488D01*
X44094Y1051206D01*
X42812Y1049535D01*
X42006Y1047588D01*
X41731Y1045500D01*
X42006Y1043412D01*
X42812Y1041466D01*
X44094Y1039794D01*
X45766Y1038512D01*
X47712Y1037706D01*
X49800Y1037431D01*
X51888Y1037706D01*
X53835Y1038512D01*
X55506Y1039794D01*
X56788Y1041466D01*
X57594Y1043412D01*
X57869Y1045500D01*
X57594Y1047588D01*
X56788Y1049535D01*
X55506Y1051206D01*
X53835Y1052488D01*
X51888Y1053294D01*
X49800Y1053569D01*
D02*
G37*
G36*
X-81354Y1044230D02*
X-88530D01*
Y1037054D01*
X-87571Y1037180D01*
X-85493Y1038040D01*
X-83709Y1039409D01*
X-82340Y1041193D01*
X-81480Y1043271D01*
X-81354Y1044230D01*
D02*
G37*
G36*
X-91070D02*
X-98246D01*
X-98120Y1043271D01*
X-97260Y1041193D01*
X-95891Y1039409D01*
X-94107Y1038040D01*
X-92029Y1037180D01*
X-91070Y1037054D01*
Y1044230D01*
D02*
G37*
G36*
X158930D02*
X151754D01*
X151880Y1043271D01*
X152740Y1041193D01*
X154109Y1039409D01*
X155893Y1038040D01*
X157971Y1037180D01*
X158930Y1037054D01*
Y1044230D01*
D02*
G37*
G36*
X299800Y1053569D02*
X297712Y1053294D01*
X295765Y1052488D01*
X294094Y1051206D01*
X292812Y1049535D01*
X292006Y1047588D01*
X291731Y1045500D01*
X292006Y1043412D01*
X292812Y1041466D01*
X294094Y1039794D01*
X295765Y1038512D01*
X297712Y1037706D01*
X299800Y1037431D01*
X301888Y1037706D01*
X303834Y1038512D01*
X305506Y1039794D01*
X306788Y1041466D01*
X307594Y1043412D01*
X307869Y1045500D01*
X307594Y1047588D01*
X306788Y1049535D01*
X305506Y1051206D01*
X303834Y1052488D01*
X301888Y1053294D01*
X299800Y1053569D01*
D02*
G37*
G36*
X161470Y1053947D02*
Y1046770D01*
X168647D01*
X168520Y1047729D01*
X167660Y1049807D01*
X166291Y1051591D01*
X164507Y1052960D01*
X162429Y1053820D01*
X161470Y1053947D01*
D02*
G37*
G36*
X31800Y1071569D02*
X29712Y1071294D01*
X27766Y1070488D01*
X26094Y1069206D01*
X24812Y1067534D01*
X24006Y1065588D01*
X23731Y1063500D01*
X24006Y1061412D01*
X24812Y1059465D01*
X26094Y1057794D01*
X27766Y1056512D01*
X29712Y1055706D01*
X31800Y1055431D01*
X33888Y1055706D01*
X35835Y1056512D01*
X37506Y1057794D01*
X38788Y1059465D01*
X39594Y1061412D01*
X39869Y1063500D01*
X39594Y1065588D01*
X38788Y1067534D01*
X37506Y1069206D01*
X35835Y1070488D01*
X33888Y1071294D01*
X31800Y1071569D01*
D02*
G37*
G36*
X-88530Y1053947D02*
Y1046770D01*
X-81354D01*
X-81480Y1047729D01*
X-82340Y1049807D01*
X-83709Y1051591D01*
X-85493Y1052960D01*
X-87571Y1053820D01*
X-88530Y1053947D01*
D02*
G37*
G36*
X-91070D02*
X-92029Y1053820D01*
X-94107Y1052960D01*
X-95891Y1051591D01*
X-97260Y1049807D01*
X-98120Y1047729D01*
X-98246Y1046770D01*
X-91070D01*
Y1053947D01*
D02*
G37*
G36*
X158930D02*
X157971Y1053820D01*
X155893Y1052960D01*
X154109Y1051591D01*
X152740Y1049807D01*
X151880Y1047729D01*
X151754Y1046770D01*
X158930D01*
Y1053947D01*
D02*
G37*
G36*
X186646Y1021230D02*
X179470D01*
Y1014053D01*
X180429Y1014180D01*
X182507Y1015040D01*
X184291Y1016409D01*
X185660Y1018193D01*
X186520Y1020271D01*
X186646Y1021230D01*
D02*
G37*
G36*
X281800Y969069D02*
X279712Y968794D01*
X277766Y967988D01*
X276094Y966706D01*
X274812Y965034D01*
X274006Y963088D01*
X273731Y961000D01*
X274006Y958912D01*
X274812Y956965D01*
X276094Y955294D01*
X277766Y954012D01*
X279712Y953206D01*
X281800Y952931D01*
X283888Y953206D01*
X285835Y954012D01*
X287506Y955294D01*
X288788Y956965D01*
X289594Y958912D01*
X289869Y961000D01*
X289594Y963088D01*
X288788Y965034D01*
X287506Y966706D01*
X285835Y967988D01*
X283888Y968794D01*
X281800Y969069D01*
D02*
G37*
G36*
X178200Y969069D02*
X176112Y968794D01*
X174165Y967988D01*
X172494Y966706D01*
X171212Y965035D01*
X170406Y963089D01*
X170131Y961000D01*
X170406Y958912D01*
X171212Y956966D01*
X172494Y955294D01*
X174165Y954012D01*
X176112Y953206D01*
X178200Y952931D01*
X180288Y953206D01*
X182234Y954012D01*
X183906Y955294D01*
X185188Y956966D01*
X185994Y958912D01*
X186269Y961000D01*
X185994Y963089D01*
X185188Y965035D01*
X183906Y966706D01*
X182234Y967988D01*
X180288Y968794D01*
X178200Y969069D01*
D02*
G37*
G36*
X31800Y969069D02*
X29712Y968794D01*
X27766Y967988D01*
X26094Y966706D01*
X24812Y965034D01*
X24006Y963088D01*
X23731Y961000D01*
X24006Y958912D01*
X24812Y956965D01*
X26094Y955294D01*
X27766Y954012D01*
X29712Y953206D01*
X31800Y952931D01*
X33888Y953206D01*
X35835Y954012D01*
X37506Y955294D01*
X38788Y956965D01*
X39594Y958912D01*
X39869Y961000D01*
X39594Y963088D01*
X38788Y965034D01*
X37506Y966706D01*
X35835Y967988D01*
X33888Y968794D01*
X31800Y969069D01*
D02*
G37*
G36*
X49800Y951069D02*
X47712Y950794D01*
X45766Y949988D01*
X44094Y948706D01*
X42812Y947035D01*
X42006Y945088D01*
X41731Y943000D01*
X42006Y940912D01*
X42812Y938966D01*
X44094Y937294D01*
X45766Y936012D01*
X47712Y935206D01*
X49800Y934931D01*
X51888Y935206D01*
X53835Y936012D01*
X55506Y937294D01*
X56788Y938966D01*
X57594Y940912D01*
X57869Y943000D01*
X57594Y945088D01*
X56788Y947035D01*
X55506Y948706D01*
X53835Y949988D01*
X51888Y950794D01*
X49800Y951069D01*
D02*
G37*
G36*
X160200Y951069D02*
X158112Y950794D01*
X156166Y949988D01*
X154494Y948706D01*
X153212Y947035D01*
X152406Y945089D01*
X152131Y943000D01*
X152406Y940912D01*
X153212Y938966D01*
X154494Y937294D01*
X156166Y936012D01*
X158112Y935206D01*
X160200Y934931D01*
X162288Y935206D01*
X164235Y936012D01*
X165906Y937294D01*
X167188Y938966D01*
X167994Y940912D01*
X168269Y943000D01*
X167994Y945089D01*
X167188Y947035D01*
X165906Y948706D01*
X164235Y949988D01*
X162288Y950794D01*
X160200Y951069D01*
D02*
G37*
G36*
X49800Y971569D02*
X47712Y971294D01*
X45766Y970488D01*
X44094Y969206D01*
X42812Y967534D01*
X42006Y965588D01*
X41731Y963500D01*
X42006Y961412D01*
X42812Y959465D01*
X44094Y957794D01*
X45766Y956512D01*
X47712Y955706D01*
X49800Y955431D01*
X51888Y955706D01*
X53835Y956512D01*
X55506Y957794D01*
X56788Y959465D01*
X57594Y961412D01*
X57869Y963500D01*
X57594Y965588D01*
X56788Y967534D01*
X55506Y969206D01*
X53835Y970488D01*
X51888Y971294D01*
X49800Y971569D01*
D02*
G37*
G36*
X-63354Y980230D02*
X-70530D01*
Y973054D01*
X-69571Y973180D01*
X-67493Y974040D01*
X-65709Y975409D01*
X-64340Y977193D01*
X-63480Y979271D01*
X-63354Y980230D01*
D02*
G37*
G36*
X176930D02*
X169753D01*
X169880Y979271D01*
X170740Y977193D01*
X172109Y975409D01*
X173893Y974040D01*
X175971Y973180D01*
X176930Y973054D01*
Y980230D01*
D02*
G37*
G36*
X-73070D02*
X-80246D01*
X-80120Y979271D01*
X-79260Y977193D01*
X-77891Y975409D01*
X-76107Y974040D01*
X-74029Y973180D01*
X-73070Y973054D01*
Y980230D01*
D02*
G37*
G36*
X299800Y971569D02*
X297712Y971294D01*
X295765Y970488D01*
X294094Y969206D01*
X292812Y967534D01*
X292006Y965588D01*
X291731Y963500D01*
X292006Y961412D01*
X292812Y959465D01*
X294094Y957794D01*
X295765Y956512D01*
X297712Y955706D01*
X299800Y955431D01*
X301888Y955706D01*
X303834Y956512D01*
X305506Y957794D01*
X306788Y959465D01*
X307594Y961412D01*
X307869Y963500D01*
X307594Y965588D01*
X306788Y967534D01*
X305506Y969206D01*
X303834Y970488D01*
X301888Y971294D01*
X299800Y971569D01*
D02*
G37*
G36*
X186646Y980230D02*
X179470D01*
Y973054D01*
X180429Y973180D01*
X182507Y974040D01*
X184291Y975409D01*
X185660Y977193D01*
X186520Y979271D01*
X186646Y980230D01*
D02*
G37*
G36*
X105000Y955102D02*
X100883Y954696D01*
X96925Y953495D01*
X93277Y951545D01*
X90079Y948921D01*
X87455Y945723D01*
X85505Y942075D01*
X84304Y938117D01*
X83898Y934000D01*
X84304Y929883D01*
X85505Y925925D01*
X87455Y922277D01*
X90079Y919079D01*
X93277Y916455D01*
X96925Y914505D01*
X100883Y913304D01*
X105000Y912898D01*
X109117Y913304D01*
X113075Y914505D01*
X116723Y916455D01*
X119921Y919079D01*
X122545Y922277D01*
X124495Y925925D01*
X125696Y929883D01*
X126102Y934000D01*
X125696Y938117D01*
X124495Y942075D01*
X122545Y945723D01*
X119921Y948921D01*
X116723Y951545D01*
X113075Y953495D01*
X109117Y954696D01*
X105000Y955102D01*
D02*
G37*
G36*
X49800Y930569D02*
X47712Y930294D01*
X45766Y929488D01*
X44094Y928206D01*
X42812Y926535D01*
X42006Y924588D01*
X41731Y922500D01*
X42006Y920412D01*
X42812Y918465D01*
X44094Y916794D01*
X45766Y915512D01*
X47712Y914706D01*
X49800Y914431D01*
X51888Y914706D01*
X53835Y915512D01*
X55506Y916794D01*
X56788Y918465D01*
X57594Y920412D01*
X57869Y922500D01*
X57594Y924588D01*
X56788Y926535D01*
X55506Y928206D01*
X53835Y929488D01*
X51888Y930294D01*
X49800Y930569D01*
D02*
G37*
G36*
X178200Y928069D02*
X176112Y927794D01*
X174165Y926988D01*
X172494Y925706D01*
X171212Y924035D01*
X170406Y922088D01*
X170131Y920000D01*
X170406Y917912D01*
X171212Y915966D01*
X172494Y914295D01*
X174165Y913012D01*
X176112Y912206D01*
X178200Y911931D01*
X180288Y912206D01*
X182234Y913012D01*
X183906Y914295D01*
X185188Y915966D01*
X185994Y917912D01*
X186269Y920000D01*
X185994Y922088D01*
X185188Y924035D01*
X183906Y925706D01*
X182234Y926988D01*
X180288Y927794D01*
X178200Y928069D01*
D02*
G37*
G36*
X281800Y928069D02*
X279712Y927794D01*
X277766Y926988D01*
X276094Y925706D01*
X274812Y924034D01*
X274006Y922088D01*
X273731Y920000D01*
X274006Y917912D01*
X274812Y915965D01*
X276094Y914294D01*
X277766Y913012D01*
X279712Y912206D01*
X281800Y911931D01*
X283888Y912206D01*
X285835Y913012D01*
X287506Y914294D01*
X288788Y915965D01*
X289594Y917912D01*
X289869Y920000D01*
X289594Y922088D01*
X288788Y924034D01*
X287506Y925706D01*
X285835Y926988D01*
X283888Y927794D01*
X281800Y928069D01*
D02*
G37*
G36*
X-71800Y928069D02*
X-73888Y927794D01*
X-75834Y926988D01*
X-77506Y925706D01*
X-78788Y924035D01*
X-79594Y922088D01*
X-79869Y920000D01*
X-79594Y917912D01*
X-78788Y915966D01*
X-77506Y914295D01*
X-75834Y913012D01*
X-73888Y912206D01*
X-71800Y911931D01*
X-69712Y912206D01*
X-67765Y913012D01*
X-66094Y914295D01*
X-64812Y915966D01*
X-64006Y917912D01*
X-63731Y920000D01*
X-64006Y922088D01*
X-64812Y924035D01*
X-66094Y925706D01*
X-67765Y926988D01*
X-69712Y927794D01*
X-71800Y928069D01*
D02*
G37*
G36*
X160200Y930569D02*
X158112Y930294D01*
X156166Y929488D01*
X154494Y928206D01*
X153212Y926535D01*
X152406Y924588D01*
X152131Y922500D01*
X152406Y920412D01*
X153212Y918466D01*
X154494Y916795D01*
X156166Y915512D01*
X158112Y914706D01*
X160200Y914431D01*
X162288Y914706D01*
X164235Y915512D01*
X165906Y916795D01*
X167188Y918466D01*
X167994Y920412D01*
X168269Y922500D01*
X167994Y924588D01*
X167188Y926535D01*
X165906Y928206D01*
X164235Y929488D01*
X162288Y930294D01*
X160200Y930569D01*
D02*
G37*
G36*
X31800Y948569D02*
X29712Y948294D01*
X27766Y947488D01*
X26094Y946206D01*
X24812Y944535D01*
X24006Y942588D01*
X23731Y940500D01*
X24006Y938411D01*
X24812Y936465D01*
X26094Y934794D01*
X27766Y933512D01*
X29712Y932706D01*
X31800Y932431D01*
X33888Y932706D01*
X35835Y933512D01*
X37506Y934794D01*
X38788Y936465D01*
X39594Y938411D01*
X39869Y940500D01*
X39594Y942588D01*
X38788Y944535D01*
X37506Y946206D01*
X35835Y947488D01*
X33888Y948294D01*
X31800Y948569D01*
D02*
G37*
G36*
X178200Y948569D02*
X176112Y948294D01*
X174165Y947488D01*
X172494Y946206D01*
X171212Y944535D01*
X170406Y942589D01*
X170131Y940500D01*
X170406Y938412D01*
X171212Y936466D01*
X172494Y934794D01*
X174165Y933512D01*
X176112Y932706D01*
X178200Y932431D01*
X180288Y932706D01*
X182234Y933512D01*
X183906Y934794D01*
X185188Y936466D01*
X185994Y938412D01*
X186269Y940500D01*
X185994Y942589D01*
X185188Y944535D01*
X183906Y946206D01*
X182234Y947488D01*
X180288Y948294D01*
X178200Y948569D01*
D02*
G37*
G36*
X265070Y925946D02*
Y918770D01*
X272246D01*
X272120Y919729D01*
X271260Y921807D01*
X269891Y923591D01*
X268107Y924960D01*
X266029Y925820D01*
X265070Y925946D01*
D02*
G37*
G36*
X262530D02*
X261571Y925820D01*
X259493Y924960D01*
X257709Y923591D01*
X256340Y921807D01*
X255480Y919729D01*
X255354Y918770D01*
X262530D01*
Y925946D01*
D02*
G37*
G36*
X15070D02*
Y918770D01*
X22246D01*
X22120Y919729D01*
X21260Y921807D01*
X19891Y923591D01*
X18107Y924960D01*
X16029Y925820D01*
X15070Y925946D01*
D02*
G37*
G36*
X281800Y989569D02*
X279712Y989294D01*
X277766Y988488D01*
X276094Y987206D01*
X274812Y985535D01*
X274006Y983588D01*
X273731Y981500D01*
X274006Y979412D01*
X274812Y977466D01*
X276094Y975794D01*
X277766Y974512D01*
X279712Y973706D01*
X281800Y973431D01*
X283888Y973706D01*
X285835Y974512D01*
X287506Y975794D01*
X288788Y977466D01*
X289594Y979412D01*
X289869Y981500D01*
X289594Y983588D01*
X288788Y985535D01*
X287506Y987206D01*
X285835Y988488D01*
X283888Y989294D01*
X281800Y989569D01*
D02*
G37*
G36*
X31800Y1010069D02*
X29712Y1009794D01*
X27766Y1008988D01*
X26094Y1007706D01*
X24812Y1006034D01*
X24006Y1004088D01*
X23731Y1002000D01*
X24006Y999912D01*
X24812Y997965D01*
X26094Y996294D01*
X27766Y995012D01*
X29712Y994206D01*
X31800Y993931D01*
X33888Y994206D01*
X35835Y995012D01*
X37506Y996294D01*
X38788Y997965D01*
X39594Y999912D01*
X39869Y1002000D01*
X39594Y1004088D01*
X38788Y1006034D01*
X37506Y1007706D01*
X35835Y1008988D01*
X33888Y1009794D01*
X31800Y1010069D01*
D02*
G37*
G36*
X281800D02*
X279712Y1009794D01*
X277766Y1008988D01*
X276094Y1007706D01*
X274812Y1006034D01*
X274006Y1004088D01*
X273731Y1002000D01*
X274006Y999912D01*
X274812Y997965D01*
X276094Y996294D01*
X277766Y995012D01*
X279712Y994206D01*
X281800Y993931D01*
X283888Y994206D01*
X285835Y995012D01*
X287506Y996294D01*
X288788Y997965D01*
X289594Y999912D01*
X289869Y1002000D01*
X289594Y1004088D01*
X288788Y1006034D01*
X287506Y1007706D01*
X285835Y1008988D01*
X283888Y1009794D01*
X281800Y1010069D01*
D02*
G37*
G36*
X51070Y992447D02*
Y985270D01*
X58246D01*
X58120Y986229D01*
X57260Y988307D01*
X55891Y990091D01*
X54107Y991460D01*
X52029Y992320D01*
X51070Y992447D01*
D02*
G37*
G36*
X48530D02*
X47571Y992320D01*
X45493Y991460D01*
X43709Y990091D01*
X42340Y988307D01*
X41480Y986229D01*
X41354Y985270D01*
X48530D01*
Y992447D01*
D02*
G37*
G36*
X301070D02*
Y985270D01*
X308246D01*
X308120Y986229D01*
X307260Y988307D01*
X305891Y990091D01*
X304107Y991460D01*
X302029Y992320D01*
X301070Y992447D01*
D02*
G37*
G36*
X-71800Y1010069D02*
X-73888Y1009794D01*
X-75834Y1008988D01*
X-77506Y1007706D01*
X-78788Y1006035D01*
X-79594Y1004089D01*
X-79869Y1002000D01*
X-79594Y999912D01*
X-78788Y997965D01*
X-77506Y996294D01*
X-75834Y995012D01*
X-73888Y994206D01*
X-71800Y993931D01*
X-69712Y994206D01*
X-67765Y995012D01*
X-66094Y996294D01*
X-64812Y997965D01*
X-64006Y999912D01*
X-63731Y1002000D01*
X-64006Y1004089D01*
X-64812Y1006035D01*
X-66094Y1007706D01*
X-67765Y1008988D01*
X-69712Y1009794D01*
X-71800Y1010069D01*
D02*
G37*
G36*
X-89800Y1012569D02*
X-91888Y1012294D01*
X-93834Y1011488D01*
X-95506Y1010206D01*
X-96788Y1008535D01*
X-97594Y1006589D01*
X-97869Y1004500D01*
X-97594Y1002412D01*
X-96788Y1000465D01*
X-95506Y998794D01*
X-93834Y997512D01*
X-91888Y996706D01*
X-89800Y996431D01*
X-87712Y996706D01*
X-85765Y997512D01*
X-84094Y998794D01*
X-82812Y1000465D01*
X-82006Y1002412D01*
X-81731Y1004500D01*
X-82006Y1006589D01*
X-82812Y1008535D01*
X-84094Y1010206D01*
X-85765Y1011488D01*
X-87712Y1012294D01*
X-89800Y1012569D01*
D02*
G37*
G36*
X160200D02*
X158112Y1012294D01*
X156166Y1011488D01*
X154494Y1010206D01*
X153212Y1008535D01*
X152406Y1006589D01*
X152131Y1004500D01*
X152406Y1002412D01*
X153212Y1000465D01*
X154494Y998794D01*
X156166Y997512D01*
X158112Y996706D01*
X160200Y996431D01*
X162288Y996706D01*
X164235Y997512D01*
X165906Y998794D01*
X167188Y1000465D01*
X167994Y1002412D01*
X168269Y1004500D01*
X167994Y1006589D01*
X167188Y1008535D01*
X165906Y1010206D01*
X164235Y1011488D01*
X162288Y1012294D01*
X160200Y1012569D01*
D02*
G37*
G36*
X299800Y1012569D02*
X297712Y1012294D01*
X295765Y1011488D01*
X294094Y1010206D01*
X292812Y1008534D01*
X292006Y1006588D01*
X291731Y1004500D01*
X292006Y1002412D01*
X292812Y1000465D01*
X294094Y998794D01*
X295765Y997512D01*
X297712Y996706D01*
X299800Y996431D01*
X301888Y996706D01*
X303834Y997512D01*
X305506Y998794D01*
X306788Y1000465D01*
X307594Y1002412D01*
X307869Y1004500D01*
X307594Y1006588D01*
X306788Y1008534D01*
X305506Y1010206D01*
X303834Y1011488D01*
X301888Y1012294D01*
X299800Y1012569D01*
D02*
G37*
G36*
X178200Y1010069D02*
X176112Y1009794D01*
X174165Y1008988D01*
X172494Y1007706D01*
X171212Y1006035D01*
X170406Y1004089D01*
X170131Y1002000D01*
X170406Y999912D01*
X171212Y997965D01*
X172494Y996294D01*
X174165Y995012D01*
X176112Y994206D01*
X178200Y993931D01*
X180288Y994206D01*
X182234Y995012D01*
X183906Y996294D01*
X185188Y997965D01*
X185994Y999912D01*
X186269Y1002000D01*
X185994Y1004089D01*
X185188Y1006035D01*
X183906Y1007706D01*
X182234Y1008988D01*
X180288Y1009794D01*
X178200Y1010069D01*
D02*
G37*
G36*
X49800Y1012569D02*
X47712Y1012294D01*
X45766Y1011488D01*
X44094Y1010206D01*
X42812Y1008534D01*
X42006Y1006588D01*
X41731Y1004500D01*
X42006Y1002412D01*
X42812Y1000465D01*
X44094Y998794D01*
X45766Y997512D01*
X47712Y996706D01*
X49800Y996431D01*
X51888Y996706D01*
X53835Y997512D01*
X55506Y998794D01*
X56788Y1000465D01*
X57594Y1002412D01*
X57869Y1004500D01*
X57594Y1006588D01*
X56788Y1008534D01*
X55506Y1010206D01*
X53835Y1011488D01*
X51888Y1012294D01*
X49800Y1012569D01*
D02*
G37*
G36*
X308246Y982730D02*
X301070D01*
Y975554D01*
X302029Y975680D01*
X304107Y976540D01*
X305891Y977909D01*
X307260Y979693D01*
X308120Y981771D01*
X308246Y982730D01*
D02*
G37*
G36*
X-89800Y992069D02*
X-91888Y991794D01*
X-93834Y990988D01*
X-95506Y989706D01*
X-96788Y988035D01*
X-97594Y986088D01*
X-97869Y984000D01*
X-97594Y981912D01*
X-96788Y979966D01*
X-95506Y978294D01*
X-93834Y977012D01*
X-91888Y976206D01*
X-89800Y975931D01*
X-87712Y976206D01*
X-85765Y977012D01*
X-84094Y978294D01*
X-82812Y979966D01*
X-82006Y981912D01*
X-81731Y984000D01*
X-82006Y986088D01*
X-82812Y988035D01*
X-84094Y989706D01*
X-85765Y990988D01*
X-87712Y991794D01*
X-89800Y992069D01*
D02*
G37*
G36*
X58246Y982730D02*
X51070D01*
Y975554D01*
X52029Y975680D01*
X54107Y976540D01*
X55891Y977909D01*
X57260Y979693D01*
X58120Y981771D01*
X58246Y982730D01*
D02*
G37*
G36*
X48530D02*
X41354D01*
X41480Y981771D01*
X42340Y979693D01*
X43709Y977909D01*
X45493Y976540D01*
X47571Y975680D01*
X48530Y975554D01*
Y982730D01*
D02*
G37*
G36*
X298530D02*
X291353D01*
X291480Y981771D01*
X292340Y979693D01*
X293709Y977909D01*
X295493Y976540D01*
X297571Y975680D01*
X298530Y975554D01*
Y982730D01*
D02*
G37*
G36*
X160200Y992069D02*
X158112Y991794D01*
X156166Y990988D01*
X154494Y989706D01*
X153212Y988035D01*
X152406Y986088D01*
X152131Y984000D01*
X152406Y981912D01*
X153212Y979966D01*
X154494Y978294D01*
X156166Y977012D01*
X158112Y976206D01*
X160200Y975931D01*
X162288Y976206D01*
X164235Y977012D01*
X165906Y978294D01*
X167188Y979966D01*
X167994Y981912D01*
X168269Y984000D01*
X167994Y986088D01*
X167188Y988035D01*
X165906Y989706D01*
X164235Y990988D01*
X162288Y991794D01*
X160200Y992069D01*
D02*
G37*
G36*
X-70530Y989947D02*
Y982770D01*
X-63354D01*
X-63480Y983729D01*
X-64340Y985807D01*
X-65709Y987591D01*
X-67493Y988960D01*
X-69571Y989820D01*
X-70530Y989947D01*
D02*
G37*
G36*
X298530Y992447D02*
X297571Y992320D01*
X295493Y991460D01*
X293709Y990091D01*
X292340Y988307D01*
X291480Y986229D01*
X291353Y985270D01*
X298530D01*
Y992447D01*
D02*
G37*
G36*
X179470Y989947D02*
Y982770D01*
X186646D01*
X186520Y983729D01*
X185660Y985807D01*
X184291Y987591D01*
X182507Y988960D01*
X180429Y989820D01*
X179470Y989947D01*
D02*
G37*
G36*
X-73070D02*
X-74029Y989820D01*
X-76107Y988960D01*
X-77891Y987591D01*
X-79260Y985807D01*
X-80120Y983729D01*
X-80246Y982770D01*
X-73070D01*
Y989947D01*
D02*
G37*
G36*
X176930Y989947D02*
X175971Y989820D01*
X173893Y988960D01*
X172109Y987591D01*
X170740Y985807D01*
X169880Y983729D01*
X169753Y982770D01*
X176930D01*
Y989947D01*
D02*
G37*
G36*
X90830Y114268D02*
X89218Y114056D01*
X86532Y112943D01*
X84226Y111174D01*
X82457Y108868D01*
X81344Y106182D01*
X81132Y104570D01*
X90830D01*
Y114268D01*
D02*
G37*
G36*
Y102030D02*
X81132D01*
X81344Y100418D01*
X82457Y97732D01*
X84226Y95426D01*
X86532Y93657D01*
X89218Y92544D01*
X90830Y92332D01*
Y102030D01*
D02*
G37*
G36*
X93370Y88868D02*
Y79170D01*
X103068D01*
X102856Y80782D01*
X101743Y83468D01*
X99974Y85774D01*
X97668Y87543D01*
X94982Y88656D01*
X93370Y88868D01*
D02*
G37*
G36*
X90830D02*
X89218Y88656D01*
X86532Y87543D01*
X84226Y85774D01*
X82457Y83468D01*
X81344Y80782D01*
X81132Y79170D01*
X90830D01*
Y88868D01*
D02*
G37*
%LPD*%
D10*
X39500Y52500D02*
X92100D01*
X32000Y60000D02*
X39500Y52500D01*
X-97000Y60000D02*
X32000D01*
X-6000Y161000D02*
X33000Y200000D01*
X-28000Y161000D02*
X-6000D01*
X-71000Y204000D02*
X-28000Y161000D01*
X-71000Y204000D02*
Y256000D01*
X172900Y158700D02*
X308700D01*
X117500Y103300D02*
X172900Y158700D01*
X1000Y263657D02*
Y950700D01*
Y263657D02*
X2000Y262657D01*
Y237143D02*
Y262657D01*
X1000Y236143D02*
X2000Y237143D01*
X1000Y191000D02*
Y236143D01*
X-16000Y174000D02*
X1000Y191000D01*
X-103000Y288000D02*
Y931000D01*
Y288000D02*
X-71000Y256000D01*
X-78300Y934000D02*
X-71800Y940500D01*
X-100000Y934000D02*
X-78300D01*
X-103000Y931000D02*
X-100000Y934000D01*
X-44000Y215000D02*
Y907700D01*
X-40000Y274200D02*
Y923000D01*
X-53800Y917500D02*
X-44000Y907700D01*
X-68000Y951000D02*
X-40000Y923000D01*
X33000Y200000D02*
X106000D01*
X65000Y172000D02*
X99600D01*
X-92200Y97800D02*
X-79000Y111000D01*
X4000D01*
X65000Y172000D01*
X99600D02*
X117500Y154100D01*
X-89800Y963500D02*
X-77300Y951000D01*
X-71800Y1063500D02*
X-16000Y1007700D01*
X1000Y950700D02*
X31800Y981500D01*
X70000Y132000D02*
X92100Y154100D01*
X70000Y73000D02*
Y132000D01*
Y73000D02*
X79000Y64000D01*
X138000D01*
X196800Y122800D01*
X228800D01*
X-105000Y110400D02*
X-92200Y123200D01*
X-105000Y68000D02*
Y110400D01*
Y68000D02*
X-97000Y60000D01*
X106000Y91000D02*
Y133463D01*
Y200000D02*
X132000Y174000D01*
Y148000D02*
Y174000D01*
X124200Y140200D02*
X132000Y148000D01*
X112737Y140200D02*
X124200D01*
X106000Y133463D02*
X112737Y140200D01*
X106000Y91000D02*
X117500Y79500D01*
Y77900D02*
Y79500D01*
X178200Y1063500D02*
X245000Y996700D01*
X281800Y940500D02*
X289800Y932500D01*
X196200Y917500D02*
X241000Y872700D01*
X146000Y949300D02*
X160200Y963500D01*
X289800Y932500D02*
X304000D01*
X322500Y914000D01*
Y172500D02*
Y914000D01*
X308700Y158700D02*
X322500Y172500D01*
X309000Y188000D02*
X315500Y194500D01*
X211000Y188000D02*
X309000D01*
X-16000Y275000D02*
X-2000Y261000D01*
Y238800D02*
Y261000D01*
X-16000Y224800D02*
X-2000Y238800D01*
X-16000Y275000D02*
Y1007700D01*
X-77300Y951000D02*
X-68000D01*
X-40000Y274200D02*
X-16000Y250200D01*
X-44000Y215000D02*
X-28400Y199400D01*
X-16000D01*
X285000Y199000D02*
X305000D01*
X241000Y243000D02*
X285000Y199000D01*
X241000Y243000D02*
Y872700D01*
X146000Y253000D02*
X211000Y188000D01*
X146000Y253000D02*
Y949300D01*
X245000Y284400D02*
X305000Y224400D01*
Y249800D02*
X315500Y239300D01*
Y194500D02*
Y239300D01*
X245000Y284400D02*
Y996700D01*
D11*
X299800Y1066000D02*
D03*
X281800Y1063500D02*
D03*
X299800Y1045500D02*
D03*
X281800Y1043000D02*
D03*
Y1022500D02*
D03*
X299800Y1025000D02*
D03*
X281800Y1002000D02*
D03*
X299800Y1004500D02*
D03*
X281800Y981500D02*
D03*
X299800Y984000D02*
D03*
X281800Y961000D02*
D03*
X299800Y963500D02*
D03*
Y943000D02*
D03*
X281800Y940500D02*
D03*
X299800Y922500D02*
D03*
X281800Y920000D02*
D03*
X299800Y902000D02*
D03*
X281800Y899500D02*
D03*
X299800Y881500D02*
D03*
X281800Y879000D02*
D03*
Y858500D02*
D03*
X299800Y861000D02*
D03*
X263800Y917500D02*
D03*
Y856000D02*
D03*
Y876500D02*
D03*
Y897000D02*
D03*
X178200Y1063500D02*
D03*
X160200Y1066000D02*
D03*
Y1045500D02*
D03*
X178200Y1043000D02*
D03*
Y1022500D02*
D03*
X160200Y1025000D02*
D03*
X178200Y1002000D02*
D03*
X160200Y1004500D02*
D03*
X178200Y981500D02*
D03*
X160200Y984000D02*
D03*
X178200Y961000D02*
D03*
X160200Y963500D02*
D03*
X178200Y940500D02*
D03*
X160200Y943000D02*
D03*
Y861000D02*
D03*
X178200Y858500D02*
D03*
X160200Y881500D02*
D03*
X178200Y879000D02*
D03*
X160200Y902000D02*
D03*
X178200Y899500D02*
D03*
X160200Y922500D02*
D03*
X178200Y920000D02*
D03*
X196200Y917500D02*
D03*
Y897000D02*
D03*
Y876500D02*
D03*
Y856000D02*
D03*
X-89800Y861000D02*
D03*
Y881500D02*
D03*
Y902000D02*
D03*
Y943000D02*
D03*
X-53800Y856000D02*
D03*
X-71800Y858500D02*
D03*
Y899500D02*
D03*
X-89800Y922500D02*
D03*
X-71800Y879000D02*
D03*
Y940500D02*
D03*
Y920000D02*
D03*
X-89800Y1004500D02*
D03*
Y1025000D02*
D03*
Y963500D02*
D03*
Y984000D02*
D03*
Y1045500D02*
D03*
X-71800Y1002000D02*
D03*
Y1022500D02*
D03*
Y961000D02*
D03*
Y981500D02*
D03*
X-89800Y1066000D02*
D03*
X-71800Y1043000D02*
D03*
Y1063500D02*
D03*
X-53800Y876500D02*
D03*
X13800Y856000D02*
D03*
Y876500D02*
D03*
X-53800Y897000D02*
D03*
Y917500D02*
D03*
X13800Y897000D02*
D03*
Y917500D02*
D03*
X31800Y899500D02*
D03*
Y858500D02*
D03*
X49800Y861000D02*
D03*
X31800Y879000D02*
D03*
X49800Y881500D02*
D03*
Y902000D02*
D03*
X31800Y961000D02*
D03*
Y981500D02*
D03*
Y920000D02*
D03*
Y940500D02*
D03*
Y1063500D02*
D03*
Y1002000D02*
D03*
Y1043000D02*
D03*
Y1022500D02*
D03*
X49800Y963500D02*
D03*
Y984000D02*
D03*
Y922500D02*
D03*
Y943000D02*
D03*
Y1004500D02*
D03*
Y1025000D02*
D03*
Y1045500D02*
D03*
Y1066000D02*
D03*
D12*
X92100Y154100D02*
D03*
D13*
X117500D02*
D03*
X92100Y128700D02*
D03*
X117500D02*
D03*
X92100Y103300D02*
D03*
X117500D02*
D03*
X92100Y77900D02*
D03*
X117500D02*
D03*
X92100Y52500D02*
D03*
X117500D02*
D03*
D14*
X305000Y21200D02*
D03*
Y46600D02*
D03*
X228800D02*
D03*
Y21200D02*
D03*
Y72000D02*
D03*
Y97400D02*
D03*
Y122800D02*
D03*
Y148200D02*
D03*
Y173600D02*
D03*
Y199000D02*
D03*
Y224400D02*
D03*
X305000Y249800D02*
D03*
Y224400D02*
D03*
Y199000D02*
D03*
Y173600D02*
D03*
Y148200D02*
D03*
Y122800D02*
D03*
Y97400D02*
D03*
Y72000D02*
D03*
X-16000Y21600D02*
D03*
Y47000D02*
D03*
X-92200D02*
D03*
Y21600D02*
D03*
Y72400D02*
D03*
Y97800D02*
D03*
Y123200D02*
D03*
Y148600D02*
D03*
Y174000D02*
D03*
Y199400D02*
D03*
Y224800D02*
D03*
X-16000Y250200D02*
D03*
Y224800D02*
D03*
Y199400D02*
D03*
Y174000D02*
D03*
Y148600D02*
D03*
Y123200D02*
D03*
Y97800D02*
D03*
Y72400D02*
D03*
D15*
X228800Y249800D02*
D03*
X-92200Y250200D02*
D03*
D16*
X105000Y934000D02*
D03*
Y634000D02*
D03*
M02*
