G04 Layer_Color=65535*
%FSLAX44Y44*%
%MOMM*%
G71*
G01*
G75*
%ADD10C,0.2000*%
%ADD17C,0.2540*%
G36*
X196091Y155251D02*
X196220D01*
X196369Y155232D01*
X196721Y155158D01*
X197109Y155065D01*
X197517Y154917D01*
X197924Y154695D01*
X198128Y154565D01*
X198313Y154417D01*
X198331Y154399D01*
X198350Y154380D01*
X198405Y154325D01*
X198461Y154269D01*
X198554Y154177D01*
X198628Y154066D01*
X198831Y153806D01*
X199035Y153473D01*
X199220Y153066D01*
X199387Y152603D01*
X199498Y152084D01*
X197924Y151955D01*
Y151973D01*
X197906Y151992D01*
X197887Y152103D01*
X197831Y152269D01*
X197757Y152473D01*
X197683Y152695D01*
X197572Y152917D01*
X197443Y153121D01*
X197313Y153288D01*
X197276Y153325D01*
X197202Y153399D01*
X197072Y153510D01*
X196887Y153640D01*
X196646Y153751D01*
X196387Y153862D01*
X196072Y153936D01*
X195739Y153973D01*
X195609D01*
X195461Y153954D01*
X195295Y153917D01*
X195072Y153862D01*
X194850Y153788D01*
X194628Y153695D01*
X194406Y153547D01*
X194369Y153528D01*
X194276Y153454D01*
X194147Y153325D01*
X193980Y153140D01*
X193795Y152917D01*
X193591Y152658D01*
X193406Y152325D01*
X193221Y151955D01*
Y151936D01*
X193202Y151899D01*
X193184Y151844D01*
X193147Y151769D01*
X193128Y151658D01*
X193091Y151529D01*
X193054Y151381D01*
X193017Y151195D01*
X192962Y150992D01*
X192925Y150770D01*
X192887Y150529D01*
X192869Y150269D01*
X192832Y149973D01*
X192813Y149677D01*
X192795Y149344D01*
Y149010D01*
X192813Y149029D01*
X192887Y149140D01*
X193017Y149288D01*
X193184Y149473D01*
X193369Y149696D01*
X193610Y149899D01*
X193869Y150103D01*
X194165Y150288D01*
X194184D01*
X194202Y150307D01*
X194313Y150362D01*
X194480Y150418D01*
X194702Y150510D01*
X194961Y150584D01*
X195258Y150640D01*
X195572Y150695D01*
X195906Y150714D01*
X196054D01*
X196165Y150695D01*
X196313Y150677D01*
X196461Y150658D01*
X196646Y150621D01*
X196832Y150566D01*
X197257Y150436D01*
X197480Y150344D01*
X197702Y150214D01*
X197924Y150084D01*
X198165Y149936D01*
X198387Y149751D01*
X198591Y149547D01*
X198609Y149529D01*
X198646Y149492D01*
X198702Y149436D01*
X198757Y149344D01*
X198850Y149214D01*
X198943Y149085D01*
X199035Y148918D01*
X199146Y148733D01*
X199257Y148529D01*
X199350Y148307D01*
X199442Y148048D01*
X199535Y147788D01*
X199591Y147511D01*
X199646Y147196D01*
X199683Y146881D01*
X199702Y146548D01*
Y146529D01*
Y146492D01*
Y146437D01*
Y146344D01*
X199683Y146233D01*
Y146122D01*
X199628Y145826D01*
X199572Y145474D01*
X199480Y145103D01*
X199350Y144696D01*
X199165Y144307D01*
Y144289D01*
X199146Y144270D01*
X199109Y144215D01*
X199072Y144141D01*
X198961Y143955D01*
X198794Y143715D01*
X198591Y143455D01*
X198350Y143196D01*
X198054Y142937D01*
X197739Y142715D01*
X197720D01*
X197702Y142696D01*
X197646Y142659D01*
X197572Y142641D01*
X197387Y142548D01*
X197146Y142456D01*
X196832Y142344D01*
X196480Y142270D01*
X196091Y142196D01*
X195665Y142178D01*
X195572D01*
X195480Y142196D01*
X195332D01*
X195165Y142215D01*
X194980Y142252D01*
X194758Y142307D01*
X194536Y142363D01*
X194276Y142437D01*
X194017Y142530D01*
X193758Y142641D01*
X193480Y142789D01*
X193221Y142956D01*
X192962Y143141D01*
X192702Y143363D01*
X192462Y143622D01*
X192443Y143641D01*
X192406Y143696D01*
X192351Y143770D01*
X192276Y143900D01*
X192165Y144066D01*
X192073Y144252D01*
X191962Y144492D01*
X191851Y144752D01*
X191721Y145066D01*
X191610Y145418D01*
X191517Y145807D01*
X191425Y146233D01*
X191332Y146714D01*
X191277Y147233D01*
X191240Y147788D01*
X191221Y148381D01*
Y148399D01*
Y148418D01*
Y148473D01*
Y148547D01*
X191240Y148733D01*
Y148992D01*
X191258Y149288D01*
X191295Y149640D01*
X191332Y150029D01*
X191388Y150455D01*
X191462Y150881D01*
X191554Y151343D01*
X191665Y151788D01*
X191795Y152232D01*
X191962Y152658D01*
X192147Y153066D01*
X192351Y153454D01*
X192591Y153788D01*
X192610Y153806D01*
X192647Y153843D01*
X192721Y153917D01*
X192813Y154028D01*
X192925Y154139D01*
X193073Y154251D01*
X193258Y154399D01*
X193443Y154528D01*
X193665Y154658D01*
X193906Y154806D01*
X194184Y154917D01*
X194461Y155047D01*
X194776Y155139D01*
X195110Y155213D01*
X195461Y155251D01*
X195832Y155269D01*
X195980D01*
X196091Y155251D01*
D02*
G37*
G36*
X185536Y129795D02*
X185851Y129776D01*
X186185Y129758D01*
X186499Y129721D01*
X186777Y129684D01*
X186814D01*
X186944Y129647D01*
X187110Y129610D01*
X187333Y129554D01*
X187573Y129462D01*
X187833Y129351D01*
X188110Y129221D01*
X188351Y129073D01*
X188388Y129054D01*
X188462Y128999D01*
X188573Y128888D01*
X188721Y128758D01*
X188888Y128591D01*
X189055Y128369D01*
X189240Y128128D01*
X189388Y127851D01*
X189406Y127814D01*
X189443Y127721D01*
X189517Y127555D01*
X189592Y127332D01*
X189647Y127073D01*
X189721Y126777D01*
X189758Y126444D01*
X189777Y126092D01*
Y126073D01*
Y126018D01*
Y125943D01*
X189758Y125814D01*
X189740Y125684D01*
X189721Y125518D01*
X189684Y125332D01*
X189647Y125129D01*
X189517Y124703D01*
X189443Y124481D01*
X189332Y124240D01*
X189203Y123999D01*
X189073Y123777D01*
X188906Y123555D01*
X188721Y123333D01*
X188703Y123314D01*
X188666Y123277D01*
X188610Y123222D01*
X188518Y123166D01*
X188407Y123073D01*
X188258Y122981D01*
X188073Y122870D01*
X187870Y122777D01*
X187629Y122666D01*
X187351Y122555D01*
X187055Y122462D01*
X186703Y122388D01*
X186333Y122314D01*
X185925Y122259D01*
X185462Y122222D01*
X184981Y122203D01*
X181703D01*
Y117000D01*
X180000D01*
Y129813D01*
X185259D01*
X185536Y129795D01*
D02*
G37*
G36*
X27220Y117000D02*
X25647D01*
Y127017D01*
X25628Y126999D01*
X25535Y126925D01*
X25424Y126814D01*
X25239Y126684D01*
X25036Y126517D01*
X24776Y126332D01*
X24480Y126129D01*
X24147Y125925D01*
X24128D01*
X24110Y125906D01*
X23999Y125832D01*
X23813Y125740D01*
X23591Y125629D01*
X23332Y125499D01*
X23054Y125370D01*
X22777Y125240D01*
X22499Y125129D01*
Y126647D01*
X22517D01*
X22554Y126684D01*
X22628Y126703D01*
X22721Y126758D01*
X22832Y126814D01*
X22962Y126888D01*
X23276Y127073D01*
X23647Y127277D01*
X24017Y127536D01*
X24406Y127832D01*
X24795Y128147D01*
X24813Y128166D01*
X24832Y128184D01*
X24887Y128240D01*
X24961Y128295D01*
X25128Y128480D01*
X25350Y128702D01*
X25573Y128962D01*
X25813Y129258D01*
X26017Y129554D01*
X26202Y129869D01*
X27220D01*
Y117000D01*
D02*
G37*
G36*
X15537Y129795D02*
X15851Y129776D01*
X16185Y129758D01*
X16499Y129721D01*
X16777Y129684D01*
X16814D01*
X16944Y129647D01*
X17110Y129610D01*
X17333Y129554D01*
X17573Y129462D01*
X17832Y129351D01*
X18110Y129221D01*
X18351Y129073D01*
X18388Y129054D01*
X18462Y128999D01*
X18573Y128888D01*
X18721Y128758D01*
X18888Y128591D01*
X19055Y128369D01*
X19240Y128128D01*
X19388Y127851D01*
X19406Y127814D01*
X19444Y127721D01*
X19518Y127555D01*
X19592Y127332D01*
X19647Y127073D01*
X19721Y126777D01*
X19758Y126444D01*
X19777Y126092D01*
Y126073D01*
Y126018D01*
Y125943D01*
X19758Y125814D01*
X19740Y125684D01*
X19721Y125518D01*
X19684Y125332D01*
X19647Y125129D01*
X19518Y124703D01*
X19444Y124481D01*
X19332Y124240D01*
X19203Y123999D01*
X19073Y123777D01*
X18907Y123555D01*
X18721Y123333D01*
X18703Y123314D01*
X18666Y123277D01*
X18610Y123222D01*
X18518Y123166D01*
X18406Y123073D01*
X18258Y122981D01*
X18073Y122870D01*
X17870Y122777D01*
X17629Y122666D01*
X17351Y122555D01*
X17055Y122462D01*
X16703Y122388D01*
X16333Y122314D01*
X15925Y122259D01*
X15462Y122222D01*
X14981Y122203D01*
X11703D01*
Y117000D01*
X10000D01*
Y129813D01*
X15259D01*
X15537Y129795D01*
D02*
G37*
G36*
X37108Y28251D02*
X37256Y28232D01*
X37423Y28214D01*
X37608Y28195D01*
X37793Y28139D01*
X38238Y28028D01*
X38682Y27862D01*
X38904Y27751D01*
X39127Y27621D01*
X39330Y27454D01*
X39534Y27288D01*
X39553Y27269D01*
X39571Y27251D01*
X39627Y27195D01*
X39701Y27121D01*
X39775Y27010D01*
X39867Y26899D01*
X40052Y26621D01*
X40238Y26269D01*
X40404Y25862D01*
X40534Y25399D01*
X40552Y25158D01*
X40571Y24899D01*
Y24880D01*
Y24862D01*
Y24751D01*
X40552Y24584D01*
X40515Y24381D01*
X40460Y24121D01*
X40367Y23862D01*
X40256Y23603D01*
X40090Y23344D01*
X40071Y23307D01*
X39997Y23233D01*
X39886Y23121D01*
X39738Y22973D01*
X39534Y22807D01*
X39293Y22640D01*
X39016Y22473D01*
X38682Y22325D01*
X38701D01*
X38738Y22307D01*
X38793Y22288D01*
X38867Y22251D01*
X39090Y22159D01*
X39349Y22029D01*
X39627Y21844D01*
X39923Y21640D01*
X40201Y21381D01*
X40460Y21085D01*
Y21066D01*
X40478Y21048D01*
X40552Y20937D01*
X40663Y20751D01*
X40775Y20511D01*
X40886Y20214D01*
X40997Y19863D01*
X41071Y19474D01*
X41089Y19048D01*
Y19029D01*
Y18974D01*
Y18881D01*
X41071Y18770D01*
X41052Y18640D01*
X41034Y18474D01*
X40997Y18289D01*
X40941Y18085D01*
X40812Y17659D01*
X40719Y17418D01*
X40589Y17196D01*
X40460Y16955D01*
X40312Y16733D01*
X40127Y16511D01*
X39923Y16289D01*
X39904Y16270D01*
X39867Y16233D01*
X39812Y16178D01*
X39719Y16122D01*
X39590Y16030D01*
X39460Y15937D01*
X39293Y15844D01*
X39108Y15733D01*
X38904Y15622D01*
X38664Y15530D01*
X38405Y15437D01*
X38145Y15344D01*
X37849Y15289D01*
X37534Y15233D01*
X37219Y15196D01*
X36868Y15178D01*
X36682D01*
X36553Y15196D01*
X36386Y15215D01*
X36201Y15233D01*
X35997Y15270D01*
X35775Y15326D01*
X35275Y15455D01*
X35016Y15548D01*
X34775Y15641D01*
X34516Y15770D01*
X34257Y15919D01*
X34016Y16085D01*
X33794Y16289D01*
X33775Y16307D01*
X33738Y16344D01*
X33683Y16400D01*
X33609Y16493D01*
X33535Y16604D01*
X33424Y16733D01*
X33331Y16881D01*
X33220Y17067D01*
X33109Y17252D01*
X33016Y17474D01*
X32831Y17937D01*
X32757Y18214D01*
X32701Y18492D01*
X32664Y18788D01*
X32646Y19085D01*
Y19103D01*
Y19140D01*
Y19214D01*
X32664Y19289D01*
Y19400D01*
X32683Y19529D01*
X32720Y19826D01*
X32794Y20159D01*
X32905Y20492D01*
X33072Y20844D01*
X33275Y21177D01*
Y21196D01*
X33312Y21214D01*
X33386Y21307D01*
X33535Y21455D01*
X33738Y21640D01*
X33997Y21825D01*
X34312Y22029D01*
X34664Y22196D01*
X35090Y22325D01*
X35071D01*
X35053Y22344D01*
X34997Y22362D01*
X34923Y22399D01*
X34757Y22473D01*
X34534Y22584D01*
X34294Y22733D01*
X34053Y22918D01*
X33831Y23121D01*
X33627Y23344D01*
X33609Y23381D01*
X33553Y23455D01*
X33479Y23603D01*
X33405Y23788D01*
X33312Y24029D01*
X33238Y24306D01*
X33183Y24621D01*
X33164Y24955D01*
Y24973D01*
Y25010D01*
Y25084D01*
X33183Y25195D01*
X33201Y25306D01*
X33220Y25454D01*
X33294Y25769D01*
X33405Y26140D01*
X33590Y26528D01*
X33701Y26732D01*
X33831Y26936D01*
X33997Y27121D01*
X34164Y27306D01*
X34183Y27325D01*
X34220Y27343D01*
X34275Y27399D01*
X34349Y27454D01*
X34442Y27528D01*
X34571Y27602D01*
X34720Y27695D01*
X34868Y27788D01*
X35053Y27880D01*
X35257Y27973D01*
X35479Y28047D01*
X35720Y28121D01*
X36238Y28232D01*
X36534Y28251D01*
X36831Y28269D01*
X36997D01*
X37108Y28251D01*
D02*
G37*
G36*
X197220Y117000D02*
X195646D01*
Y127017D01*
X195628Y126999D01*
X195535Y126925D01*
X195424Y126814D01*
X195239Y126684D01*
X195035Y126517D01*
X194776Y126332D01*
X194480Y126129D01*
X194147Y125925D01*
X194128D01*
X194110Y125906D01*
X193999Y125832D01*
X193813Y125740D01*
X193591Y125629D01*
X193332Y125499D01*
X193054Y125370D01*
X192776Y125240D01*
X192499Y125129D01*
Y126647D01*
X192517D01*
X192554Y126684D01*
X192628Y126703D01*
X192721Y126758D01*
X192832Y126814D01*
X192962Y126888D01*
X193276Y127073D01*
X193647Y127277D01*
X194017Y127536D01*
X194406Y127832D01*
X194795Y128147D01*
X194813Y128166D01*
X194832Y128184D01*
X194887Y128240D01*
X194961Y128295D01*
X195128Y128480D01*
X195350Y128702D01*
X195572Y128962D01*
X195813Y129258D01*
X196017Y129554D01*
X196202Y129869D01*
X197220D01*
Y117000D01*
D02*
G37*
G36*
X28628Y15400D02*
X27054D01*
Y25417D01*
X27035Y25399D01*
X26943Y25325D01*
X26832Y25214D01*
X26646Y25084D01*
X26443Y24918D01*
X26184Y24732D01*
X25887Y24529D01*
X25554Y24325D01*
X25535D01*
X25517Y24306D01*
X25406Y24232D01*
X25221Y24140D01*
X24999Y24029D01*
X24739Y23899D01*
X24462Y23770D01*
X24184Y23640D01*
X23906Y23529D01*
Y25047D01*
X23925D01*
X23962Y25084D01*
X24036Y25103D01*
X24128Y25158D01*
X24239Y25214D01*
X24369Y25288D01*
X24684Y25473D01*
X25054Y25677D01*
X25424Y25936D01*
X25813Y26232D01*
X26202Y26547D01*
X26221Y26565D01*
X26239Y26584D01*
X26295Y26640D01*
X26369Y26695D01*
X26535Y26880D01*
X26758Y27102D01*
X26980Y27362D01*
X27220Y27658D01*
X27424Y27954D01*
X27609Y28269D01*
X28628D01*
Y15400D01*
D02*
G37*
G36*
X21980D02*
X20055D01*
X18555Y19289D01*
X13185D01*
X11796Y15400D01*
X10000D01*
X14888Y28214D01*
X16740D01*
X21980Y15400D01*
D02*
G37*
G36*
X35812Y129851D02*
X35960Y129832D01*
X36145Y129813D01*
X36349Y129776D01*
X36553Y129739D01*
X37034Y129610D01*
X37516Y129425D01*
X37756Y129313D01*
X37997Y129184D01*
X38219Y129017D01*
X38423Y128832D01*
X38442Y128814D01*
X38479Y128795D01*
X38516Y128721D01*
X38590Y128647D01*
X38682Y128554D01*
X38775Y128425D01*
X38867Y128295D01*
X38979Y128128D01*
X39164Y127777D01*
X39349Y127332D01*
X39423Y127110D01*
X39460Y126851D01*
X39497Y126592D01*
X39516Y126314D01*
Y126277D01*
Y126184D01*
X39497Y126036D01*
X39478Y125832D01*
X39441Y125610D01*
X39367Y125351D01*
X39293Y125073D01*
X39182Y124796D01*
X39164Y124758D01*
X39127Y124666D01*
X39053Y124518D01*
X38942Y124314D01*
X38793Y124092D01*
X38608Y123814D01*
X38386Y123536D01*
X38127Y123222D01*
X38090Y123184D01*
X37997Y123073D01*
X37905Y122981D01*
X37812Y122888D01*
X37701Y122777D01*
X37553Y122629D01*
X37405Y122481D01*
X37219Y122314D01*
X37034Y122129D01*
X36812Y121925D01*
X36571Y121722D01*
X36312Y121481D01*
X36016Y121240D01*
X35720Y120981D01*
X35701Y120962D01*
X35664Y120926D01*
X35590Y120870D01*
X35497Y120796D01*
X35386Y120685D01*
X35257Y120574D01*
X34960Y120333D01*
X34646Y120055D01*
X34349Y119777D01*
X34090Y119537D01*
X33979Y119444D01*
X33886Y119352D01*
X33868Y119333D01*
X33812Y119277D01*
X33738Y119204D01*
X33646Y119092D01*
X33553Y118963D01*
X33442Y118833D01*
X33220Y118518D01*
X39534D01*
Y117000D01*
X31035D01*
Y117018D01*
Y117093D01*
Y117204D01*
X31053Y117352D01*
X31072Y117519D01*
X31109Y117704D01*
X31146Y117889D01*
X31220Y118092D01*
Y118111D01*
X31239Y118130D01*
X31276Y118241D01*
X31350Y118407D01*
X31461Y118630D01*
X31609Y118889D01*
X31794Y119185D01*
X31998Y119481D01*
X32257Y119796D01*
Y119815D01*
X32294Y119833D01*
X32387Y119944D01*
X32553Y120111D01*
X32794Y120351D01*
X33072Y120629D01*
X33424Y120962D01*
X33849Y121333D01*
X34312Y121722D01*
X34331Y121740D01*
X34405Y121796D01*
X34516Y121888D01*
X34646Y122000D01*
X34812Y122148D01*
X35016Y122314D01*
X35220Y122499D01*
X35460Y122703D01*
X35923Y123147D01*
X36386Y123592D01*
X36608Y123814D01*
X36812Y124036D01*
X36997Y124240D01*
X37145Y124444D01*
Y124462D01*
X37182Y124481D01*
X37219Y124536D01*
X37256Y124610D01*
X37386Y124814D01*
X37534Y125055D01*
X37664Y125351D01*
X37793Y125666D01*
X37868Y126018D01*
X37905Y126351D01*
Y126369D01*
Y126388D01*
X37886Y126499D01*
X37868Y126684D01*
X37812Y126888D01*
X37738Y127147D01*
X37608Y127406D01*
X37442Y127666D01*
X37219Y127925D01*
X37182Y127962D01*
X37090Y128036D01*
X36960Y128128D01*
X36756Y128258D01*
X36497Y128369D01*
X36201Y128480D01*
X35849Y128554D01*
X35460Y128573D01*
X35349D01*
X35275Y128554D01*
X35053Y128536D01*
X34794Y128480D01*
X34516Y128406D01*
X34201Y128277D01*
X33905Y128110D01*
X33627Y127888D01*
X33590Y127851D01*
X33516Y127758D01*
X33405Y127610D01*
X33294Y127388D01*
X33164Y127129D01*
X33053Y126795D01*
X32979Y126425D01*
X32942Y125999D01*
X31331Y126166D01*
Y126184D01*
X31350Y126240D01*
Y126332D01*
X31368Y126462D01*
X31405Y126610D01*
X31442Y126777D01*
X31498Y126980D01*
X31553Y127184D01*
X31702Y127628D01*
X31924Y128073D01*
X32053Y128295D01*
X32220Y128517D01*
X32387Y128721D01*
X32572Y128906D01*
X32590Y128925D01*
X32627Y128943D01*
X32683Y128999D01*
X32775Y129054D01*
X32887Y129128D01*
X33016Y129202D01*
X33164Y129295D01*
X33349Y129388D01*
X33553Y129480D01*
X33775Y129573D01*
X34016Y129647D01*
X34275Y129721D01*
X34553Y129776D01*
X34849Y129832D01*
X35164Y129851D01*
X35497Y129869D01*
X35682D01*
X35812Y129851D01*
D02*
G37*
G36*
X195850Y180651D02*
X195998Y180632D01*
X196183Y180613D01*
X196387Y180576D01*
X196591Y180539D01*
X197072Y180410D01*
X197554Y180225D01*
X197794Y180114D01*
X198035Y179984D01*
X198257Y179817D01*
X198461Y179632D01*
X198480Y179614D01*
X198517Y179595D01*
X198554Y179521D01*
X198628Y179447D01*
X198720Y179354D01*
X198813Y179225D01*
X198905Y179095D01*
X199016Y178929D01*
X199202Y178577D01*
X199387Y178132D01*
X199461Y177910D01*
X199498Y177651D01*
X199535Y177392D01*
X199554Y177114D01*
Y177077D01*
Y176984D01*
X199535Y176836D01*
X199517Y176632D01*
X199480Y176410D01*
X199405Y176151D01*
X199331Y175873D01*
X199220Y175595D01*
X199202Y175558D01*
X199165Y175466D01*
X199091Y175318D01*
X198979Y175114D01*
X198831Y174892D01*
X198646Y174614D01*
X198424Y174336D01*
X198165Y174022D01*
X198128Y173985D01*
X198035Y173873D01*
X197943Y173781D01*
X197850Y173688D01*
X197739Y173577D01*
X197591Y173429D01*
X197443Y173281D01*
X197257Y173114D01*
X197072Y172929D01*
X196850Y172725D01*
X196609Y172522D01*
X196350Y172281D01*
X196054Y172040D01*
X195758Y171781D01*
X195739Y171763D01*
X195702Y171726D01*
X195628Y171670D01*
X195535Y171596D01*
X195424Y171485D01*
X195295Y171374D01*
X194998Y171133D01*
X194684Y170855D01*
X194387Y170578D01*
X194128Y170337D01*
X194017Y170244D01*
X193925Y170152D01*
X193906Y170133D01*
X193850Y170077D01*
X193776Y170004D01*
X193684Y169892D01*
X193591Y169763D01*
X193480Y169633D01*
X193258Y169318D01*
X199572D01*
Y167800D01*
X191073D01*
Y167819D01*
Y167893D01*
Y168004D01*
X191091Y168152D01*
X191110Y168319D01*
X191147Y168504D01*
X191184Y168689D01*
X191258Y168892D01*
Y168911D01*
X191277Y168930D01*
X191314Y169041D01*
X191388Y169207D01*
X191499Y169429D01*
X191647Y169689D01*
X191832Y169985D01*
X192036Y170281D01*
X192295Y170596D01*
Y170614D01*
X192332Y170633D01*
X192425Y170744D01*
X192591Y170911D01*
X192832Y171152D01*
X193110Y171429D01*
X193462Y171763D01*
X193887Y172133D01*
X194350Y172522D01*
X194369Y172540D01*
X194443Y172596D01*
X194554Y172688D01*
X194684Y172799D01*
X194850Y172948D01*
X195054Y173114D01*
X195258Y173299D01*
X195498Y173503D01*
X195961Y173948D01*
X196424Y174392D01*
X196646Y174614D01*
X196850Y174836D01*
X197035Y175040D01*
X197183Y175244D01*
Y175262D01*
X197220Y175281D01*
X197257Y175336D01*
X197295Y175410D01*
X197424Y175614D01*
X197572Y175855D01*
X197702Y176151D01*
X197831Y176466D01*
X197906Y176818D01*
X197943Y177151D01*
Y177169D01*
Y177188D01*
X197924Y177299D01*
X197906Y177484D01*
X197850Y177688D01*
X197776Y177947D01*
X197646Y178206D01*
X197480Y178466D01*
X197257Y178725D01*
X197220Y178762D01*
X197128Y178836D01*
X196998Y178929D01*
X196795Y179058D01*
X196535Y179169D01*
X196239Y179280D01*
X195887Y179354D01*
X195498Y179373D01*
X195387D01*
X195313Y179354D01*
X195091Y179336D01*
X194832Y179280D01*
X194554Y179206D01*
X194239Y179077D01*
X193943Y178910D01*
X193665Y178688D01*
X193628Y178651D01*
X193554Y178558D01*
X193443Y178410D01*
X193332Y178188D01*
X193202Y177929D01*
X193091Y177595D01*
X193017Y177225D01*
X192980Y176799D01*
X191369Y176966D01*
Y176984D01*
X191388Y177040D01*
Y177132D01*
X191406Y177262D01*
X191443Y177410D01*
X191480Y177577D01*
X191536Y177780D01*
X191591Y177984D01*
X191740Y178428D01*
X191962Y178873D01*
X192091Y179095D01*
X192258Y179317D01*
X192425Y179521D01*
X192610Y179706D01*
X192628Y179725D01*
X192665Y179743D01*
X192721Y179799D01*
X192813Y179854D01*
X192925Y179928D01*
X193054Y180002D01*
X193202Y180095D01*
X193388Y180188D01*
X193591Y180280D01*
X193813Y180373D01*
X194054Y180447D01*
X194313Y180521D01*
X194591Y180576D01*
X194887Y180632D01*
X195202Y180651D01*
X195535Y180669D01*
X195721D01*
X195850Y180651D01*
D02*
G37*
G36*
X25850D02*
X25998Y180632D01*
X26184Y180613D01*
X26387Y180576D01*
X26591Y180539D01*
X27072Y180410D01*
X27554Y180225D01*
X27794Y180114D01*
X28035Y179984D01*
X28257Y179817D01*
X28461Y179632D01*
X28480Y179614D01*
X28517Y179595D01*
X28554Y179521D01*
X28628Y179447D01*
X28720Y179354D01*
X28813Y179225D01*
X28905Y179095D01*
X29017Y178929D01*
X29202Y178577D01*
X29387Y178132D01*
X29461Y177910D01*
X29498Y177651D01*
X29535Y177392D01*
X29553Y177114D01*
Y177077D01*
Y176984D01*
X29535Y176836D01*
X29516Y176632D01*
X29479Y176410D01*
X29405Y176151D01*
X29331Y175873D01*
X29220Y175595D01*
X29202Y175558D01*
X29165Y175466D01*
X29091Y175318D01*
X28979Y175114D01*
X28831Y174892D01*
X28646Y174614D01*
X28424Y174336D01*
X28165Y174022D01*
X28128Y173985D01*
X28035Y173873D01*
X27943Y173781D01*
X27850Y173688D01*
X27739Y173577D01*
X27591Y173429D01*
X27443Y173281D01*
X27257Y173114D01*
X27072Y172929D01*
X26850Y172725D01*
X26609Y172522D01*
X26350Y172281D01*
X26054Y172040D01*
X25758Y171781D01*
X25739Y171763D01*
X25702Y171726D01*
X25628Y171670D01*
X25535Y171596D01*
X25424Y171485D01*
X25295Y171374D01*
X24999Y171133D01*
X24684Y170855D01*
X24387Y170578D01*
X24128Y170337D01*
X24017Y170244D01*
X23925Y170152D01*
X23906Y170133D01*
X23850Y170077D01*
X23776Y170004D01*
X23684Y169892D01*
X23591Y169763D01*
X23480Y169633D01*
X23258Y169318D01*
X29572D01*
Y167800D01*
X21073D01*
Y167819D01*
Y167893D01*
Y168004D01*
X21091Y168152D01*
X21110Y168319D01*
X21147Y168504D01*
X21184Y168689D01*
X21258Y168892D01*
Y168911D01*
X21277Y168930D01*
X21314Y169041D01*
X21388Y169207D01*
X21499Y169429D01*
X21647Y169689D01*
X21832Y169985D01*
X22036Y170281D01*
X22295Y170596D01*
Y170614D01*
X22332Y170633D01*
X22425Y170744D01*
X22591Y170911D01*
X22832Y171152D01*
X23110Y171429D01*
X23462Y171763D01*
X23888Y172133D01*
X24350Y172522D01*
X24369Y172540D01*
X24443Y172596D01*
X24554Y172688D01*
X24684Y172799D01*
X24850Y172948D01*
X25054Y173114D01*
X25258Y173299D01*
X25498Y173503D01*
X25961Y173948D01*
X26424Y174392D01*
X26646Y174614D01*
X26850Y174836D01*
X27035Y175040D01*
X27183Y175244D01*
Y175262D01*
X27220Y175281D01*
X27257Y175336D01*
X27294Y175410D01*
X27424Y175614D01*
X27572Y175855D01*
X27702Y176151D01*
X27831Y176466D01*
X27906Y176818D01*
X27943Y177151D01*
Y177169D01*
Y177188D01*
X27924Y177299D01*
X27906Y177484D01*
X27850Y177688D01*
X27776Y177947D01*
X27646Y178206D01*
X27480Y178466D01*
X27257Y178725D01*
X27220Y178762D01*
X27128Y178836D01*
X26998Y178929D01*
X26795Y179058D01*
X26535Y179169D01*
X26239Y179280D01*
X25887Y179354D01*
X25498Y179373D01*
X25387D01*
X25313Y179354D01*
X25091Y179336D01*
X24832Y179280D01*
X24554Y179206D01*
X24239Y179077D01*
X23943Y178910D01*
X23665Y178688D01*
X23628Y178651D01*
X23554Y178558D01*
X23443Y178410D01*
X23332Y178188D01*
X23202Y177929D01*
X23091Y177595D01*
X23017Y177225D01*
X22980Y176799D01*
X21369Y176966D01*
Y176984D01*
X21388Y177040D01*
Y177132D01*
X21406Y177262D01*
X21443Y177410D01*
X21480Y177577D01*
X21536Y177780D01*
X21591Y177984D01*
X21739Y178428D01*
X21962Y178873D01*
X22091Y179095D01*
X22258Y179317D01*
X22425Y179521D01*
X22610Y179706D01*
X22628Y179725D01*
X22665Y179743D01*
X22721Y179799D01*
X22813Y179854D01*
X22925Y179928D01*
X23054Y180002D01*
X23202Y180095D01*
X23387Y180188D01*
X23591Y180280D01*
X23813Y180373D01*
X24054Y180447D01*
X24313Y180521D01*
X24591Y180576D01*
X24887Y180632D01*
X25202Y180651D01*
X25535Y180669D01*
X25721D01*
X25850Y180651D01*
D02*
G37*
G36*
X27220Y193200D02*
X25647D01*
Y203218D01*
X25628Y203199D01*
X25535Y203125D01*
X25424Y203014D01*
X25239Y202884D01*
X25036Y202717D01*
X24776Y202532D01*
X24480Y202329D01*
X24147Y202125D01*
X24128D01*
X24110Y202106D01*
X23999Y202032D01*
X23813Y201940D01*
X23591Y201829D01*
X23332Y201699D01*
X23054Y201569D01*
X22777Y201440D01*
X22499Y201329D01*
Y202847D01*
X22517D01*
X22554Y202884D01*
X22628Y202903D01*
X22721Y202958D01*
X22832Y203014D01*
X22962Y203088D01*
X23276Y203273D01*
X23647Y203477D01*
X24017Y203736D01*
X24406Y204032D01*
X24795Y204347D01*
X24813Y204366D01*
X24832Y204384D01*
X24887Y204440D01*
X24961Y204495D01*
X25128Y204680D01*
X25350Y204902D01*
X25573Y205162D01*
X25813Y205458D01*
X26017Y205754D01*
X26202Y206069D01*
X27220D01*
Y193200D01*
D02*
G37*
G36*
X15537Y205995D02*
X15851Y205976D01*
X16185Y205958D01*
X16499Y205921D01*
X16777Y205884D01*
X16814D01*
X16944Y205847D01*
X17110Y205810D01*
X17333Y205754D01*
X17573Y205662D01*
X17832Y205551D01*
X18110Y205421D01*
X18351Y205273D01*
X18388Y205254D01*
X18462Y205199D01*
X18573Y205088D01*
X18721Y204958D01*
X18888Y204791D01*
X19055Y204569D01*
X19240Y204328D01*
X19388Y204051D01*
X19406Y204014D01*
X19444Y203921D01*
X19518Y203755D01*
X19592Y203532D01*
X19647Y203273D01*
X19721Y202977D01*
X19758Y202644D01*
X19777Y202292D01*
Y202273D01*
Y202218D01*
Y202143D01*
X19758Y202014D01*
X19740Y201884D01*
X19721Y201718D01*
X19684Y201532D01*
X19647Y201329D01*
X19518Y200903D01*
X19444Y200681D01*
X19332Y200440D01*
X19203Y200199D01*
X19073Y199977D01*
X18907Y199755D01*
X18721Y199533D01*
X18703Y199514D01*
X18666Y199477D01*
X18610Y199422D01*
X18518Y199366D01*
X18406Y199273D01*
X18258Y199181D01*
X18073Y199070D01*
X17870Y198977D01*
X17629Y198866D01*
X17351Y198755D01*
X17055Y198662D01*
X16703Y198588D01*
X16333Y198514D01*
X15925Y198459D01*
X15462Y198422D01*
X14981Y198403D01*
X11703D01*
Y193200D01*
X10000D01*
Y206014D01*
X15259D01*
X15537Y205995D01*
D02*
G37*
G36*
X185536Y155195D02*
X185851Y155176D01*
X186185Y155158D01*
X186499Y155121D01*
X186777Y155084D01*
X186814D01*
X186944Y155047D01*
X187110Y155010D01*
X187333Y154954D01*
X187573Y154862D01*
X187833Y154751D01*
X188110Y154621D01*
X188351Y154473D01*
X188388Y154454D01*
X188462Y154399D01*
X188573Y154288D01*
X188721Y154158D01*
X188888Y153991D01*
X189055Y153769D01*
X189240Y153528D01*
X189388Y153251D01*
X189406Y153214D01*
X189443Y153121D01*
X189517Y152955D01*
X189592Y152732D01*
X189647Y152473D01*
X189721Y152177D01*
X189758Y151844D01*
X189777Y151492D01*
Y151473D01*
Y151418D01*
Y151343D01*
X189758Y151214D01*
X189740Y151084D01*
X189721Y150918D01*
X189684Y150732D01*
X189647Y150529D01*
X189517Y150103D01*
X189443Y149881D01*
X189332Y149640D01*
X189203Y149399D01*
X189073Y149177D01*
X188906Y148955D01*
X188721Y148733D01*
X188703Y148714D01*
X188666Y148677D01*
X188610Y148622D01*
X188518Y148566D01*
X188407Y148473D01*
X188258Y148381D01*
X188073Y148270D01*
X187870Y148177D01*
X187629Y148066D01*
X187351Y147955D01*
X187055Y147862D01*
X186703Y147788D01*
X186333Y147714D01*
X185925Y147659D01*
X185462Y147622D01*
X184981Y147603D01*
X181703D01*
Y142400D01*
X180000D01*
Y155213D01*
X185259D01*
X185536Y155195D01*
D02*
G37*
G36*
X15537D02*
X15851Y155176D01*
X16185Y155158D01*
X16499Y155121D01*
X16777Y155084D01*
X16814D01*
X16944Y155047D01*
X17110Y155010D01*
X17333Y154954D01*
X17573Y154862D01*
X17832Y154751D01*
X18110Y154621D01*
X18351Y154473D01*
X18388Y154454D01*
X18462Y154399D01*
X18573Y154288D01*
X18721Y154158D01*
X18888Y153991D01*
X19055Y153769D01*
X19240Y153528D01*
X19388Y153251D01*
X19406Y153214D01*
X19444Y153121D01*
X19518Y152955D01*
X19592Y152732D01*
X19647Y152473D01*
X19721Y152177D01*
X19758Y151844D01*
X19777Y151492D01*
Y151473D01*
Y151418D01*
Y151343D01*
X19758Y151214D01*
X19740Y151084D01*
X19721Y150918D01*
X19684Y150732D01*
X19647Y150529D01*
X19518Y150103D01*
X19444Y149881D01*
X19332Y149640D01*
X19203Y149399D01*
X19073Y149177D01*
X18907Y148955D01*
X18721Y148733D01*
X18703Y148714D01*
X18666Y148677D01*
X18610Y148622D01*
X18518Y148566D01*
X18406Y148473D01*
X18258Y148381D01*
X18073Y148270D01*
X17870Y148177D01*
X17629Y148066D01*
X17351Y147955D01*
X17055Y147862D01*
X16703Y147788D01*
X16333Y147714D01*
X15925Y147659D01*
X15462Y147622D01*
X14981Y147603D01*
X11703D01*
Y142400D01*
X10000D01*
Y155213D01*
X15259D01*
X15537Y155195D01*
D02*
G37*
G36*
Y180595D02*
X15851Y180576D01*
X16185Y180558D01*
X16499Y180521D01*
X16777Y180484D01*
X16814D01*
X16944Y180447D01*
X17110Y180410D01*
X17333Y180354D01*
X17573Y180262D01*
X17832Y180151D01*
X18110Y180021D01*
X18351Y179873D01*
X18388Y179854D01*
X18462Y179799D01*
X18573Y179688D01*
X18721Y179558D01*
X18888Y179391D01*
X19055Y179169D01*
X19240Y178929D01*
X19388Y178651D01*
X19406Y178614D01*
X19444Y178521D01*
X19518Y178354D01*
X19592Y178132D01*
X19647Y177873D01*
X19721Y177577D01*
X19758Y177243D01*
X19777Y176892D01*
Y176873D01*
Y176818D01*
Y176744D01*
X19758Y176614D01*
X19740Y176484D01*
X19721Y176318D01*
X19684Y176133D01*
X19647Y175929D01*
X19518Y175503D01*
X19444Y175281D01*
X19332Y175040D01*
X19203Y174799D01*
X19073Y174577D01*
X18907Y174355D01*
X18721Y174133D01*
X18703Y174114D01*
X18666Y174077D01*
X18610Y174022D01*
X18518Y173966D01*
X18406Y173873D01*
X18258Y173781D01*
X18073Y173670D01*
X17870Y173577D01*
X17629Y173466D01*
X17351Y173355D01*
X17055Y173262D01*
X16703Y173188D01*
X16333Y173114D01*
X15925Y173059D01*
X15462Y173022D01*
X14981Y173003D01*
X11703D01*
Y167800D01*
X10000D01*
Y180613D01*
X15259D01*
X15537Y180595D01*
D02*
G37*
G36*
X26091Y155251D02*
X26221D01*
X26369Y155232D01*
X26720Y155158D01*
X27109Y155065D01*
X27517Y154917D01*
X27924Y154695D01*
X28128Y154565D01*
X28313Y154417D01*
X28331Y154399D01*
X28350Y154380D01*
X28405Y154325D01*
X28461Y154269D01*
X28554Y154177D01*
X28628Y154066D01*
X28831Y153806D01*
X29035Y153473D01*
X29220Y153066D01*
X29387Y152603D01*
X29498Y152084D01*
X27924Y151955D01*
Y151973D01*
X27906Y151992D01*
X27887Y152103D01*
X27831Y152269D01*
X27757Y152473D01*
X27683Y152695D01*
X27572Y152917D01*
X27443Y153121D01*
X27313Y153288D01*
X27276Y153325D01*
X27202Y153399D01*
X27072Y153510D01*
X26887Y153640D01*
X26646Y153751D01*
X26387Y153862D01*
X26072Y153936D01*
X25739Y153973D01*
X25610D01*
X25461Y153954D01*
X25295Y153917D01*
X25073Y153862D01*
X24850Y153788D01*
X24628Y153695D01*
X24406Y153547D01*
X24369Y153528D01*
X24276Y153454D01*
X24147Y153325D01*
X23980Y153140D01*
X23795Y152917D01*
X23591Y152658D01*
X23406Y152325D01*
X23221Y151955D01*
Y151936D01*
X23202Y151899D01*
X23184Y151844D01*
X23147Y151769D01*
X23128Y151658D01*
X23091Y151529D01*
X23054Y151381D01*
X23017Y151195D01*
X22962Y150992D01*
X22925Y150770D01*
X22888Y150529D01*
X22869Y150269D01*
X22832Y149973D01*
X22813Y149677D01*
X22795Y149344D01*
Y149010D01*
X22813Y149029D01*
X22888Y149140D01*
X23017Y149288D01*
X23184Y149473D01*
X23369Y149696D01*
X23610Y149899D01*
X23869Y150103D01*
X24165Y150288D01*
X24184D01*
X24202Y150307D01*
X24313Y150362D01*
X24480Y150418D01*
X24702Y150510D01*
X24961Y150584D01*
X25258Y150640D01*
X25573Y150695D01*
X25906Y150714D01*
X26054D01*
X26165Y150695D01*
X26313Y150677D01*
X26461Y150658D01*
X26646Y150621D01*
X26832Y150566D01*
X27257Y150436D01*
X27480Y150344D01*
X27702Y150214D01*
X27924Y150084D01*
X28165Y149936D01*
X28387Y149751D01*
X28591Y149547D01*
X28609Y149529D01*
X28646Y149492D01*
X28702Y149436D01*
X28757Y149344D01*
X28850Y149214D01*
X28942Y149085D01*
X29035Y148918D01*
X29146Y148733D01*
X29257Y148529D01*
X29350Y148307D01*
X29442Y148048D01*
X29535Y147788D01*
X29591Y147511D01*
X29646Y147196D01*
X29683Y146881D01*
X29702Y146548D01*
Y146529D01*
Y146492D01*
Y146437D01*
Y146344D01*
X29683Y146233D01*
Y146122D01*
X29628Y145826D01*
X29572Y145474D01*
X29479Y145103D01*
X29350Y144696D01*
X29165Y144307D01*
Y144289D01*
X29146Y144270D01*
X29109Y144215D01*
X29072Y144141D01*
X28961Y143955D01*
X28794Y143715D01*
X28591Y143455D01*
X28350Y143196D01*
X28054Y142937D01*
X27739Y142715D01*
X27720D01*
X27702Y142696D01*
X27646Y142659D01*
X27572Y142641D01*
X27387Y142548D01*
X27146Y142456D01*
X26832Y142344D01*
X26480Y142270D01*
X26091Y142196D01*
X25665Y142178D01*
X25573D01*
X25480Y142196D01*
X25332D01*
X25165Y142215D01*
X24980Y142252D01*
X24758Y142307D01*
X24536Y142363D01*
X24276Y142437D01*
X24017Y142530D01*
X23758Y142641D01*
X23480Y142789D01*
X23221Y142956D01*
X22962Y143141D01*
X22702Y143363D01*
X22462Y143622D01*
X22443Y143641D01*
X22406Y143696D01*
X22351Y143770D01*
X22276Y143900D01*
X22165Y144066D01*
X22073Y144252D01*
X21962Y144492D01*
X21851Y144752D01*
X21721Y145066D01*
X21610Y145418D01*
X21517Y145807D01*
X21425Y146233D01*
X21332Y146714D01*
X21277Y147233D01*
X21240Y147788D01*
X21221Y148381D01*
Y148399D01*
Y148418D01*
Y148473D01*
Y148547D01*
X21240Y148733D01*
Y148992D01*
X21258Y149288D01*
X21295Y149640D01*
X21332Y150029D01*
X21388Y150455D01*
X21462Y150881D01*
X21554Y151343D01*
X21665Y151788D01*
X21795Y152232D01*
X21962Y152658D01*
X22147Y153066D01*
X22351Y153454D01*
X22591Y153788D01*
X22610Y153806D01*
X22647Y153843D01*
X22721Y153917D01*
X22813Y154028D01*
X22925Y154139D01*
X23073Y154251D01*
X23258Y154399D01*
X23443Y154528D01*
X23665Y154658D01*
X23906Y154806D01*
X24184Y154917D01*
X24462Y155047D01*
X24776Y155139D01*
X25110Y155213D01*
X25461Y155251D01*
X25832Y155269D01*
X25980D01*
X26091Y155251D01*
D02*
G37*
G36*
X37219Y53650D02*
X37367Y53632D01*
X37553Y53614D01*
X37756Y53576D01*
X37960Y53539D01*
X38442Y53410D01*
X38923Y53225D01*
X39164Y53113D01*
X39404Y52984D01*
X39627Y52817D01*
X39830Y52632D01*
X39849Y52614D01*
X39886Y52595D01*
X39923Y52521D01*
X39997Y52447D01*
X40090Y52354D01*
X40182Y52225D01*
X40275Y52095D01*
X40386Y51929D01*
X40571Y51577D01*
X40756Y51132D01*
X40830Y50910D01*
X40867Y50651D01*
X40904Y50392D01*
X40923Y50114D01*
Y50077D01*
Y49984D01*
X40904Y49836D01*
X40886Y49632D01*
X40849Y49410D01*
X40775Y49151D01*
X40700Y48873D01*
X40589Y48595D01*
X40571Y48558D01*
X40534Y48466D01*
X40460Y48318D01*
X40349Y48114D01*
X40201Y47892D01*
X40015Y47614D01*
X39793Y47336D01*
X39534Y47022D01*
X39497Y46985D01*
X39404Y46873D01*
X39312Y46781D01*
X39219Y46688D01*
X39108Y46577D01*
X38960Y46429D01*
X38812Y46281D01*
X38627Y46114D01*
X38442Y45929D01*
X38219Y45725D01*
X37979Y45522D01*
X37719Y45281D01*
X37423Y45040D01*
X37127Y44781D01*
X37108Y44763D01*
X37071Y44725D01*
X36997Y44670D01*
X36905Y44596D01*
X36793Y44485D01*
X36664Y44374D01*
X36368Y44133D01*
X36053Y43855D01*
X35757Y43577D01*
X35497Y43337D01*
X35386Y43244D01*
X35294Y43152D01*
X35275Y43133D01*
X35220Y43078D01*
X35145Y43004D01*
X35053Y42892D01*
X34960Y42763D01*
X34849Y42633D01*
X34627Y42318D01*
X40941D01*
Y40800D01*
X32442D01*
Y40819D01*
Y40893D01*
Y41004D01*
X32461Y41152D01*
X32479Y41318D01*
X32516Y41504D01*
X32553Y41689D01*
X32627Y41892D01*
Y41911D01*
X32646Y41929D01*
X32683Y42041D01*
X32757Y42207D01*
X32868Y42429D01*
X33016Y42689D01*
X33201Y42985D01*
X33405Y43281D01*
X33664Y43596D01*
Y43615D01*
X33701Y43633D01*
X33794Y43744D01*
X33960Y43911D01*
X34201Y44152D01*
X34479Y44429D01*
X34831Y44763D01*
X35257Y45133D01*
X35720Y45522D01*
X35738Y45540D01*
X35812Y45596D01*
X35923Y45688D01*
X36053Y45799D01*
X36219Y45948D01*
X36423Y46114D01*
X36627Y46299D01*
X36868Y46503D01*
X37331Y46947D01*
X37793Y47392D01*
X38016Y47614D01*
X38219Y47836D01*
X38405Y48040D01*
X38553Y48244D01*
Y48262D01*
X38590Y48281D01*
X38627Y48336D01*
X38664Y48410D01*
X38793Y48614D01*
X38942Y48855D01*
X39071Y49151D01*
X39201Y49466D01*
X39275Y49818D01*
X39312Y50151D01*
Y50169D01*
Y50188D01*
X39293Y50299D01*
X39275Y50484D01*
X39219Y50688D01*
X39145Y50947D01*
X39016Y51206D01*
X38849Y51466D01*
X38627Y51725D01*
X38590Y51762D01*
X38497Y51836D01*
X38367Y51929D01*
X38164Y52058D01*
X37905Y52169D01*
X37608Y52280D01*
X37256Y52354D01*
X36868Y52373D01*
X36756D01*
X36682Y52354D01*
X36460Y52336D01*
X36201Y52280D01*
X35923Y52206D01*
X35608Y52077D01*
X35312Y51910D01*
X35034Y51688D01*
X34997Y51651D01*
X34923Y51558D01*
X34812Y51410D01*
X34701Y51188D01*
X34571Y50929D01*
X34460Y50595D01*
X34386Y50225D01*
X34349Y49799D01*
X32738Y49966D01*
Y49984D01*
X32757Y50040D01*
Y50132D01*
X32775Y50262D01*
X32812Y50410D01*
X32850Y50577D01*
X32905Y50780D01*
X32961Y50984D01*
X33109Y51428D01*
X33331Y51873D01*
X33461Y52095D01*
X33627Y52317D01*
X33794Y52521D01*
X33979Y52706D01*
X33997Y52725D01*
X34035Y52743D01*
X34090Y52799D01*
X34183Y52854D01*
X34294Y52928D01*
X34423Y53002D01*
X34571Y53095D01*
X34757Y53188D01*
X34960Y53280D01*
X35183Y53373D01*
X35423Y53447D01*
X35682Y53521D01*
X35960Y53576D01*
X36256Y53632D01*
X36571Y53650D01*
X36905Y53669D01*
X37090D01*
X37219Y53650D01*
D02*
G37*
G36*
X197498Y79050D02*
X197628D01*
X197776Y79032D01*
X198128Y78958D01*
X198517Y78865D01*
X198924Y78717D01*
X199331Y78495D01*
X199535Y78365D01*
X199720Y78217D01*
X199739Y78199D01*
X199757Y78180D01*
X199813Y78125D01*
X199868Y78069D01*
X199961Y77977D01*
X200035Y77866D01*
X200239Y77606D01*
X200442Y77273D01*
X200627Y76866D01*
X200794Y76403D01*
X200905Y75884D01*
X199331Y75755D01*
Y75773D01*
X199313Y75792D01*
X199294Y75903D01*
X199239Y76069D01*
X199165Y76273D01*
X199091Y76495D01*
X198979Y76717D01*
X198850Y76921D01*
X198720Y77088D01*
X198683Y77125D01*
X198609Y77199D01*
X198480Y77310D01*
X198294Y77440D01*
X198054Y77551D01*
X197794Y77662D01*
X197480Y77736D01*
X197146Y77773D01*
X197017D01*
X196869Y77754D01*
X196702Y77717D01*
X196480Y77662D01*
X196258Y77588D01*
X196035Y77495D01*
X195813Y77347D01*
X195776Y77329D01*
X195684Y77254D01*
X195554Y77125D01*
X195387Y76940D01*
X195202Y76717D01*
X194998Y76458D01*
X194813Y76125D01*
X194628Y75755D01*
Y75736D01*
X194610Y75699D01*
X194591Y75644D01*
X194554Y75569D01*
X194536Y75458D01*
X194499Y75329D01*
X194461Y75181D01*
X194424Y74995D01*
X194369Y74792D01*
X194332Y74570D01*
X194295Y74329D01*
X194276Y74069D01*
X194239Y73773D01*
X194221Y73477D01*
X194202Y73144D01*
Y72810D01*
X194221Y72829D01*
X194295Y72940D01*
X194424Y73088D01*
X194591Y73273D01*
X194776Y73495D01*
X195017Y73699D01*
X195276Y73903D01*
X195572Y74088D01*
X195591D01*
X195609Y74107D01*
X195721Y74162D01*
X195887Y74218D01*
X196109Y74310D01*
X196369Y74384D01*
X196665Y74440D01*
X196980Y74495D01*
X197313Y74514D01*
X197461D01*
X197572Y74495D01*
X197720Y74477D01*
X197868Y74458D01*
X198054Y74421D01*
X198239Y74366D01*
X198665Y74236D01*
X198887Y74144D01*
X199109Y74014D01*
X199331Y73884D01*
X199572Y73736D01*
X199794Y73551D01*
X199998Y73347D01*
X200016Y73329D01*
X200054Y73292D01*
X200109Y73236D01*
X200165Y73144D01*
X200257Y73014D01*
X200350Y72884D01*
X200442Y72718D01*
X200553Y72533D01*
X200665Y72329D01*
X200757Y72107D01*
X200850Y71848D01*
X200942Y71588D01*
X200998Y71311D01*
X201053Y70996D01*
X201090Y70681D01*
X201109Y70348D01*
Y70329D01*
Y70292D01*
Y70237D01*
Y70144D01*
X201090Y70033D01*
Y69922D01*
X201035Y69626D01*
X200979Y69274D01*
X200887Y68903D01*
X200757Y68496D01*
X200572Y68107D01*
Y68089D01*
X200553Y68070D01*
X200516Y68015D01*
X200479Y67941D01*
X200368Y67755D01*
X200202Y67515D01*
X199998Y67255D01*
X199757Y66996D01*
X199461Y66737D01*
X199146Y66515D01*
X199128D01*
X199109Y66496D01*
X199054Y66459D01*
X198979Y66441D01*
X198794Y66348D01*
X198554Y66255D01*
X198239Y66144D01*
X197887Y66070D01*
X197498Y65996D01*
X197072Y65978D01*
X196980D01*
X196887Y65996D01*
X196739D01*
X196572Y66015D01*
X196387Y66052D01*
X196165Y66107D01*
X195943Y66163D01*
X195684Y66237D01*
X195424Y66330D01*
X195165Y66441D01*
X194887Y66589D01*
X194628Y66755D01*
X194369Y66941D01*
X194110Y67163D01*
X193869Y67422D01*
X193850Y67441D01*
X193813Y67496D01*
X193758Y67570D01*
X193684Y67700D01*
X193573Y67867D01*
X193480Y68052D01*
X193369Y68292D01*
X193258Y68552D01*
X193128Y68866D01*
X193017Y69218D01*
X192925Y69607D01*
X192832Y70033D01*
X192739Y70514D01*
X192684Y71033D01*
X192647Y71588D01*
X192628Y72181D01*
Y72199D01*
Y72218D01*
Y72273D01*
Y72347D01*
X192647Y72533D01*
Y72792D01*
X192665Y73088D01*
X192702Y73440D01*
X192739Y73829D01*
X192795Y74255D01*
X192869Y74681D01*
X192962Y75143D01*
X193073Y75588D01*
X193202Y76032D01*
X193369Y76458D01*
X193554Y76866D01*
X193758Y77254D01*
X193999Y77588D01*
X194017Y77606D01*
X194054Y77643D01*
X194128Y77717D01*
X194221Y77828D01*
X194332Y77940D01*
X194480Y78051D01*
X194665Y78199D01*
X194850Y78328D01*
X195072Y78458D01*
X195313Y78606D01*
X195591Y78717D01*
X195869Y78847D01*
X196183Y78939D01*
X196517Y79014D01*
X196869Y79050D01*
X197239Y79069D01*
X197387D01*
X197498Y79050D01*
D02*
G37*
G36*
X198628Y15400D02*
X197054D01*
Y25417D01*
X197035Y25399D01*
X196943Y25325D01*
X196832Y25214D01*
X196646Y25084D01*
X196443Y24918D01*
X196183Y24732D01*
X195887Y24529D01*
X195554Y24325D01*
X195535D01*
X195517Y24306D01*
X195406Y24232D01*
X195221Y24140D01*
X194998Y24029D01*
X194739Y23899D01*
X194461Y23770D01*
X194184Y23640D01*
X193906Y23529D01*
Y25047D01*
X193925D01*
X193962Y25084D01*
X194036Y25103D01*
X194128Y25158D01*
X194239Y25214D01*
X194369Y25288D01*
X194684Y25473D01*
X195054Y25677D01*
X195424Y25936D01*
X195813Y26232D01*
X196202Y26547D01*
X196220Y26565D01*
X196239Y26584D01*
X196295Y26640D01*
X196369Y26695D01*
X196535Y26880D01*
X196758Y27102D01*
X196980Y27362D01*
X197220Y27658D01*
X197424Y27954D01*
X197609Y28269D01*
X198628D01*
Y15400D01*
D02*
G37*
G36*
Y91600D02*
X197054D01*
Y101617D01*
X197035Y101599D01*
X196943Y101525D01*
X196832Y101414D01*
X196646Y101284D01*
X196443Y101117D01*
X196183Y100932D01*
X195887Y100729D01*
X195554Y100525D01*
X195535D01*
X195517Y100506D01*
X195406Y100432D01*
X195221Y100340D01*
X194998Y100229D01*
X194739Y100099D01*
X194461Y99970D01*
X194184Y99840D01*
X193906Y99729D01*
Y101247D01*
X193925D01*
X193962Y101284D01*
X194036Y101303D01*
X194128Y101358D01*
X194239Y101414D01*
X194369Y101488D01*
X194684Y101673D01*
X195054Y101877D01*
X195424Y102136D01*
X195813Y102432D01*
X196202Y102747D01*
X196220Y102766D01*
X196239Y102784D01*
X196295Y102840D01*
X196369Y102895D01*
X196535Y103080D01*
X196758Y103302D01*
X196980Y103562D01*
X197220Y103858D01*
X197424Y104154D01*
X197609Y104469D01*
X198628D01*
Y91600D01*
D02*
G37*
G36*
X191980D02*
X190054D01*
X188555Y95489D01*
X183185D01*
X181796Y91600D01*
X180000D01*
X184888Y104413D01*
X186740D01*
X191980Y91600D01*
D02*
G37*
G36*
X198628Y40800D02*
X197054D01*
Y50817D01*
X197035Y50799D01*
X196943Y50725D01*
X196832Y50614D01*
X196646Y50484D01*
X196443Y50318D01*
X196183Y50132D01*
X195887Y49929D01*
X195554Y49725D01*
X195535D01*
X195517Y49707D01*
X195406Y49632D01*
X195221Y49540D01*
X194998Y49429D01*
X194739Y49299D01*
X194461Y49170D01*
X194184Y49040D01*
X193906Y48929D01*
Y50447D01*
X193925D01*
X193962Y50484D01*
X194036Y50503D01*
X194128Y50558D01*
X194239Y50614D01*
X194369Y50688D01*
X194684Y50873D01*
X195054Y51077D01*
X195424Y51336D01*
X195813Y51632D01*
X196202Y51947D01*
X196220Y51965D01*
X196239Y51984D01*
X196295Y52040D01*
X196369Y52095D01*
X196535Y52280D01*
X196758Y52502D01*
X196980Y52762D01*
X197220Y53058D01*
X197424Y53354D01*
X197609Y53669D01*
X198628D01*
Y40800D01*
D02*
G37*
G36*
X191980D02*
X190054D01*
X188555Y44689D01*
X183185D01*
X181796Y40800D01*
X180000D01*
X184888Y53614D01*
X186740D01*
X191980Y40800D01*
D02*
G37*
G36*
Y66200D02*
X190054D01*
X188555Y70089D01*
X183185D01*
X181796Y66200D01*
X180000D01*
X184888Y79014D01*
X186740D01*
X191980Y66200D01*
D02*
G37*
G36*
X207219Y53650D02*
X207367Y53632D01*
X207553Y53614D01*
X207756Y53576D01*
X207960Y53539D01*
X208442Y53410D01*
X208923Y53225D01*
X209164Y53113D01*
X209404Y52984D01*
X209627Y52817D01*
X209830Y52632D01*
X209849Y52614D01*
X209886Y52595D01*
X209923Y52521D01*
X209997Y52447D01*
X210089Y52354D01*
X210182Y52225D01*
X210275Y52095D01*
X210386Y51929D01*
X210571Y51577D01*
X210756Y51132D01*
X210830Y50910D01*
X210867Y50651D01*
X210904Y50392D01*
X210923Y50114D01*
Y50077D01*
Y49984D01*
X210904Y49836D01*
X210886Y49632D01*
X210849Y49410D01*
X210775Y49151D01*
X210700Y48873D01*
X210589Y48595D01*
X210571Y48558D01*
X210534Y48466D01*
X210460Y48318D01*
X210349Y48114D01*
X210201Y47892D01*
X210015Y47614D01*
X209793Y47336D01*
X209534Y47022D01*
X209497Y46985D01*
X209404Y46873D01*
X209312Y46781D01*
X209219Y46688D01*
X209108Y46577D01*
X208960Y46429D01*
X208812Y46281D01*
X208627Y46114D01*
X208442Y45929D01*
X208219Y45725D01*
X207979Y45522D01*
X207719Y45281D01*
X207423Y45040D01*
X207127Y44781D01*
X207108Y44763D01*
X207071Y44725D01*
X206997Y44670D01*
X206905Y44596D01*
X206793Y44485D01*
X206664Y44374D01*
X206368Y44133D01*
X206053Y43855D01*
X205757Y43577D01*
X205497Y43337D01*
X205386Y43244D01*
X205294Y43152D01*
X205275Y43133D01*
X205220Y43078D01*
X205145Y43004D01*
X205053Y42892D01*
X204960Y42763D01*
X204849Y42633D01*
X204627Y42318D01*
X210941D01*
Y40800D01*
X202442D01*
Y40819D01*
Y40893D01*
Y41004D01*
X202461Y41152D01*
X202479Y41318D01*
X202516Y41504D01*
X202553Y41689D01*
X202627Y41892D01*
Y41911D01*
X202646Y41929D01*
X202683Y42041D01*
X202757Y42207D01*
X202868Y42429D01*
X203016Y42689D01*
X203201Y42985D01*
X203405Y43281D01*
X203664Y43596D01*
Y43615D01*
X203701Y43633D01*
X203794Y43744D01*
X203960Y43911D01*
X204201Y44152D01*
X204479Y44429D01*
X204831Y44763D01*
X205257Y45133D01*
X205720Y45522D01*
X205738Y45540D01*
X205812Y45596D01*
X205923Y45688D01*
X206053Y45799D01*
X206220Y45948D01*
X206423Y46114D01*
X206627Y46299D01*
X206868Y46503D01*
X207330Y46947D01*
X207793Y47392D01*
X208016Y47614D01*
X208219Y47836D01*
X208405Y48040D01*
X208553Y48244D01*
Y48262D01*
X208590Y48281D01*
X208627Y48336D01*
X208664Y48410D01*
X208793Y48614D01*
X208941Y48855D01*
X209071Y49151D01*
X209201Y49466D01*
X209275Y49818D01*
X209312Y50151D01*
Y50169D01*
Y50188D01*
X209293Y50299D01*
X209275Y50484D01*
X209219Y50688D01*
X209145Y50947D01*
X209016Y51206D01*
X208849Y51466D01*
X208627Y51725D01*
X208590Y51762D01*
X208497Y51836D01*
X208367Y51929D01*
X208164Y52058D01*
X207904Y52169D01*
X207608Y52280D01*
X207256Y52354D01*
X206868Y52373D01*
X206756D01*
X206682Y52354D01*
X206460Y52336D01*
X206201Y52280D01*
X205923Y52206D01*
X205609Y52077D01*
X205312Y51910D01*
X205034Y51688D01*
X204997Y51651D01*
X204923Y51558D01*
X204812Y51410D01*
X204701Y51188D01*
X204571Y50929D01*
X204460Y50595D01*
X204386Y50225D01*
X204349Y49799D01*
X202738Y49966D01*
Y49984D01*
X202757Y50040D01*
Y50132D01*
X202775Y50262D01*
X202812Y50410D01*
X202850Y50577D01*
X202905Y50780D01*
X202961Y50984D01*
X203109Y51428D01*
X203331Y51873D01*
X203461Y52095D01*
X203627Y52317D01*
X203794Y52521D01*
X203979Y52706D01*
X203997Y52725D01*
X204035Y52743D01*
X204090Y52799D01*
X204183Y52854D01*
X204294Y52928D01*
X204423Y53002D01*
X204571Y53095D01*
X204757Y53188D01*
X204960Y53280D01*
X205183Y53373D01*
X205423Y53447D01*
X205683Y53521D01*
X205960Y53576D01*
X206257Y53632D01*
X206571Y53650D01*
X206905Y53669D01*
X207090D01*
X207219Y53650D01*
D02*
G37*
G36*
X191980Y15400D02*
X190054D01*
X188555Y19289D01*
X183185D01*
X181796Y15400D01*
X180000D01*
X184888Y28214D01*
X186740D01*
X191980Y15400D01*
D02*
G37*
G36*
X27498Y79050D02*
X27628D01*
X27776Y79032D01*
X28128Y78958D01*
X28517Y78865D01*
X28924Y78717D01*
X29331Y78495D01*
X29535Y78365D01*
X29720Y78217D01*
X29739Y78199D01*
X29757Y78180D01*
X29813Y78125D01*
X29868Y78069D01*
X29961Y77977D01*
X30035Y77866D01*
X30239Y77606D01*
X30442Y77273D01*
X30628Y76866D01*
X30794Y76403D01*
X30905Y75884D01*
X29331Y75755D01*
Y75773D01*
X29313Y75792D01*
X29294Y75903D01*
X29239Y76069D01*
X29165Y76273D01*
X29091Y76495D01*
X28979Y76717D01*
X28850Y76921D01*
X28720Y77088D01*
X28683Y77125D01*
X28609Y77199D01*
X28480Y77310D01*
X28294Y77440D01*
X28054Y77551D01*
X27794Y77662D01*
X27480Y77736D01*
X27146Y77773D01*
X27017D01*
X26869Y77754D01*
X26702Y77717D01*
X26480Y77662D01*
X26258Y77588D01*
X26035Y77495D01*
X25813Y77347D01*
X25776Y77329D01*
X25684Y77254D01*
X25554Y77125D01*
X25387Y76940D01*
X25202Y76717D01*
X24999Y76458D01*
X24813Y76125D01*
X24628Y75755D01*
Y75736D01*
X24610Y75699D01*
X24591Y75644D01*
X24554Y75569D01*
X24536Y75458D01*
X24499Y75329D01*
X24462Y75181D01*
X24424Y74995D01*
X24369Y74792D01*
X24332Y74570D01*
X24295Y74329D01*
X24276Y74069D01*
X24239Y73773D01*
X24221Y73477D01*
X24202Y73144D01*
Y72810D01*
X24221Y72829D01*
X24295Y72940D01*
X24424Y73088D01*
X24591Y73273D01*
X24776Y73495D01*
X25017Y73699D01*
X25276Y73903D01*
X25573Y74088D01*
X25591D01*
X25610Y74107D01*
X25721Y74162D01*
X25887Y74218D01*
X26109Y74310D01*
X26369Y74384D01*
X26665Y74440D01*
X26980Y74495D01*
X27313Y74514D01*
X27461D01*
X27572Y74495D01*
X27720Y74477D01*
X27868Y74458D01*
X28054Y74421D01*
X28239Y74366D01*
X28665Y74236D01*
X28887Y74144D01*
X29109Y74014D01*
X29331Y73884D01*
X29572Y73736D01*
X29794Y73551D01*
X29998Y73347D01*
X30016Y73329D01*
X30054Y73292D01*
X30109Y73236D01*
X30165Y73144D01*
X30257Y73014D01*
X30350Y72884D01*
X30442Y72718D01*
X30553Y72533D01*
X30665Y72329D01*
X30757Y72107D01*
X30850Y71848D01*
X30942Y71588D01*
X30998Y71311D01*
X31053Y70996D01*
X31090Y70681D01*
X31109Y70348D01*
Y70329D01*
Y70292D01*
Y70237D01*
Y70144D01*
X31090Y70033D01*
Y69922D01*
X31035Y69626D01*
X30979Y69274D01*
X30887Y68903D01*
X30757Y68496D01*
X30572Y68107D01*
Y68089D01*
X30553Y68070D01*
X30516Y68015D01*
X30479Y67941D01*
X30368Y67755D01*
X30202Y67515D01*
X29998Y67255D01*
X29757Y66996D01*
X29461Y66737D01*
X29146Y66515D01*
X29128D01*
X29109Y66496D01*
X29054Y66459D01*
X28979Y66441D01*
X28794Y66348D01*
X28554Y66255D01*
X28239Y66144D01*
X27887Y66070D01*
X27498Y65996D01*
X27072Y65978D01*
X26980D01*
X26887Y65996D01*
X26739D01*
X26572Y66015D01*
X26387Y66052D01*
X26165Y66107D01*
X25943Y66163D01*
X25684Y66237D01*
X25424Y66330D01*
X25165Y66441D01*
X24887Y66589D01*
X24628Y66755D01*
X24369Y66941D01*
X24110Y67163D01*
X23869Y67422D01*
X23850Y67441D01*
X23813Y67496D01*
X23758Y67570D01*
X23684Y67700D01*
X23573Y67867D01*
X23480Y68052D01*
X23369Y68292D01*
X23258Y68552D01*
X23128Y68866D01*
X23017Y69218D01*
X22925Y69607D01*
X22832Y70033D01*
X22739Y70514D01*
X22684Y71033D01*
X22647Y71588D01*
X22628Y72181D01*
Y72199D01*
Y72218D01*
Y72273D01*
Y72347D01*
X22647Y72533D01*
Y72792D01*
X22665Y73088D01*
X22702Y73440D01*
X22739Y73829D01*
X22795Y74255D01*
X22869Y74681D01*
X22962Y75143D01*
X23073Y75588D01*
X23202Y76032D01*
X23369Y76458D01*
X23554Y76866D01*
X23758Y77254D01*
X23999Y77588D01*
X24017Y77606D01*
X24054Y77643D01*
X24128Y77717D01*
X24221Y77828D01*
X24332Y77940D01*
X24480Y78051D01*
X24665Y78199D01*
X24850Y78328D01*
X25073Y78458D01*
X25313Y78606D01*
X25591Y78717D01*
X25869Y78847D01*
X26184Y78939D01*
X26517Y79014D01*
X26869Y79050D01*
X27239Y79069D01*
X27387D01*
X27498Y79050D01*
D02*
G37*
G36*
X205812Y129851D02*
X205960Y129832D01*
X206145Y129813D01*
X206349Y129776D01*
X206553Y129739D01*
X207034Y129610D01*
X207516Y129425D01*
X207756Y129313D01*
X207997Y129184D01*
X208219Y129017D01*
X208423Y128832D01*
X208442Y128814D01*
X208479Y128795D01*
X208516Y128721D01*
X208590Y128647D01*
X208682Y128554D01*
X208775Y128425D01*
X208867Y128295D01*
X208979Y128128D01*
X209164Y127777D01*
X209349Y127332D01*
X209423Y127110D01*
X209460Y126851D01*
X209497Y126592D01*
X209515Y126314D01*
Y126277D01*
Y126184D01*
X209497Y126036D01*
X209478Y125832D01*
X209441Y125610D01*
X209367Y125351D01*
X209293Y125073D01*
X209182Y124796D01*
X209164Y124758D01*
X209127Y124666D01*
X209053Y124518D01*
X208941Y124314D01*
X208793Y124092D01*
X208608Y123814D01*
X208386Y123536D01*
X208127Y123222D01*
X208090Y123184D01*
X207997Y123073D01*
X207904Y122981D01*
X207812Y122888D01*
X207701Y122777D01*
X207553Y122629D01*
X207405Y122481D01*
X207219Y122314D01*
X207034Y122129D01*
X206812Y121925D01*
X206571Y121722D01*
X206312Y121481D01*
X206016Y121240D01*
X205720Y120981D01*
X205701Y120962D01*
X205664Y120926D01*
X205590Y120870D01*
X205497Y120796D01*
X205386Y120685D01*
X205257Y120574D01*
X204960Y120333D01*
X204646Y120055D01*
X204349Y119777D01*
X204090Y119537D01*
X203979Y119444D01*
X203886Y119352D01*
X203868Y119333D01*
X203812Y119277D01*
X203738Y119204D01*
X203646Y119092D01*
X203553Y118963D01*
X203442Y118833D01*
X203220Y118518D01*
X209534D01*
Y117000D01*
X201035D01*
Y117018D01*
Y117093D01*
Y117204D01*
X201053Y117352D01*
X201072Y117519D01*
X201109Y117704D01*
X201146Y117889D01*
X201220Y118092D01*
Y118111D01*
X201238Y118130D01*
X201276Y118241D01*
X201350Y118407D01*
X201461Y118630D01*
X201609Y118889D01*
X201794Y119185D01*
X201998Y119481D01*
X202257Y119796D01*
Y119815D01*
X202294Y119833D01*
X202387Y119944D01*
X202553Y120111D01*
X202794Y120351D01*
X203072Y120629D01*
X203424Y120962D01*
X203849Y121333D01*
X204312Y121722D01*
X204331Y121740D01*
X204405Y121796D01*
X204516Y121888D01*
X204646Y122000D01*
X204812Y122148D01*
X205016Y122314D01*
X205220Y122499D01*
X205460Y122703D01*
X205923Y123147D01*
X206386Y123592D01*
X206608Y123814D01*
X206812Y124036D01*
X206997Y124240D01*
X207145Y124444D01*
Y124462D01*
X207182Y124481D01*
X207219Y124536D01*
X207256Y124610D01*
X207386Y124814D01*
X207534Y125055D01*
X207664Y125351D01*
X207793Y125666D01*
X207868Y126018D01*
X207904Y126351D01*
Y126369D01*
Y126388D01*
X207886Y126499D01*
X207868Y126684D01*
X207812Y126888D01*
X207738Y127147D01*
X207608Y127406D01*
X207442Y127666D01*
X207219Y127925D01*
X207182Y127962D01*
X207090Y128036D01*
X206960Y128128D01*
X206756Y128258D01*
X206497Y128369D01*
X206201Y128480D01*
X205849Y128554D01*
X205460Y128573D01*
X205349D01*
X205275Y128554D01*
X205053Y128536D01*
X204794Y128480D01*
X204516Y128406D01*
X204201Y128277D01*
X203905Y128110D01*
X203627Y127888D01*
X203590Y127851D01*
X203516Y127758D01*
X203405Y127610D01*
X203294Y127388D01*
X203164Y127129D01*
X203053Y126795D01*
X202979Y126425D01*
X202942Y125999D01*
X201331Y126166D01*
Y126184D01*
X201350Y126240D01*
Y126332D01*
X201368Y126462D01*
X201405Y126610D01*
X201442Y126777D01*
X201498Y126980D01*
X201553Y127184D01*
X201702Y127628D01*
X201924Y128073D01*
X202053Y128295D01*
X202220Y128517D01*
X202387Y128721D01*
X202572Y128906D01*
X202590Y128925D01*
X202627Y128943D01*
X202683Y128999D01*
X202775Y129054D01*
X202887Y129128D01*
X203016Y129202D01*
X203164Y129295D01*
X203349Y129388D01*
X203553Y129480D01*
X203775Y129573D01*
X204016Y129647D01*
X204275Y129721D01*
X204553Y129776D01*
X204849Y129832D01*
X205164Y129851D01*
X205497Y129869D01*
X205683D01*
X205812Y129851D01*
D02*
G37*
G36*
X28628Y40800D02*
X27054D01*
Y50817D01*
X27035Y50799D01*
X26943Y50725D01*
X26832Y50614D01*
X26646Y50484D01*
X26443Y50318D01*
X26184Y50132D01*
X25887Y49929D01*
X25554Y49725D01*
X25535D01*
X25517Y49707D01*
X25406Y49632D01*
X25221Y49540D01*
X24999Y49429D01*
X24739Y49299D01*
X24462Y49170D01*
X24184Y49040D01*
X23906Y48929D01*
Y50447D01*
X23925D01*
X23962Y50484D01*
X24036Y50503D01*
X24128Y50558D01*
X24239Y50614D01*
X24369Y50688D01*
X24684Y50873D01*
X25054Y51077D01*
X25424Y51336D01*
X25813Y51632D01*
X26202Y51947D01*
X26221Y51965D01*
X26239Y51984D01*
X26295Y52040D01*
X26369Y52095D01*
X26535Y52280D01*
X26758Y52502D01*
X26980Y52762D01*
X27220Y53058D01*
X27424Y53354D01*
X27609Y53669D01*
X28628D01*
Y40800D01*
D02*
G37*
G36*
X21980D02*
X20055D01*
X18555Y44689D01*
X13185D01*
X11796Y40800D01*
X10000D01*
X14888Y53614D01*
X16740D01*
X21980Y40800D01*
D02*
G37*
G36*
X28628Y91600D02*
X27054D01*
Y101617D01*
X27035Y101599D01*
X26943Y101525D01*
X26832Y101414D01*
X26646Y101284D01*
X26443Y101117D01*
X26184Y100932D01*
X25887Y100729D01*
X25554Y100525D01*
X25535D01*
X25517Y100506D01*
X25406Y100432D01*
X25221Y100340D01*
X24999Y100229D01*
X24739Y100099D01*
X24462Y99970D01*
X24184Y99840D01*
X23906Y99729D01*
Y101247D01*
X23925D01*
X23962Y101284D01*
X24036Y101303D01*
X24128Y101358D01*
X24239Y101414D01*
X24369Y101488D01*
X24684Y101673D01*
X25054Y101877D01*
X25424Y102136D01*
X25813Y102432D01*
X26202Y102747D01*
X26221Y102766D01*
X26239Y102784D01*
X26295Y102840D01*
X26369Y102895D01*
X26535Y103080D01*
X26758Y103302D01*
X26980Y103562D01*
X27220Y103858D01*
X27424Y104154D01*
X27609Y104469D01*
X28628D01*
Y91600D01*
D02*
G37*
G36*
X21980D02*
X20055D01*
X18555Y95489D01*
X13185D01*
X11796Y91600D01*
X10000D01*
X14888Y104413D01*
X16740D01*
X21980Y91600D01*
D02*
G37*
G36*
Y66200D02*
X20055D01*
X18555Y70089D01*
X13185D01*
X11796Y66200D01*
X10000D01*
X14888Y79014D01*
X16740D01*
X21980Y66200D01*
D02*
G37*
G36*
X207108Y28251D02*
X207256Y28232D01*
X207423Y28214D01*
X207608Y28195D01*
X207793Y28139D01*
X208238Y28028D01*
X208682Y27862D01*
X208904Y27751D01*
X209127Y27621D01*
X209330Y27454D01*
X209534Y27288D01*
X209552Y27269D01*
X209571Y27251D01*
X209627Y27195D01*
X209701Y27121D01*
X209775Y27010D01*
X209867Y26899D01*
X210052Y26621D01*
X210238Y26269D01*
X210404Y25862D01*
X210534Y25399D01*
X210552Y25158D01*
X210571Y24899D01*
Y24880D01*
Y24862D01*
Y24751D01*
X210552Y24584D01*
X210515Y24381D01*
X210460Y24121D01*
X210367Y23862D01*
X210256Y23603D01*
X210089Y23344D01*
X210071Y23307D01*
X209997Y23233D01*
X209886Y23121D01*
X209738Y22973D01*
X209534Y22807D01*
X209293Y22640D01*
X209016Y22473D01*
X208682Y22325D01*
X208701D01*
X208738Y22307D01*
X208793Y22288D01*
X208867Y22251D01*
X209090Y22159D01*
X209349Y22029D01*
X209627Y21844D01*
X209923Y21640D01*
X210201Y21381D01*
X210460Y21085D01*
Y21066D01*
X210478Y21048D01*
X210552Y20937D01*
X210664Y20751D01*
X210775Y20511D01*
X210886Y20214D01*
X210997Y19863D01*
X211071Y19474D01*
X211089Y19048D01*
Y19029D01*
Y18974D01*
Y18881D01*
X211071Y18770D01*
X211052Y18640D01*
X211034Y18474D01*
X210997Y18289D01*
X210941Y18085D01*
X210812Y17659D01*
X210719Y17418D01*
X210589Y17196D01*
X210460Y16955D01*
X210312Y16733D01*
X210126Y16511D01*
X209923Y16289D01*
X209904Y16270D01*
X209867Y16233D01*
X209812Y16178D01*
X209719Y16122D01*
X209590Y16030D01*
X209460Y15937D01*
X209293Y15844D01*
X209108Y15733D01*
X208904Y15622D01*
X208664Y15530D01*
X208405Y15437D01*
X208145Y15344D01*
X207849Y15289D01*
X207534Y15233D01*
X207219Y15196D01*
X206868Y15178D01*
X206682D01*
X206553Y15196D01*
X206386Y15215D01*
X206201Y15233D01*
X205997Y15270D01*
X205775Y15326D01*
X205275Y15455D01*
X205016Y15548D01*
X204775Y15641D01*
X204516Y15770D01*
X204257Y15919D01*
X204016Y16085D01*
X203794Y16289D01*
X203775Y16307D01*
X203738Y16344D01*
X203683Y16400D01*
X203609Y16493D01*
X203535Y16604D01*
X203424Y16733D01*
X203331Y16881D01*
X203220Y17067D01*
X203109Y17252D01*
X203016Y17474D01*
X202831Y17937D01*
X202757Y18214D01*
X202701Y18492D01*
X202664Y18788D01*
X202646Y19085D01*
Y19103D01*
Y19140D01*
Y19214D01*
X202664Y19289D01*
Y19400D01*
X202683Y19529D01*
X202720Y19826D01*
X202794Y20159D01*
X202905Y20492D01*
X203072Y20844D01*
X203275Y21177D01*
Y21196D01*
X203312Y21214D01*
X203386Y21307D01*
X203535Y21455D01*
X203738Y21640D01*
X203997Y21825D01*
X204312Y22029D01*
X204664Y22196D01*
X205090Y22325D01*
X205072D01*
X205053Y22344D01*
X204997Y22362D01*
X204923Y22399D01*
X204757Y22473D01*
X204534Y22584D01*
X204294Y22733D01*
X204053Y22918D01*
X203831Y23121D01*
X203627Y23344D01*
X203609Y23381D01*
X203553Y23455D01*
X203479Y23603D01*
X203405Y23788D01*
X203312Y24029D01*
X203238Y24306D01*
X203183Y24621D01*
X203164Y24955D01*
Y24973D01*
Y25010D01*
Y25084D01*
X203183Y25195D01*
X203201Y25306D01*
X203220Y25454D01*
X203294Y25769D01*
X203405Y26140D01*
X203590Y26528D01*
X203701Y26732D01*
X203831Y26936D01*
X203997Y27121D01*
X204164Y27306D01*
X204183Y27325D01*
X204220Y27343D01*
X204275Y27399D01*
X204349Y27454D01*
X204442Y27528D01*
X204571Y27602D01*
X204720Y27695D01*
X204868Y27788D01*
X205053Y27880D01*
X205257Y27973D01*
X205479Y28047D01*
X205720Y28121D01*
X206238Y28232D01*
X206534Y28251D01*
X206831Y28269D01*
X206997D01*
X207108Y28251D01*
D02*
G37*
G36*
X185536Y180595D02*
X185851Y180576D01*
X186185Y180558D01*
X186499Y180521D01*
X186777Y180484D01*
X186814D01*
X186944Y180447D01*
X187110Y180410D01*
X187333Y180354D01*
X187573Y180262D01*
X187833Y180151D01*
X188110Y180021D01*
X188351Y179873D01*
X188388Y179854D01*
X188462Y179799D01*
X188573Y179688D01*
X188721Y179558D01*
X188888Y179391D01*
X189055Y179169D01*
X189240Y178929D01*
X189388Y178651D01*
X189406Y178614D01*
X189443Y178521D01*
X189517Y178354D01*
X189592Y178132D01*
X189647Y177873D01*
X189721Y177577D01*
X189758Y177243D01*
X189777Y176892D01*
Y176873D01*
Y176818D01*
Y176744D01*
X189758Y176614D01*
X189740Y176484D01*
X189721Y176318D01*
X189684Y176133D01*
X189647Y175929D01*
X189517Y175503D01*
X189443Y175281D01*
X189332Y175040D01*
X189203Y174799D01*
X189073Y174577D01*
X188906Y174355D01*
X188721Y174133D01*
X188703Y174114D01*
X188666Y174077D01*
X188610Y174022D01*
X188518Y173966D01*
X188407Y173873D01*
X188258Y173781D01*
X188073Y173670D01*
X187870Y173577D01*
X187629Y173466D01*
X187351Y173355D01*
X187055Y173262D01*
X186703Y173188D01*
X186333Y173114D01*
X185925Y173059D01*
X185462Y173022D01*
X184981Y173003D01*
X181703D01*
Y167800D01*
X180000D01*
Y180613D01*
X185259D01*
X185536Y180595D01*
D02*
G37*
G36*
X199702Y230006D02*
X199683Y229988D01*
X199646Y229951D01*
X199572Y229877D01*
X199498Y229765D01*
X199387Y229636D01*
X199239Y229488D01*
X199091Y229303D01*
X198924Y229080D01*
X198757Y228858D01*
X198554Y228599D01*
X198350Y228303D01*
X198146Y228006D01*
X197924Y227673D01*
X197702Y227321D01*
X197480Y226933D01*
X197257Y226544D01*
X197239Y226525D01*
X197202Y226451D01*
X197146Y226340D01*
X197054Y226173D01*
X196961Y225970D01*
X196850Y225747D01*
X196721Y225488D01*
X196591Y225192D01*
X196443Y224859D01*
X196276Y224525D01*
X196128Y224155D01*
X195980Y223766D01*
X195684Y222970D01*
X195406Y222118D01*
Y222100D01*
X195387Y222044D01*
X195369Y221952D01*
X195332Y221840D01*
X195295Y221692D01*
X195258Y221507D01*
X195202Y221303D01*
X195165Y221081D01*
X195110Y220822D01*
X195054Y220544D01*
X194961Y219952D01*
X194869Y219304D01*
X194813Y218600D01*
X193202D01*
Y218619D01*
Y218674D01*
Y218748D01*
X193221Y218859D01*
Y219007D01*
X193239Y219193D01*
X193258Y219396D01*
X193276Y219618D01*
X193313Y219878D01*
X193351Y220137D01*
X193406Y220452D01*
X193462Y220766D01*
X193517Y221100D01*
X193591Y221470D01*
X193776Y222229D01*
Y222248D01*
X193795Y222322D01*
X193832Y222433D01*
X193887Y222600D01*
X193943Y222785D01*
X194017Y223007D01*
X194091Y223266D01*
X194202Y223544D01*
X194313Y223859D01*
X194424Y224174D01*
X194702Y224877D01*
X195035Y225618D01*
X195406Y226358D01*
X195424Y226377D01*
X195461Y226451D01*
X195517Y226544D01*
X195591Y226692D01*
X195684Y226858D01*
X195813Y227062D01*
X195943Y227284D01*
X196091Y227525D01*
X196443Y228062D01*
X196813Y228617D01*
X197239Y229191D01*
X197683Y229729D01*
X191406D01*
Y231247D01*
X199702D01*
Y230006D01*
D02*
G37*
G36*
X27220Y244000D02*
X25647D01*
Y254018D01*
X25628Y253999D01*
X25535Y253925D01*
X25424Y253814D01*
X25239Y253684D01*
X25036Y253517D01*
X24776Y253332D01*
X24480Y253129D01*
X24147Y252925D01*
X24128D01*
X24110Y252906D01*
X23999Y252832D01*
X23813Y252740D01*
X23591Y252629D01*
X23332Y252499D01*
X23054Y252369D01*
X22777Y252240D01*
X22499Y252129D01*
Y253647D01*
X22517D01*
X22554Y253684D01*
X22628Y253703D01*
X22721Y253758D01*
X22832Y253814D01*
X22962Y253888D01*
X23276Y254073D01*
X23647Y254277D01*
X24017Y254536D01*
X24406Y254832D01*
X24795Y255147D01*
X24813Y255166D01*
X24832Y255184D01*
X24887Y255240D01*
X24961Y255295D01*
X25128Y255480D01*
X25350Y255702D01*
X25573Y255962D01*
X25813Y256258D01*
X26017Y256554D01*
X26202Y256869D01*
X27220D01*
Y244000D01*
D02*
G37*
G36*
X2025Y555278D02*
Y552085D01*
X-18708D01*
Y547734D01*
X-22318D01*
Y552085D01*
X-30000D01*
Y556018D01*
X-22318D01*
Y569948D01*
X-18708D01*
X2025Y555278D01*
D02*
G37*
G36*
X-21300Y539589D02*
X-21438D01*
X-21577Y539543D01*
X-21809Y539497D01*
X-22318Y539358D01*
X-23012Y539173D01*
X-23706Y538895D01*
X-24493Y538525D01*
X-25187Y538062D01*
X-25835Y537507D01*
X-25881Y537414D01*
X-26066Y537229D01*
X-26298Y536859D01*
X-26575Y536350D01*
X-26853Y535794D01*
X-27084Y535100D01*
X-27269Y534314D01*
X-27316Y533434D01*
Y533388D01*
Y533296D01*
Y533157D01*
X-27269Y532971D01*
X-27223Y532416D01*
X-27038Y531768D01*
X-26807Y530981D01*
X-26437Y530195D01*
X-25881Y529362D01*
X-25557Y528992D01*
X-25187Y528621D01*
X-25141Y528575D01*
X-25094Y528529D01*
X-24956Y528436D01*
X-24817Y528297D01*
X-24308Y527973D01*
X-23660Y527603D01*
X-22873Y527279D01*
X-21901Y526955D01*
X-20744Y526724D01*
X-20143Y526631D01*
X-19171D01*
X-18939Y526678D01*
X-18662D01*
X-18338Y526724D01*
X-17597Y526863D01*
X-16718Y527094D01*
X-15839Y527418D01*
X-15006Y527881D01*
X-14219Y528529D01*
X-14173D01*
X-14126Y528621D01*
X-13895Y528853D01*
X-13571Y529269D01*
X-13201Y529824D01*
X-12877Y530565D01*
X-12553Y531398D01*
X-12321Y532370D01*
X-12229Y532925D01*
Y533481D01*
Y533573D01*
Y533805D01*
X-12275Y534175D01*
X-12321Y534637D01*
X-12460Y535193D01*
X-12599Y535748D01*
X-12831Y536350D01*
X-13108Y536951D01*
X-13154Y536998D01*
X-13247Y537183D01*
X-13478Y537461D01*
X-13710Y537831D01*
X-14034Y538201D01*
X-14450Y538571D01*
X-14867Y538988D01*
X-15376Y539312D01*
X-14867Y543014D01*
X1608Y539913D01*
Y523993D01*
X-2140D01*
Y536813D01*
X-10794Y538525D01*
X-10748Y538479D01*
X-10702Y538386D01*
X-10609Y538247D01*
X-10470Y538016D01*
X-10331Y537738D01*
X-10146Y537414D01*
X-9776Y536674D01*
X-9406Y535748D01*
X-9082Y534730D01*
X-8851Y533619D01*
X-8758Y533064D01*
Y532462D01*
Y532416D01*
Y532277D01*
Y532046D01*
X-8804Y531768D01*
X-8851Y531398D01*
X-8897Y530981D01*
X-8989Y530519D01*
X-9128Y530010D01*
X-9452Y528899D01*
X-9684Y528297D01*
X-10007Y527696D01*
X-10331Y527094D01*
X-10702Y526493D01*
X-11164Y525937D01*
X-11674Y525382D01*
X-11720Y525336D01*
X-11812Y525243D01*
X-11951Y525104D01*
X-12183Y524919D01*
X-12507Y524688D01*
X-12831Y524456D01*
X-13247Y524179D01*
X-13710Y523901D01*
X-14219Y523670D01*
X-14774Y523392D01*
X-15422Y523160D01*
X-16070Y522929D01*
X-16764Y522744D01*
X-17551Y522605D01*
X-18338Y522513D01*
X-19171Y522466D01*
X-19587D01*
X-19911Y522513D01*
X-20281Y522559D01*
X-20698Y522605D01*
X-21207Y522698D01*
X-21716Y522790D01*
X-22919Y523068D01*
X-24169Y523531D01*
X-24817Y523808D01*
X-25418Y524179D01*
X-26066Y524549D01*
X-26668Y525011D01*
X-26714Y525058D01*
X-26853Y525150D01*
X-27038Y525336D01*
X-27269Y525567D01*
X-27547Y525891D01*
X-27917Y526261D01*
X-28241Y526724D01*
X-28612Y527233D01*
X-28982Y527788D01*
X-29306Y528436D01*
X-29630Y529130D01*
X-29954Y529871D01*
X-30185Y530658D01*
X-30370Y531537D01*
X-30509Y532462D01*
X-30555Y533434D01*
Y533481D01*
Y533619D01*
Y533851D01*
X-30509Y534175D01*
X-30463Y534545D01*
X-30417Y534962D01*
X-30370Y535471D01*
X-30231Y535980D01*
X-29954Y537137D01*
X-29537Y538294D01*
X-29260Y538895D01*
X-28936Y539497D01*
X-28565Y540052D01*
X-28149Y540607D01*
X-28103Y540654D01*
X-28056Y540746D01*
X-27871Y540839D01*
X-27686Y541024D01*
X-27455Y541255D01*
X-27177Y541487D01*
X-26807Y541764D01*
X-26390Y541996D01*
X-25974Y542273D01*
X-25465Y542551D01*
X-24354Y543060D01*
X-23058Y543477D01*
X-22364Y543616D01*
X-21623Y543708D01*
X-21300Y539589D01*
D02*
G37*
G36*
X15537Y256795D02*
X15851Y256776D01*
X16185Y256758D01*
X16499Y256721D01*
X16777Y256684D01*
X16814D01*
X16944Y256647D01*
X17110Y256610D01*
X17333Y256554D01*
X17573Y256462D01*
X17832Y256351D01*
X18110Y256221D01*
X18351Y256073D01*
X18388Y256054D01*
X18462Y255999D01*
X18573Y255888D01*
X18721Y255758D01*
X18888Y255591D01*
X19055Y255369D01*
X19240Y255128D01*
X19388Y254851D01*
X19406Y254814D01*
X19444Y254721D01*
X19518Y254555D01*
X19592Y254332D01*
X19647Y254073D01*
X19721Y253777D01*
X19758Y253444D01*
X19777Y253092D01*
Y253073D01*
Y253018D01*
Y252943D01*
X19758Y252814D01*
X19740Y252684D01*
X19721Y252518D01*
X19684Y252332D01*
X19647Y252129D01*
X19518Y251703D01*
X19444Y251481D01*
X19332Y251240D01*
X19203Y250999D01*
X19073Y250777D01*
X18907Y250555D01*
X18721Y250333D01*
X18703Y250314D01*
X18666Y250277D01*
X18610Y250222D01*
X18518Y250166D01*
X18406Y250073D01*
X18258Y249981D01*
X18073Y249870D01*
X17870Y249777D01*
X17629Y249666D01*
X17351Y249555D01*
X17055Y249462D01*
X16703Y249388D01*
X16333Y249314D01*
X15925Y249259D01*
X15462Y249222D01*
X14981Y249203D01*
X11703D01*
Y244000D01*
X10000D01*
Y256814D01*
X15259D01*
X15537Y256795D01*
D02*
G37*
G36*
X-14377Y295295D02*
X-21339D01*
Y291333D01*
X-15322D01*
Y289814D01*
X-21339D01*
Y284000D01*
X-23043D01*
Y296814D01*
X-14377D01*
Y295295D01*
D02*
G37*
G36*
X-25320D02*
X-32283D01*
Y291333D01*
X-26265D01*
Y289814D01*
X-32283D01*
Y284000D01*
X-33986D01*
Y296814D01*
X-25320D01*
Y295295D01*
D02*
G37*
G36*
X-55484Y284000D02*
X-57243D01*
X-63946Y294055D01*
Y284000D01*
X-65576D01*
Y296814D01*
X-63835D01*
X-57113Y286740D01*
Y296814D01*
X-55484D01*
Y284000D01*
D02*
G37*
G36*
X185536Y205995D02*
X185851Y205976D01*
X186185Y205958D01*
X186499Y205921D01*
X186777Y205884D01*
X186814D01*
X186944Y205847D01*
X187110Y205810D01*
X187333Y205754D01*
X187573Y205662D01*
X187833Y205551D01*
X188110Y205421D01*
X188351Y205273D01*
X188388Y205254D01*
X188462Y205199D01*
X188573Y205088D01*
X188721Y204958D01*
X188888Y204791D01*
X189055Y204569D01*
X189240Y204328D01*
X189388Y204051D01*
X189406Y204014D01*
X189443Y203921D01*
X189517Y203755D01*
X189592Y203532D01*
X189647Y203273D01*
X189721Y202977D01*
X189758Y202644D01*
X189777Y202292D01*
Y202273D01*
Y202218D01*
Y202143D01*
X189758Y202014D01*
X189740Y201884D01*
X189721Y201718D01*
X189684Y201532D01*
X189647Y201329D01*
X189517Y200903D01*
X189443Y200681D01*
X189332Y200440D01*
X189203Y200199D01*
X189073Y199977D01*
X188906Y199755D01*
X188721Y199533D01*
X188703Y199514D01*
X188666Y199477D01*
X188610Y199422D01*
X188518Y199366D01*
X188407Y199273D01*
X188258Y199181D01*
X188073Y199070D01*
X187870Y198977D01*
X187629Y198866D01*
X187351Y198755D01*
X187055Y198662D01*
X186703Y198588D01*
X186333Y198514D01*
X185925Y198459D01*
X185462Y198422D01*
X184981Y198403D01*
X181703D01*
Y193200D01*
X180000D01*
Y206014D01*
X185259D01*
X185536Y205995D01*
D02*
G37*
G36*
X252025Y584804D02*
Y584757D01*
Y584665D01*
Y584480D01*
Y584295D01*
Y584017D01*
Y583693D01*
X251979Y582999D01*
X251932Y582212D01*
X251886Y581379D01*
X251793Y580592D01*
X251701Y579898D01*
Y579852D01*
Y579806D01*
X251608Y579482D01*
X251516Y579065D01*
X251377Y578510D01*
X251146Y577908D01*
X250868Y577260D01*
X250544Y576566D01*
X250174Y575965D01*
X250128Y575872D01*
X249989Y575687D01*
X249711Y575409D01*
X249387Y575039D01*
X248971Y574622D01*
X248415Y574206D01*
X247814Y573743D01*
X247119Y573373D01*
X247027Y573327D01*
X246795Y573234D01*
X246379Y573049D01*
X245824Y572864D01*
X245176Y572725D01*
X244435Y572540D01*
X243602Y572447D01*
X242723Y572401D01*
X242353D01*
X242029Y572447D01*
X241705Y572494D01*
X241288Y572540D01*
X240826Y572632D01*
X240316Y572725D01*
X239252Y573049D01*
X238697Y573234D01*
X238095Y573512D01*
X237493Y573836D01*
X236938Y574160D01*
X236383Y574576D01*
X235827Y575039D01*
X235781Y575085D01*
X235688Y575178D01*
X235550Y575317D01*
X235411Y575548D01*
X235179Y575826D01*
X234948Y576196D01*
X234670Y576659D01*
X234439Y577168D01*
X234161Y577769D01*
X233884Y578464D01*
X233652Y579204D01*
X233467Y580083D01*
X233282Y581009D01*
X233143Y582027D01*
X233051Y583184D01*
X233004Y584387D01*
Y592579D01*
X220000D01*
Y596836D01*
X252025D01*
Y584804D01*
D02*
G37*
G36*
X197220Y244000D02*
X195646D01*
Y254018D01*
X195628Y253999D01*
X195535Y253925D01*
X195424Y253814D01*
X195239Y253684D01*
X195035Y253517D01*
X194776Y253332D01*
X194480Y253129D01*
X194147Y252925D01*
X194128D01*
X194110Y252906D01*
X193999Y252832D01*
X193813Y252740D01*
X193591Y252629D01*
X193332Y252499D01*
X193054Y252369D01*
X192776Y252240D01*
X192499Y252129D01*
Y253647D01*
X192517D01*
X192554Y253684D01*
X192628Y253703D01*
X192721Y253758D01*
X192832Y253814D01*
X192962Y253888D01*
X193276Y254073D01*
X193647Y254277D01*
X194017Y254536D01*
X194406Y254832D01*
X194795Y255147D01*
X194813Y255166D01*
X194832Y255184D01*
X194887Y255240D01*
X194961Y255295D01*
X195128Y255480D01*
X195350Y255702D01*
X195572Y255962D01*
X195813Y256258D01*
X196017Y256554D01*
X196202Y256869D01*
X197220D01*
Y244000D01*
D02*
G37*
G36*
X252025Y624742D02*
X238882D01*
Y608175D01*
X252025D01*
Y603917D01*
X220000D01*
Y608175D01*
X235087D01*
Y624742D01*
X220000D01*
Y629000D01*
X252025D01*
Y624742D01*
D02*
G37*
G36*
X185536Y256795D02*
X185851Y256776D01*
X186185Y256758D01*
X186499Y256721D01*
X186777Y256684D01*
X186814D01*
X186944Y256647D01*
X187110Y256610D01*
X187333Y256554D01*
X187573Y256462D01*
X187833Y256351D01*
X188110Y256221D01*
X188351Y256073D01*
X188388Y256054D01*
X188462Y255999D01*
X188573Y255888D01*
X188721Y255758D01*
X188888Y255591D01*
X189055Y255369D01*
X189240Y255128D01*
X189388Y254851D01*
X189406Y254814D01*
X189443Y254721D01*
X189517Y254555D01*
X189592Y254332D01*
X189647Y254073D01*
X189721Y253777D01*
X189758Y253444D01*
X189777Y253092D01*
Y253073D01*
Y253018D01*
Y252943D01*
X189758Y252814D01*
X189740Y252684D01*
X189721Y252518D01*
X189684Y252332D01*
X189647Y252129D01*
X189517Y251703D01*
X189443Y251481D01*
X189332Y251240D01*
X189203Y250999D01*
X189073Y250777D01*
X188906Y250555D01*
X188721Y250333D01*
X188703Y250314D01*
X188666Y250277D01*
X188610Y250222D01*
X188518Y250166D01*
X188407Y250073D01*
X188258Y249981D01*
X188073Y249870D01*
X187870Y249777D01*
X187629Y249666D01*
X187351Y249555D01*
X187055Y249462D01*
X186703Y249388D01*
X186333Y249314D01*
X185925Y249259D01*
X185462Y249222D01*
X184981Y249203D01*
X181703D01*
Y244000D01*
X180000D01*
Y256814D01*
X185259D01*
X185536Y256795D01*
D02*
G37*
G36*
X252025Y555278D02*
Y552085D01*
X231292D01*
Y547734D01*
X227682D01*
Y552085D01*
X220000D01*
Y556018D01*
X227682D01*
Y569948D01*
X231292D01*
X252025Y555278D01*
D02*
G37*
G36*
X2025Y584804D02*
Y584757D01*
Y584665D01*
Y584480D01*
Y584295D01*
Y584017D01*
Y583693D01*
X1979Y582999D01*
X1932Y582212D01*
X1886Y581379D01*
X1794Y580592D01*
X1701Y579898D01*
Y579852D01*
Y579806D01*
X1608Y579482D01*
X1516Y579065D01*
X1377Y578510D01*
X1146Y577908D01*
X868Y577260D01*
X544Y576566D01*
X174Y575965D01*
X127Y575872D01*
X-11Y575687D01*
X-289Y575409D01*
X-613Y575039D01*
X-1029Y574622D01*
X-1585Y574206D01*
X-2186Y573743D01*
X-2881Y573373D01*
X-2973Y573327D01*
X-3205Y573234D01*
X-3621Y573049D01*
X-4176Y572864D01*
X-4824Y572725D01*
X-5565Y572540D01*
X-6398Y572447D01*
X-7277Y572401D01*
X-7647D01*
X-7971Y572447D01*
X-8295Y572494D01*
X-8712Y572540D01*
X-9175Y572632D01*
X-9684Y572725D01*
X-10748Y573049D01*
X-11303Y573234D01*
X-11905Y573512D01*
X-12507Y573836D01*
X-13062Y574160D01*
X-13617Y574576D01*
X-14173Y575039D01*
X-14219Y575085D01*
X-14311Y575178D01*
X-14450Y575317D01*
X-14589Y575548D01*
X-14820Y575826D01*
X-15052Y576196D01*
X-15330Y576659D01*
X-15561Y577168D01*
X-15839Y577769D01*
X-16116Y578464D01*
X-16348Y579204D01*
X-16533Y580083D01*
X-16718Y581009D01*
X-16857Y582027D01*
X-16949Y583184D01*
X-16996Y584387D01*
Y592579D01*
X-30000D01*
Y596836D01*
X2025D01*
Y584804D01*
D02*
G37*
G36*
X185536Y231395D02*
X185851Y231376D01*
X186185Y231358D01*
X186499Y231321D01*
X186777Y231284D01*
X186814D01*
X186944Y231247D01*
X187110Y231210D01*
X187333Y231154D01*
X187573Y231062D01*
X187833Y230951D01*
X188110Y230821D01*
X188351Y230673D01*
X188388Y230654D01*
X188462Y230599D01*
X188573Y230488D01*
X188721Y230358D01*
X188888Y230191D01*
X189055Y229969D01*
X189240Y229729D01*
X189388Y229451D01*
X189406Y229414D01*
X189443Y229321D01*
X189517Y229154D01*
X189592Y228932D01*
X189647Y228673D01*
X189721Y228377D01*
X189758Y228043D01*
X189777Y227692D01*
Y227673D01*
Y227618D01*
Y227544D01*
X189758Y227414D01*
X189740Y227284D01*
X189721Y227118D01*
X189684Y226933D01*
X189647Y226729D01*
X189517Y226303D01*
X189443Y226081D01*
X189332Y225840D01*
X189203Y225599D01*
X189073Y225377D01*
X188906Y225155D01*
X188721Y224933D01*
X188703Y224914D01*
X188666Y224877D01*
X188610Y224822D01*
X188518Y224766D01*
X188407Y224673D01*
X188258Y224581D01*
X188073Y224470D01*
X187870Y224377D01*
X187629Y224266D01*
X187351Y224155D01*
X187055Y224062D01*
X186703Y223988D01*
X186333Y223914D01*
X185925Y223859D01*
X185462Y223822D01*
X184981Y223803D01*
X181703D01*
Y218600D01*
X180000D01*
Y231413D01*
X185259D01*
X185536Y231395D01*
D02*
G37*
G36*
X228700Y539589D02*
X228562D01*
X228423Y539543D01*
X228191Y539497D01*
X227682Y539358D01*
X226988Y539173D01*
X226294Y538895D01*
X225507Y538525D01*
X224813Y538062D01*
X224165Y537507D01*
X224119Y537414D01*
X223934Y537229D01*
X223702Y536859D01*
X223425Y536350D01*
X223147Y535794D01*
X222916Y535100D01*
X222730Y534314D01*
X222684Y533434D01*
Y533388D01*
Y533296D01*
Y533157D01*
X222730Y532971D01*
X222777Y532416D01*
X222962Y531768D01*
X223193Y530981D01*
X223563Y530195D01*
X224119Y529362D01*
X224443Y528992D01*
X224813Y528621D01*
X224859Y528575D01*
X224905Y528529D01*
X225044Y528436D01*
X225183Y528297D01*
X225692Y527973D01*
X226340Y527603D01*
X227127Y527279D01*
X228099Y526955D01*
X229256Y526724D01*
X229857Y526631D01*
X230829D01*
X231061Y526678D01*
X231338D01*
X231662Y526724D01*
X232403Y526863D01*
X233282Y527094D01*
X234161Y527418D01*
X234994Y527881D01*
X235781Y528529D01*
X235827D01*
X235874Y528621D01*
X236105Y528853D01*
X236429Y529269D01*
X236799Y529824D01*
X237123Y530565D01*
X237447Y531398D01*
X237679Y532370D01*
X237771Y532925D01*
Y533481D01*
Y533573D01*
Y533805D01*
X237725Y534175D01*
X237679Y534637D01*
X237540Y535193D01*
X237401Y535748D01*
X237169Y536350D01*
X236892Y536951D01*
X236845Y536998D01*
X236753Y537183D01*
X236521Y537461D01*
X236290Y537831D01*
X235966Y538201D01*
X235550Y538571D01*
X235133Y538988D01*
X234624Y539312D01*
X235133Y543014D01*
X251608Y539913D01*
Y523993D01*
X247860D01*
Y536813D01*
X239206Y538525D01*
X239252Y538479D01*
X239298Y538386D01*
X239391Y538247D01*
X239530Y538016D01*
X239669Y537738D01*
X239854Y537414D01*
X240224Y536674D01*
X240594Y535748D01*
X240918Y534730D01*
X241149Y533619D01*
X241242Y533064D01*
Y532462D01*
Y532416D01*
Y532277D01*
Y532046D01*
X241196Y531768D01*
X241149Y531398D01*
X241103Y530981D01*
X241011Y530519D01*
X240872Y530010D01*
X240548Y528899D01*
X240316Y528297D01*
X239992Y527696D01*
X239669Y527094D01*
X239298Y526493D01*
X238836Y525937D01*
X238326Y525382D01*
X238280Y525336D01*
X238188Y525243D01*
X238049Y525104D01*
X237817Y524919D01*
X237493Y524688D01*
X237169Y524456D01*
X236753Y524179D01*
X236290Y523901D01*
X235781Y523670D01*
X235226Y523392D01*
X234578Y523160D01*
X233930Y522929D01*
X233236Y522744D01*
X232449Y522605D01*
X231662Y522513D01*
X230829Y522466D01*
X230413D01*
X230089Y522513D01*
X229718Y522559D01*
X229302Y522605D01*
X228793Y522698D01*
X228284Y522790D01*
X227081Y523068D01*
X225831Y523531D01*
X225183Y523808D01*
X224582Y524179D01*
X223934Y524549D01*
X223332Y525011D01*
X223286Y525058D01*
X223147Y525150D01*
X222962Y525336D01*
X222730Y525567D01*
X222453Y525891D01*
X222083Y526261D01*
X221759Y526724D01*
X221388Y527233D01*
X221018Y527788D01*
X220694Y528436D01*
X220370Y529130D01*
X220046Y529871D01*
X219815Y530658D01*
X219630Y531537D01*
X219491Y532462D01*
X219445Y533434D01*
Y533481D01*
Y533619D01*
Y533851D01*
X219491Y534175D01*
X219537Y534545D01*
X219583Y534962D01*
X219630Y535471D01*
X219769Y535980D01*
X220046Y537137D01*
X220463Y538294D01*
X220741Y538895D01*
X221064Y539497D01*
X221435Y540052D01*
X221851Y540607D01*
X221897Y540654D01*
X221944Y540746D01*
X222129Y540839D01*
X222314Y541024D01*
X222545Y541255D01*
X222823Y541487D01*
X223193Y541764D01*
X223610Y541996D01*
X224026Y542273D01*
X224535Y542551D01*
X225646Y543060D01*
X226942Y543477D01*
X227636Y543616D01*
X228377Y543708D01*
X228700Y539589D01*
D02*
G37*
G36*
X2025Y624742D02*
X-11118D01*
Y608175D01*
X2025D01*
Y603917D01*
X-30000D01*
Y608175D01*
X-14913D01*
Y624742D01*
X-30000D01*
Y629000D01*
X2025D01*
Y624742D01*
D02*
G37*
G36*
X277922Y287017D02*
X278089D01*
X278255Y286999D01*
X278477Y286962D01*
X278700Y286925D01*
X279181Y286832D01*
X279737Y286684D01*
X280274Y286462D01*
X280551Y286332D01*
X280829Y286184D01*
X280848Y286165D01*
X280885Y286147D01*
X280959Y286091D01*
X281070Y286036D01*
X281181Y285943D01*
X281329Y285832D01*
X281644Y285573D01*
X281977Y285240D01*
X282348Y284832D01*
X282699Y284351D01*
X282995Y283814D01*
Y283795D01*
X283033Y283740D01*
X283070Y283666D01*
X283107Y283555D01*
X283181Y283406D01*
X283236Y283240D01*
X283310Y283036D01*
X283384Y282814D01*
X283440Y282573D01*
X283514Y282314D01*
X283588Y282018D01*
X283644Y281721D01*
X283718Y281073D01*
X283755Y280370D01*
Y280351D01*
Y280277D01*
Y280184D01*
X283736Y280036D01*
Y279870D01*
X283718Y279666D01*
X283681Y279444D01*
X283662Y279203D01*
X283570Y278666D01*
X283421Y278074D01*
X283218Y277481D01*
X283107Y277185D01*
X282959Y276889D01*
Y276870D01*
X282922Y276814D01*
X282884Y276740D01*
X282810Y276629D01*
X282736Y276500D01*
X282644Y276370D01*
X282384Y276018D01*
X282070Y275648D01*
X281699Y275259D01*
X281255Y274889D01*
X280737Y274555D01*
X280718D01*
X280681Y274519D01*
X280588Y274481D01*
X280477Y274426D01*
X280348Y274370D01*
X280200Y274315D01*
X280014Y274241D01*
X279811Y274167D01*
X279589Y274093D01*
X279348Y274018D01*
X278811Y273907D01*
X278237Y273815D01*
X277626Y273778D01*
X277441D01*
X277330Y273796D01*
X277163D01*
X276978Y273833D01*
X276774Y273852D01*
X276533Y273889D01*
X276033Y274000D01*
X275496Y274148D01*
X274941Y274370D01*
X274663Y274500D01*
X274385Y274648D01*
X274367Y274667D01*
X274330Y274685D01*
X274256Y274741D01*
X274145Y274815D01*
X274034Y274889D01*
X273904Y275000D01*
X273589Y275278D01*
X273237Y275611D01*
X272867Y276018D01*
X272534Y276481D01*
X272219Y277018D01*
Y277037D01*
X272182Y277092D01*
X272145Y277166D01*
X272108Y277277D01*
X272052Y277426D01*
X271997Y277592D01*
X271923Y277777D01*
X271867Y277981D01*
X271793Y278222D01*
X271719Y278463D01*
X271608Y279018D01*
X271534Y279592D01*
X271497Y280222D01*
Y280240D01*
Y280259D01*
Y280370D01*
X271515Y280536D01*
Y280758D01*
X271552Y281018D01*
X271589Y281333D01*
X271645Y281684D01*
X271719Y282055D01*
X271793Y282444D01*
X271904Y282851D01*
X272052Y283258D01*
X272219Y283684D01*
X272404Y284091D01*
X272645Y284499D01*
X272904Y284869D01*
X273200Y285221D01*
X273219Y285240D01*
X273274Y285295D01*
X273385Y285388D01*
X273515Y285499D01*
X273682Y285647D01*
X273885Y285795D01*
X274126Y285962D01*
X274404Y286128D01*
X274700Y286295D01*
X275033Y286462D01*
X275404Y286610D01*
X275793Y286758D01*
X276218Y286869D01*
X276663Y286962D01*
X277126Y287017D01*
X277626Y287036D01*
X277792D01*
X277922Y287017D01*
D02*
G37*
G36*
X246425D02*
X246592D01*
X246759Y286999D01*
X246981Y286962D01*
X247203Y286925D01*
X247684Y286832D01*
X248240Y286684D01*
X248777Y286462D01*
X249055Y286332D01*
X249332Y286184D01*
X249351Y286165D01*
X249388Y286147D01*
X249462Y286091D01*
X249573Y286036D01*
X249684Y285943D01*
X249832Y285832D01*
X250147Y285573D01*
X250480Y285240D01*
X250851Y284832D01*
X251203Y284351D01*
X251499Y283814D01*
Y283795D01*
X251536Y283740D01*
X251573Y283666D01*
X251610Y283555D01*
X251684Y283406D01*
X251740Y283240D01*
X251814Y283036D01*
X251888Y282814D01*
X251943Y282573D01*
X252017Y282314D01*
X252091Y282018D01*
X252147Y281721D01*
X252221Y281073D01*
X252258Y280370D01*
Y280351D01*
Y280277D01*
Y280184D01*
X252239Y280036D01*
Y279870D01*
X252221Y279666D01*
X252184Y279444D01*
X252165Y279203D01*
X252073Y278666D01*
X251925Y278074D01*
X251721Y277481D01*
X251610Y277185D01*
X251462Y276889D01*
Y276870D01*
X251425Y276814D01*
X251388Y276740D01*
X251314Y276629D01*
X251240Y276500D01*
X251147Y276370D01*
X250888Y276018D01*
X250573Y275648D01*
X250203Y275259D01*
X249758Y274889D01*
X249240Y274555D01*
X249221D01*
X249184Y274519D01*
X249092Y274481D01*
X248981Y274426D01*
X248851Y274370D01*
X248703Y274315D01*
X248518Y274241D01*
X248314Y274167D01*
X248092Y274093D01*
X247851Y274018D01*
X247314Y273907D01*
X246740Y273815D01*
X246129Y273778D01*
X245944D01*
X245833Y273796D01*
X245666D01*
X245481Y273833D01*
X245277Y273852D01*
X245037Y273889D01*
X244537Y274000D01*
X244000Y274148D01*
X243444Y274370D01*
X243166Y274500D01*
X242889Y274648D01*
X242870Y274667D01*
X242833Y274685D01*
X242759Y274741D01*
X242648Y274815D01*
X242537Y274889D01*
X242407Y275000D01*
X242092Y275278D01*
X241741Y275611D01*
X241370Y276018D01*
X241037Y276481D01*
X240722Y277018D01*
Y277037D01*
X240685Y277092D01*
X240648Y277166D01*
X240611Y277277D01*
X240555Y277426D01*
X240500Y277592D01*
X240426Y277777D01*
X240370Y277981D01*
X240296Y278222D01*
X240222Y278463D01*
X240111Y279018D01*
X240037Y279592D01*
X240000Y280222D01*
Y280240D01*
Y280259D01*
Y280370D01*
X240019Y280536D01*
Y280758D01*
X240056Y281018D01*
X240093Y281333D01*
X240148Y281684D01*
X240222Y282055D01*
X240296Y282444D01*
X240407Y282851D01*
X240555Y283258D01*
X240722Y283684D01*
X240907Y284091D01*
X241148Y284499D01*
X241407Y284869D01*
X241703Y285221D01*
X241722Y285240D01*
X241778Y285295D01*
X241889Y285388D01*
X242018Y285499D01*
X242185Y285647D01*
X242389Y285795D01*
X242629Y285962D01*
X242907Y286128D01*
X243203Y286295D01*
X243537Y286462D01*
X243907Y286610D01*
X244296Y286758D01*
X244722Y286869D01*
X245166Y286962D01*
X245629Y287017D01*
X246129Y287036D01*
X246296D01*
X246425Y287017D01*
D02*
G37*
G36*
X305623Y285295D02*
X298661D01*
Y281333D01*
X304678D01*
Y279814D01*
X298661D01*
Y274000D01*
X296957D01*
Y286814D01*
X305623D01*
Y285295D01*
D02*
G37*
G36*
X294680D02*
X287717D01*
Y281333D01*
X293735D01*
Y279814D01*
X287717D01*
Y274000D01*
X286014D01*
Y286814D01*
X294680D01*
Y285295D01*
D02*
G37*
G36*
X268997Y270223D02*
X267627D01*
Y287036D01*
X268997D01*
Y270223D01*
D02*
G37*
G36*
X15537Y231395D02*
X15851Y231376D01*
X16185Y231358D01*
X16499Y231321D01*
X16777Y231284D01*
X16814D01*
X16944Y231247D01*
X17110Y231210D01*
X17333Y231154D01*
X17573Y231062D01*
X17832Y230951D01*
X18110Y230821D01*
X18351Y230673D01*
X18388Y230654D01*
X18462Y230599D01*
X18573Y230488D01*
X18721Y230358D01*
X18888Y230191D01*
X19055Y229969D01*
X19240Y229729D01*
X19388Y229451D01*
X19406Y229414D01*
X19444Y229321D01*
X19518Y229154D01*
X19592Y228932D01*
X19647Y228673D01*
X19721Y228377D01*
X19758Y228043D01*
X19777Y227692D01*
Y227673D01*
Y227618D01*
Y227544D01*
X19758Y227414D01*
X19740Y227284D01*
X19721Y227118D01*
X19684Y226933D01*
X19647Y226729D01*
X19518Y226303D01*
X19444Y226081D01*
X19332Y225840D01*
X19203Y225599D01*
X19073Y225377D01*
X18907Y225155D01*
X18721Y224933D01*
X18703Y224914D01*
X18666Y224877D01*
X18610Y224822D01*
X18518Y224766D01*
X18406Y224673D01*
X18258Y224581D01*
X18073Y224470D01*
X17870Y224377D01*
X17629Y224266D01*
X17351Y224155D01*
X17055Y224062D01*
X16703Y223988D01*
X16333Y223914D01*
X15925Y223859D01*
X15462Y223822D01*
X14981Y223803D01*
X11703D01*
Y218600D01*
X10000D01*
Y231413D01*
X15259D01*
X15537Y231395D01*
D02*
G37*
G36*
X35664Y206050D02*
X35905Y206014D01*
X36201Y205958D01*
X36534Y205865D01*
X36868Y205754D01*
X37201Y205606D01*
X37219D01*
X37238Y205588D01*
X37349Y205532D01*
X37516Y205421D01*
X37701Y205291D01*
X37923Y205106D01*
X38145Y204902D01*
X38367Y204662D01*
X38553Y204384D01*
X38571Y204347D01*
X38627Y204254D01*
X38701Y204088D01*
X38793Y203884D01*
X38886Y203643D01*
X38960Y203366D01*
X39016Y203051D01*
X39034Y202736D01*
Y202699D01*
Y202588D01*
X39016Y202440D01*
X38979Y202236D01*
X38923Y201995D01*
X38830Y201736D01*
X38719Y201477D01*
X38571Y201218D01*
X38553Y201181D01*
X38497Y201107D01*
X38386Y200977D01*
X38238Y200829D01*
X38053Y200662D01*
X37831Y200477D01*
X37571Y200310D01*
X37256Y200144D01*
X37275D01*
X37312Y200125D01*
X37367Y200107D01*
X37442Y200088D01*
X37645Y200014D01*
X37905Y199903D01*
X38201Y199755D01*
X38497Y199570D01*
X38775Y199329D01*
X39034Y199051D01*
X39053Y199014D01*
X39127Y198903D01*
X39238Y198718D01*
X39349Y198477D01*
X39460Y198181D01*
X39571Y197829D01*
X39645Y197422D01*
X39664Y196977D01*
Y196959D01*
Y196903D01*
Y196811D01*
X39645Y196700D01*
X39627Y196551D01*
X39590Y196385D01*
X39553Y196200D01*
X39516Y195996D01*
X39367Y195552D01*
X39256Y195311D01*
X39145Y195089D01*
X38997Y194848D01*
X38830Y194607D01*
X38645Y194366D01*
X38423Y194144D01*
X38405Y194126D01*
X38367Y194089D01*
X38293Y194033D01*
X38201Y193959D01*
X38090Y193867D01*
X37942Y193774D01*
X37775Y193663D01*
X37571Y193570D01*
X37367Y193459D01*
X37127Y193348D01*
X36886Y193256D01*
X36608Y193163D01*
X36312Y193089D01*
X35997Y193033D01*
X35682Y192996D01*
X35331Y192978D01*
X35164D01*
X35053Y192996D01*
X34905Y193015D01*
X34738Y193033D01*
X34553Y193070D01*
X34349Y193107D01*
X33905Y193218D01*
X33442Y193404D01*
X33201Y193515D01*
X32979Y193644D01*
X32757Y193811D01*
X32535Y193978D01*
X32516Y193996D01*
X32479Y194033D01*
X32424Y194089D01*
X32368Y194163D01*
X32276Y194255D01*
X32183Y194385D01*
X32072Y194515D01*
X31961Y194681D01*
X31850Y194867D01*
X31739Y195052D01*
X31535Y195496D01*
X31368Y196014D01*
X31313Y196292D01*
X31276Y196588D01*
X32850Y196792D01*
Y196774D01*
X32868Y196737D01*
X32887Y196663D01*
X32905Y196570D01*
X32924Y196459D01*
X32961Y196329D01*
X33053Y196052D01*
X33183Y195718D01*
X33349Y195403D01*
X33535Y195107D01*
X33757Y194848D01*
X33794Y194830D01*
X33868Y194755D01*
X34016Y194663D01*
X34201Y194570D01*
X34423Y194459D01*
X34701Y194366D01*
X35016Y194293D01*
X35349Y194274D01*
X35460D01*
X35534Y194293D01*
X35738Y194311D01*
X35997Y194366D01*
X36294Y194459D01*
X36608Y194589D01*
X36923Y194774D01*
X37219Y195033D01*
X37256Y195070D01*
X37349Y195181D01*
X37460Y195348D01*
X37608Y195570D01*
X37756Y195848D01*
X37868Y196163D01*
X37960Y196533D01*
X37997Y196940D01*
Y196959D01*
Y196996D01*
Y197051D01*
X37979Y197125D01*
X37960Y197329D01*
X37905Y197570D01*
X37831Y197866D01*
X37701Y198162D01*
X37516Y198459D01*
X37275Y198736D01*
X37238Y198773D01*
X37145Y198848D01*
X36997Y198959D01*
X36793Y199088D01*
X36534Y199218D01*
X36219Y199329D01*
X35868Y199403D01*
X35479Y199440D01*
X35312D01*
X35183Y199422D01*
X35016Y199403D01*
X34831Y199366D01*
X34609Y199329D01*
X34368Y199273D01*
X34553Y200662D01*
X34646D01*
X34720Y200644D01*
X34960D01*
X35164Y200681D01*
X35405Y200718D01*
X35682Y200773D01*
X35997Y200866D01*
X36294Y200996D01*
X36608Y201162D01*
X36627D01*
X36645Y201181D01*
X36738Y201255D01*
X36868Y201384D01*
X37016Y201551D01*
X37164Y201792D01*
X37294Y202069D01*
X37386Y202384D01*
X37423Y202569D01*
Y202773D01*
Y202792D01*
Y202810D01*
Y202921D01*
X37386Y203069D01*
X37349Y203273D01*
X37275Y203495D01*
X37182Y203736D01*
X37034Y203977D01*
X36831Y204199D01*
X36812Y204217D01*
X36720Y204291D01*
X36590Y204384D01*
X36423Y204495D01*
X36201Y204588D01*
X35942Y204680D01*
X35645Y204754D01*
X35312Y204773D01*
X35164D01*
X34997Y204736D01*
X34775Y204699D01*
X34534Y204625D01*
X34294Y204532D01*
X34035Y204384D01*
X33794Y204199D01*
X33775Y204180D01*
X33701Y204088D01*
X33590Y203958D01*
X33461Y203773D01*
X33331Y203532D01*
X33201Y203236D01*
X33090Y202884D01*
X33016Y202477D01*
X31442Y202755D01*
Y202773D01*
X31461Y202829D01*
X31479Y202903D01*
X31498Y203014D01*
X31535Y203143D01*
X31590Y203291D01*
X31702Y203643D01*
X31887Y204051D01*
X32109Y204458D01*
X32387Y204847D01*
X32738Y205199D01*
X32757Y205217D01*
X32794Y205236D01*
X32850Y205273D01*
X32924Y205328D01*
X33016Y205402D01*
X33146Y205476D01*
X33275Y205551D01*
X33442Y205643D01*
X33812Y205791D01*
X34238Y205939D01*
X34738Y206032D01*
X34997Y206069D01*
X35460D01*
X35664Y206050D01*
D02*
G37*
G36*
X205664D02*
X205905Y206014D01*
X206201Y205958D01*
X206534Y205865D01*
X206868Y205754D01*
X207201Y205606D01*
X207219D01*
X207238Y205588D01*
X207349Y205532D01*
X207516Y205421D01*
X207701Y205291D01*
X207923Y205106D01*
X208145Y204902D01*
X208367Y204662D01*
X208553Y204384D01*
X208571Y204347D01*
X208627Y204254D01*
X208701Y204088D01*
X208793Y203884D01*
X208886Y203643D01*
X208960Y203366D01*
X209016Y203051D01*
X209034Y202736D01*
Y202699D01*
Y202588D01*
X209016Y202440D01*
X208979Y202236D01*
X208923Y201995D01*
X208830Y201736D01*
X208719Y201477D01*
X208571Y201218D01*
X208553Y201181D01*
X208497Y201107D01*
X208386Y200977D01*
X208238Y200829D01*
X208053Y200662D01*
X207830Y200477D01*
X207571Y200310D01*
X207256Y200144D01*
X207275D01*
X207312Y200125D01*
X207367Y200107D01*
X207442Y200088D01*
X207645Y200014D01*
X207904Y199903D01*
X208201Y199755D01*
X208497Y199570D01*
X208775Y199329D01*
X209034Y199051D01*
X209053Y199014D01*
X209127Y198903D01*
X209238Y198718D01*
X209349Y198477D01*
X209460Y198181D01*
X209571Y197829D01*
X209645Y197422D01*
X209664Y196977D01*
Y196959D01*
Y196903D01*
Y196811D01*
X209645Y196700D01*
X209627Y196551D01*
X209590Y196385D01*
X209552Y196200D01*
X209515Y195996D01*
X209367Y195552D01*
X209256Y195311D01*
X209145Y195089D01*
X208997Y194848D01*
X208830Y194607D01*
X208645Y194366D01*
X208423Y194144D01*
X208405Y194126D01*
X208367Y194089D01*
X208293Y194033D01*
X208201Y193959D01*
X208090Y193867D01*
X207941Y193774D01*
X207775Y193663D01*
X207571Y193570D01*
X207367Y193459D01*
X207127Y193348D01*
X206886Y193256D01*
X206608Y193163D01*
X206312Y193089D01*
X205997Y193033D01*
X205683Y192996D01*
X205331Y192978D01*
X205164D01*
X205053Y192996D01*
X204905Y193015D01*
X204738Y193033D01*
X204553Y193070D01*
X204349Y193107D01*
X203905Y193218D01*
X203442Y193404D01*
X203201Y193515D01*
X202979Y193644D01*
X202757Y193811D01*
X202535Y193978D01*
X202516Y193996D01*
X202479Y194033D01*
X202424Y194089D01*
X202368Y194163D01*
X202276Y194255D01*
X202183Y194385D01*
X202072Y194515D01*
X201961Y194681D01*
X201850Y194867D01*
X201738Y195052D01*
X201535Y195496D01*
X201368Y196014D01*
X201313Y196292D01*
X201276Y196588D01*
X202850Y196792D01*
Y196774D01*
X202868Y196737D01*
X202887Y196663D01*
X202905Y196570D01*
X202924Y196459D01*
X202961Y196329D01*
X203053Y196052D01*
X203183Y195718D01*
X203349Y195403D01*
X203535Y195107D01*
X203757Y194848D01*
X203794Y194830D01*
X203868Y194755D01*
X204016Y194663D01*
X204201Y194570D01*
X204423Y194459D01*
X204701Y194366D01*
X205016Y194293D01*
X205349Y194274D01*
X205460D01*
X205534Y194293D01*
X205738Y194311D01*
X205997Y194366D01*
X206294Y194459D01*
X206608Y194589D01*
X206923Y194774D01*
X207219Y195033D01*
X207256Y195070D01*
X207349Y195181D01*
X207460Y195348D01*
X207608Y195570D01*
X207756Y195848D01*
X207868Y196163D01*
X207960Y196533D01*
X207997Y196940D01*
Y196959D01*
Y196996D01*
Y197051D01*
X207979Y197125D01*
X207960Y197329D01*
X207904Y197570D01*
X207830Y197866D01*
X207701Y198162D01*
X207516Y198459D01*
X207275Y198736D01*
X207238Y198773D01*
X207145Y198848D01*
X206997Y198959D01*
X206793Y199088D01*
X206534Y199218D01*
X206220Y199329D01*
X205868Y199403D01*
X205479Y199440D01*
X205312D01*
X205183Y199422D01*
X205016Y199403D01*
X204831Y199366D01*
X204609Y199329D01*
X204368Y199273D01*
X204553Y200662D01*
X204646D01*
X204720Y200644D01*
X204960D01*
X205164Y200681D01*
X205405Y200718D01*
X205683Y200773D01*
X205997Y200866D01*
X206294Y200996D01*
X206608Y201162D01*
X206627D01*
X206645Y201181D01*
X206738Y201255D01*
X206868Y201384D01*
X207016Y201551D01*
X207164Y201792D01*
X207293Y202069D01*
X207386Y202384D01*
X207423Y202569D01*
Y202773D01*
Y202792D01*
Y202810D01*
Y202921D01*
X207386Y203069D01*
X207349Y203273D01*
X207275Y203495D01*
X207182Y203736D01*
X207034Y203977D01*
X206831Y204199D01*
X206812Y204217D01*
X206719Y204291D01*
X206590Y204384D01*
X206423Y204495D01*
X206201Y204588D01*
X205942Y204680D01*
X205646Y204754D01*
X205312Y204773D01*
X205164D01*
X204997Y204736D01*
X204775Y204699D01*
X204534Y204625D01*
X204294Y204532D01*
X204035Y204384D01*
X203794Y204199D01*
X203775Y204180D01*
X203701Y204088D01*
X203590Y203958D01*
X203461Y203773D01*
X203331Y203532D01*
X203201Y203236D01*
X203090Y202884D01*
X203016Y202477D01*
X201442Y202755D01*
Y202773D01*
X201461Y202829D01*
X201479Y202903D01*
X201498Y203014D01*
X201535Y203143D01*
X201590Y203291D01*
X201702Y203643D01*
X201887Y204051D01*
X202109Y204458D01*
X202387Y204847D01*
X202738Y205199D01*
X202757Y205217D01*
X202794Y205236D01*
X202850Y205273D01*
X202924Y205328D01*
X203016Y205402D01*
X203146Y205476D01*
X203275Y205551D01*
X203442Y205643D01*
X203812Y205791D01*
X204238Y205939D01*
X204738Y206032D01*
X204997Y206069D01*
X205460D01*
X205664Y206050D01*
D02*
G37*
G36*
X29702Y230006D02*
X29683Y229988D01*
X29646Y229951D01*
X29572Y229877D01*
X29498Y229765D01*
X29387Y229636D01*
X29239Y229488D01*
X29091Y229303D01*
X28924Y229080D01*
X28757Y228858D01*
X28554Y228599D01*
X28350Y228303D01*
X28146Y228006D01*
X27924Y227673D01*
X27702Y227321D01*
X27480Y226933D01*
X27257Y226544D01*
X27239Y226525D01*
X27202Y226451D01*
X27146Y226340D01*
X27054Y226173D01*
X26961Y225970D01*
X26850Y225747D01*
X26720Y225488D01*
X26591Y225192D01*
X26443Y224859D01*
X26276Y224525D01*
X26128Y224155D01*
X25980Y223766D01*
X25684Y222970D01*
X25406Y222118D01*
Y222100D01*
X25387Y222044D01*
X25369Y221952D01*
X25332Y221840D01*
X25295Y221692D01*
X25258Y221507D01*
X25202Y221303D01*
X25165Y221081D01*
X25110Y220822D01*
X25054Y220544D01*
X24961Y219952D01*
X24869Y219304D01*
X24813Y218600D01*
X23202D01*
Y218619D01*
Y218674D01*
Y218748D01*
X23221Y218859D01*
Y219007D01*
X23239Y219193D01*
X23258Y219396D01*
X23276Y219618D01*
X23313Y219878D01*
X23351Y220137D01*
X23406Y220452D01*
X23462Y220766D01*
X23517Y221100D01*
X23591Y221470D01*
X23776Y222229D01*
Y222248D01*
X23795Y222322D01*
X23832Y222433D01*
X23888Y222600D01*
X23943Y222785D01*
X24017Y223007D01*
X24091Y223266D01*
X24202Y223544D01*
X24313Y223859D01*
X24424Y224174D01*
X24702Y224877D01*
X25036Y225618D01*
X25406Y226358D01*
X25424Y226377D01*
X25461Y226451D01*
X25517Y226544D01*
X25591Y226692D01*
X25684Y226858D01*
X25813Y227062D01*
X25943Y227284D01*
X26091Y227525D01*
X26443Y228062D01*
X26813Y228617D01*
X27239Y229191D01*
X27683Y229729D01*
X21406D01*
Y231247D01*
X29702D01*
Y230006D01*
D02*
G37*
G36*
X197220Y193200D02*
X195646D01*
Y203218D01*
X195628Y203199D01*
X195535Y203125D01*
X195424Y203014D01*
X195239Y202884D01*
X195035Y202717D01*
X194776Y202532D01*
X194480Y202329D01*
X194147Y202125D01*
X194128D01*
X194110Y202106D01*
X193999Y202032D01*
X193813Y201940D01*
X193591Y201829D01*
X193332Y201699D01*
X193054Y201569D01*
X192776Y201440D01*
X192499Y201329D01*
Y202847D01*
X192517D01*
X192554Y202884D01*
X192628Y202903D01*
X192721Y202958D01*
X192832Y203014D01*
X192962Y203088D01*
X193276Y203273D01*
X193647Y203477D01*
X194017Y203736D01*
X194406Y204032D01*
X194795Y204347D01*
X194813Y204366D01*
X194832Y204384D01*
X194887Y204440D01*
X194961Y204495D01*
X195128Y204680D01*
X195350Y204902D01*
X195572Y205162D01*
X195813Y205458D01*
X196017Y205754D01*
X196202Y206069D01*
X197220D01*
Y193200D01*
D02*
G37*
G36*
X264516Y274000D02*
X262757D01*
X256054Y284055D01*
Y274000D01*
X254424D01*
Y286814D01*
X256165D01*
X262887Y276740D01*
Y286814D01*
X264516D01*
Y274000D01*
D02*
G37*
G36*
X-51003Y280223D02*
X-52373D01*
Y297036D01*
X-51003D01*
Y280223D01*
D02*
G37*
G36*
X-42078Y297017D02*
X-41911D01*
X-41745Y296999D01*
X-41522Y296962D01*
X-41300Y296925D01*
X-40819Y296832D01*
X-40263Y296684D01*
X-39726Y296462D01*
X-39449Y296332D01*
X-39171Y296184D01*
X-39152Y296165D01*
X-39115Y296147D01*
X-39041Y296091D01*
X-38930Y296036D01*
X-38819Y295943D01*
X-38671Y295832D01*
X-38356Y295573D01*
X-38023Y295240D01*
X-37652Y294832D01*
X-37301Y294351D01*
X-37004Y293814D01*
Y293795D01*
X-36967Y293740D01*
X-36930Y293666D01*
X-36893Y293555D01*
X-36819Y293406D01*
X-36764Y293240D01*
X-36690Y293036D01*
X-36616Y292814D01*
X-36560Y292573D01*
X-36486Y292314D01*
X-36412Y292018D01*
X-36356Y291721D01*
X-36282Y291073D01*
X-36245Y290370D01*
Y290351D01*
Y290277D01*
Y290184D01*
X-36264Y290036D01*
Y289870D01*
X-36282Y289666D01*
X-36319Y289444D01*
X-36338Y289203D01*
X-36430Y288666D01*
X-36579Y288074D01*
X-36782Y287481D01*
X-36893Y287185D01*
X-37041Y286889D01*
Y286870D01*
X-37078Y286814D01*
X-37115Y286740D01*
X-37190Y286629D01*
X-37264Y286500D01*
X-37356Y286370D01*
X-37615Y286018D01*
X-37930Y285648D01*
X-38301Y285259D01*
X-38745Y284889D01*
X-39264Y284555D01*
X-39282D01*
X-39319Y284519D01*
X-39412Y284481D01*
X-39523Y284426D01*
X-39652Y284370D01*
X-39801Y284315D01*
X-39986Y284241D01*
X-40189Y284167D01*
X-40412Y284093D01*
X-40652Y284018D01*
X-41189Y283907D01*
X-41763Y283815D01*
X-42374Y283778D01*
X-42559D01*
X-42670Y283796D01*
X-42837D01*
X-43022Y283833D01*
X-43226Y283852D01*
X-43467Y283889D01*
X-43967Y284000D01*
X-44504Y284148D01*
X-45059Y284370D01*
X-45337Y284500D01*
X-45615Y284648D01*
X-45633Y284667D01*
X-45670Y284685D01*
X-45744Y284741D01*
X-45855Y284815D01*
X-45967Y284889D01*
X-46096Y285000D01*
X-46411Y285278D01*
X-46763Y285611D01*
X-47133Y286018D01*
X-47466Y286481D01*
X-47781Y287018D01*
Y287037D01*
X-47818Y287092D01*
X-47855Y287166D01*
X-47892Y287277D01*
X-47948Y287426D01*
X-48003Y287592D01*
X-48077Y287777D01*
X-48133Y287981D01*
X-48207Y288222D01*
X-48281Y288463D01*
X-48392Y289018D01*
X-48466Y289592D01*
X-48503Y290222D01*
Y290240D01*
Y290259D01*
Y290370D01*
X-48485Y290536D01*
Y290758D01*
X-48448Y291018D01*
X-48411Y291333D01*
X-48355Y291684D01*
X-48281Y292055D01*
X-48207Y292444D01*
X-48096Y292851D01*
X-47948Y293258D01*
X-47781Y293684D01*
X-47596Y294091D01*
X-47355Y294499D01*
X-47096Y294869D01*
X-46800Y295221D01*
X-46781Y295240D01*
X-46726Y295295D01*
X-46615Y295388D01*
X-46485Y295499D01*
X-46318Y295647D01*
X-46115Y295795D01*
X-45874Y295962D01*
X-45596Y296128D01*
X-45300Y296295D01*
X-44967Y296462D01*
X-44596Y296610D01*
X-44207Y296758D01*
X-43781Y296869D01*
X-43337Y296962D01*
X-42874Y297017D01*
X-42374Y297036D01*
X-42208D01*
X-42078Y297017D01*
D02*
G37*
G36*
X-73575D02*
X-73408D01*
X-73241Y296999D01*
X-73019Y296962D01*
X-72797Y296925D01*
X-72316Y296832D01*
X-71760Y296684D01*
X-71223Y296462D01*
X-70945Y296332D01*
X-70668Y296184D01*
X-70649Y296165D01*
X-70612Y296147D01*
X-70538Y296091D01*
X-70427Y296036D01*
X-70316Y295943D01*
X-70168Y295832D01*
X-69853Y295573D01*
X-69520Y295240D01*
X-69149Y294832D01*
X-68797Y294351D01*
X-68501Y293814D01*
Y293795D01*
X-68464Y293740D01*
X-68427Y293666D01*
X-68390Y293555D01*
X-68316Y293406D01*
X-68260Y293240D01*
X-68186Y293036D01*
X-68112Y292814D01*
X-68057Y292573D01*
X-67983Y292314D01*
X-67909Y292018D01*
X-67853Y291721D01*
X-67779Y291073D01*
X-67742Y290370D01*
Y290351D01*
Y290277D01*
Y290184D01*
X-67761Y290036D01*
Y289870D01*
X-67779Y289666D01*
X-67816Y289444D01*
X-67835Y289203D01*
X-67927Y288666D01*
X-68075Y288074D01*
X-68279Y287481D01*
X-68390Y287185D01*
X-68538Y286889D01*
Y286870D01*
X-68575Y286814D01*
X-68612Y286740D01*
X-68686Y286629D01*
X-68760Y286500D01*
X-68853Y286370D01*
X-69112Y286018D01*
X-69427Y285648D01*
X-69797Y285259D01*
X-70242Y284889D01*
X-70760Y284555D01*
X-70779D01*
X-70816Y284519D01*
X-70908Y284481D01*
X-71019Y284426D01*
X-71149Y284370D01*
X-71297Y284315D01*
X-71482Y284241D01*
X-71686Y284167D01*
X-71908Y284093D01*
X-72149Y284018D01*
X-72686Y283907D01*
X-73260Y283815D01*
X-73871Y283778D01*
X-74056D01*
X-74167Y283796D01*
X-74334D01*
X-74519Y283833D01*
X-74723Y283852D01*
X-74963Y283889D01*
X-75463Y284000D01*
X-76000Y284148D01*
X-76556Y284370D01*
X-76834Y284500D01*
X-77111Y284648D01*
X-77130Y284667D01*
X-77167Y284685D01*
X-77241Y284741D01*
X-77352Y284815D01*
X-77463Y284889D01*
X-77593Y285000D01*
X-77908Y285278D01*
X-78259Y285611D01*
X-78630Y286018D01*
X-78963Y286481D01*
X-79278Y287018D01*
Y287037D01*
X-79315Y287092D01*
X-79352Y287166D01*
X-79389Y287277D01*
X-79444Y287426D01*
X-79500Y287592D01*
X-79574Y287777D01*
X-79630Y287981D01*
X-79704Y288222D01*
X-79778Y288463D01*
X-79889Y289018D01*
X-79963Y289592D01*
X-80000Y290222D01*
Y290240D01*
Y290259D01*
Y290370D01*
X-79981Y290536D01*
Y290758D01*
X-79944Y291018D01*
X-79907Y291333D01*
X-79852Y291684D01*
X-79778Y292055D01*
X-79704Y292444D01*
X-79593Y292851D01*
X-79444Y293258D01*
X-79278Y293684D01*
X-79093Y294091D01*
X-78852Y294499D01*
X-78593Y294869D01*
X-78296Y295221D01*
X-78278Y295240D01*
X-78222Y295295D01*
X-78111Y295388D01*
X-77982Y295499D01*
X-77815Y295647D01*
X-77611Y295795D01*
X-77371Y295962D01*
X-77093Y296128D01*
X-76797Y296295D01*
X-76463Y296462D01*
X-76093Y296610D01*
X-75704Y296758D01*
X-75278Y296869D01*
X-74834Y296962D01*
X-74371Y297017D01*
X-73871Y297036D01*
X-73704D01*
X-73575Y297017D01*
D02*
G37*
%LPC*%
G36*
X195591Y149325D02*
X195480D01*
X195406Y149307D01*
X195221Y149288D01*
X194961Y149233D01*
X194684Y149140D01*
X194369Y148992D01*
X194073Y148807D01*
X193776Y148547D01*
X193739Y148511D01*
X193665Y148418D01*
X193536Y148251D01*
X193406Y148011D01*
X193276Y147733D01*
X193147Y147381D01*
X193073Y146992D01*
X193036Y146548D01*
Y146511D01*
Y146418D01*
X193054Y146251D01*
X193073Y146048D01*
X193110Y145807D01*
X193184Y145548D01*
X193258Y145270D01*
X193369Y144992D01*
X193388Y144955D01*
X193443Y144863D01*
X193517Y144733D01*
X193628Y144566D01*
X193758Y144400D01*
X193925Y144196D01*
X194110Y144030D01*
X194332Y143863D01*
X194369Y143844D01*
X194443Y143807D01*
X194573Y143733D01*
X194739Y143678D01*
X194924Y143604D01*
X195147Y143530D01*
X195387Y143492D01*
X195646Y143474D01*
X195739D01*
X195813Y143492D01*
X195998Y143511D01*
X196239Y143567D01*
X196498Y143678D01*
X196795Y143807D01*
X197091Y144011D01*
X197239Y144122D01*
X197369Y144270D01*
Y144289D01*
X197406Y144307D01*
X197480Y144418D01*
X197591Y144604D01*
X197739Y144844D01*
X197868Y145159D01*
X197980Y145529D01*
X198054Y145955D01*
X198091Y146455D01*
Y146474D01*
Y146511D01*
Y146585D01*
X198072Y146677D01*
Y146788D01*
X198054Y146918D01*
X197998Y147214D01*
X197924Y147548D01*
X197794Y147899D01*
X197609Y148233D01*
X197369Y148547D01*
X197332Y148584D01*
X197239Y148677D01*
X197091Y148788D01*
X196887Y148936D01*
X196628Y149085D01*
X196332Y149196D01*
X195980Y149288D01*
X195591Y149325D01*
D02*
G37*
G36*
X185370Y128295D02*
X181703D01*
Y123722D01*
X185148D01*
X185277Y123740D01*
X185407D01*
X185555Y123759D01*
X185907Y123796D01*
X186296Y123870D01*
X186684Y123981D01*
X187036Y124129D01*
X187203Y124221D01*
X187333Y124333D01*
X187370Y124370D01*
X187444Y124444D01*
X187555Y124592D01*
X187684Y124777D01*
X187814Y125018D01*
X187925Y125314D01*
X187999Y125647D01*
X188036Y126036D01*
Y126055D01*
Y126073D01*
Y126166D01*
X188018Y126332D01*
X187981Y126517D01*
X187944Y126721D01*
X187870Y126962D01*
X187759Y127184D01*
X187629Y127406D01*
X187610Y127425D01*
X187555Y127499D01*
X187462Y127591D01*
X187351Y127721D01*
X187184Y127851D01*
X186999Y127962D01*
X186796Y128073D01*
X186555Y128166D01*
X186536D01*
X186462Y128184D01*
X186351Y128202D01*
X186203Y128240D01*
X185981Y128258D01*
X185703Y128277D01*
X185370Y128295D01*
D02*
G37*
G36*
X15370D02*
X11703D01*
Y123722D01*
X15148D01*
X15277Y123740D01*
X15407D01*
X15555Y123759D01*
X15907Y123796D01*
X16296Y123870D01*
X16684Y123981D01*
X17036Y124129D01*
X17203Y124221D01*
X17333Y124333D01*
X17370Y124370D01*
X17444Y124444D01*
X17555Y124592D01*
X17684Y124777D01*
X17814Y125018D01*
X17925Y125314D01*
X17999Y125647D01*
X18036Y126036D01*
Y126055D01*
Y126073D01*
Y126166D01*
X18018Y126332D01*
X17981Y126517D01*
X17944Y126721D01*
X17870Y126962D01*
X17759Y127184D01*
X17629Y127406D01*
X17610Y127425D01*
X17555Y127499D01*
X17462Y127591D01*
X17351Y127721D01*
X17184Y127851D01*
X16999Y127962D01*
X16796Y128073D01*
X16555Y128166D01*
X16536D01*
X16462Y128184D01*
X16351Y128202D01*
X16203Y128240D01*
X15981Y128258D01*
X15703Y128277D01*
X15370Y128295D01*
D02*
G37*
G36*
X36868Y26973D02*
X36720D01*
X36553Y26936D01*
X36331Y26899D01*
X36090Y26825D01*
X35831Y26732D01*
X35590Y26584D01*
X35349Y26380D01*
X35331Y26362D01*
X35257Y26288D01*
X35164Y26158D01*
X35071Y25991D01*
X34960Y25788D01*
X34868Y25547D01*
X34794Y25288D01*
X34775Y24992D01*
Y24973D01*
Y24955D01*
X34794Y24843D01*
X34812Y24677D01*
X34849Y24473D01*
X34923Y24232D01*
X35016Y23992D01*
X35164Y23733D01*
X35349Y23510D01*
X35368Y23492D01*
X35460Y23418D01*
X35590Y23325D01*
X35757Y23233D01*
X35979Y23121D01*
X36238Y23029D01*
X36534Y22955D01*
X36868Y22936D01*
X36905D01*
X37016Y22955D01*
X37182Y22973D01*
X37405Y23010D01*
X37645Y23084D01*
X37886Y23177D01*
X38145Y23325D01*
X38367Y23510D01*
X38386Y23529D01*
X38460Y23621D01*
X38553Y23733D01*
X38664Y23899D01*
X38775Y24103D01*
X38867Y24344D01*
X38942Y24621D01*
X38960Y24918D01*
Y24936D01*
Y24955D01*
Y25066D01*
X38923Y25232D01*
X38886Y25436D01*
X38812Y25658D01*
X38701Y25899D01*
X38553Y26140D01*
X38349Y26380D01*
X38330Y26399D01*
X38238Y26473D01*
X38108Y26565D01*
X37942Y26677D01*
X37719Y26788D01*
X37479Y26880D01*
X37182Y26954D01*
X36868Y26973D01*
D02*
G37*
G36*
X36812Y21659D02*
X36701D01*
X36627Y21640D01*
X36423Y21622D01*
X36164Y21566D01*
X35868Y21473D01*
X35571Y21344D01*
X35257Y21159D01*
X34979Y20918D01*
X34942Y20881D01*
X34868Y20788D01*
X34757Y20622D01*
X34627Y20418D01*
X34479Y20140D01*
X34368Y19826D01*
X34294Y19474D01*
X34257Y19085D01*
Y19048D01*
Y18974D01*
X34275Y18844D01*
X34294Y18677D01*
X34331Y18474D01*
X34386Y18252D01*
X34460Y18029D01*
X34553Y17789D01*
X34571Y17770D01*
X34609Y17678D01*
X34683Y17566D01*
X34794Y17437D01*
X34923Y17270D01*
X35090Y17104D01*
X35275Y16955D01*
X35497Y16807D01*
X35534Y16789D01*
X35608Y16752D01*
X35738Y16696D01*
X35905Y16641D01*
X36108Y16585D01*
X36349Y16530D01*
X36608Y16493D01*
X36868Y16474D01*
X36979D01*
X37053Y16493D01*
X37275Y16511D01*
X37534Y16566D01*
X37831Y16659D01*
X38145Y16770D01*
X38442Y16955D01*
X38738Y17196D01*
X38775Y17233D01*
X38849Y17326D01*
X38979Y17492D01*
X39108Y17696D01*
X39238Y17955D01*
X39367Y18270D01*
X39441Y18640D01*
X39478Y19029D01*
Y19048D01*
Y19085D01*
Y19140D01*
X39460Y19214D01*
X39441Y19418D01*
X39386Y19696D01*
X39293Y19974D01*
X39164Y20288D01*
X38979Y20603D01*
X38719Y20899D01*
X38682Y20937D01*
X38590Y21010D01*
X38423Y21140D01*
X38201Y21288D01*
X37923Y21418D01*
X37590Y21548D01*
X37219Y21622D01*
X36812Y21659D01*
D02*
G37*
G36*
X15777Y26880D02*
Y26862D01*
X15759Y26825D01*
Y26751D01*
X15722Y26677D01*
X15703Y26547D01*
X15666Y26417D01*
X15592Y26103D01*
X15499Y25732D01*
X15370Y25325D01*
X15240Y24880D01*
X15074Y24418D01*
X13685Y20677D01*
X18018D01*
X16684Y24195D01*
Y24214D01*
X16666Y24269D01*
X16629Y24362D01*
X16592Y24473D01*
X16536Y24603D01*
X16481Y24769D01*
X16425Y24955D01*
X16351Y25140D01*
X16203Y25566D01*
X16055Y26010D01*
X15907Y26454D01*
X15777Y26880D01*
D02*
G37*
G36*
X15370Y204495D02*
X11703D01*
Y199921D01*
X15148D01*
X15277Y199940D01*
X15407D01*
X15555Y199959D01*
X15907Y199996D01*
X16296Y200070D01*
X16684Y200181D01*
X17036Y200329D01*
X17203Y200422D01*
X17333Y200533D01*
X17370Y200570D01*
X17444Y200644D01*
X17555Y200792D01*
X17684Y200977D01*
X17814Y201218D01*
X17925Y201514D01*
X17999Y201847D01*
X18036Y202236D01*
Y202255D01*
Y202273D01*
Y202366D01*
X18018Y202532D01*
X17981Y202717D01*
X17944Y202921D01*
X17870Y203162D01*
X17759Y203384D01*
X17629Y203606D01*
X17610Y203625D01*
X17555Y203699D01*
X17462Y203792D01*
X17351Y203921D01*
X17184Y204051D01*
X16999Y204162D01*
X16796Y204273D01*
X16555Y204366D01*
X16536D01*
X16462Y204384D01*
X16351Y204403D01*
X16203Y204440D01*
X15981Y204458D01*
X15703Y204477D01*
X15370Y204495D01*
D02*
G37*
G36*
X185370Y153695D02*
X181703D01*
Y149122D01*
X185148D01*
X185277Y149140D01*
X185407D01*
X185555Y149159D01*
X185907Y149196D01*
X186296Y149270D01*
X186684Y149381D01*
X187036Y149529D01*
X187203Y149621D01*
X187333Y149733D01*
X187370Y149770D01*
X187444Y149844D01*
X187555Y149992D01*
X187684Y150177D01*
X187814Y150418D01*
X187925Y150714D01*
X187999Y151047D01*
X188036Y151436D01*
Y151455D01*
Y151473D01*
Y151566D01*
X188018Y151732D01*
X187981Y151917D01*
X187944Y152121D01*
X187870Y152362D01*
X187759Y152584D01*
X187629Y152806D01*
X187610Y152825D01*
X187555Y152899D01*
X187462Y152992D01*
X187351Y153121D01*
X187184Y153251D01*
X186999Y153362D01*
X186796Y153473D01*
X186555Y153566D01*
X186536D01*
X186462Y153584D01*
X186351Y153603D01*
X186203Y153640D01*
X185981Y153658D01*
X185703Y153677D01*
X185370Y153695D01*
D02*
G37*
G36*
X15370D02*
X11703D01*
Y149122D01*
X15148D01*
X15277Y149140D01*
X15407D01*
X15555Y149159D01*
X15907Y149196D01*
X16296Y149270D01*
X16684Y149381D01*
X17036Y149529D01*
X17203Y149621D01*
X17333Y149733D01*
X17370Y149770D01*
X17444Y149844D01*
X17555Y149992D01*
X17684Y150177D01*
X17814Y150418D01*
X17925Y150714D01*
X17999Y151047D01*
X18036Y151436D01*
Y151455D01*
Y151473D01*
Y151566D01*
X18018Y151732D01*
X17981Y151917D01*
X17944Y152121D01*
X17870Y152362D01*
X17759Y152584D01*
X17629Y152806D01*
X17610Y152825D01*
X17555Y152899D01*
X17462Y152992D01*
X17351Y153121D01*
X17184Y153251D01*
X16999Y153362D01*
X16796Y153473D01*
X16555Y153566D01*
X16536D01*
X16462Y153584D01*
X16351Y153603D01*
X16203Y153640D01*
X15981Y153658D01*
X15703Y153677D01*
X15370Y153695D01*
D02*
G37*
G36*
Y179095D02*
X11703D01*
Y174522D01*
X15148D01*
X15277Y174540D01*
X15407D01*
X15555Y174559D01*
X15907Y174596D01*
X16296Y174670D01*
X16684Y174781D01*
X17036Y174929D01*
X17203Y175021D01*
X17333Y175133D01*
X17370Y175170D01*
X17444Y175244D01*
X17555Y175392D01*
X17684Y175577D01*
X17814Y175818D01*
X17925Y176114D01*
X17999Y176447D01*
X18036Y176836D01*
Y176855D01*
Y176873D01*
Y176966D01*
X18018Y177132D01*
X17981Y177318D01*
X17944Y177521D01*
X17870Y177762D01*
X17759Y177984D01*
X17629Y178206D01*
X17610Y178225D01*
X17555Y178299D01*
X17462Y178391D01*
X17351Y178521D01*
X17184Y178651D01*
X16999Y178762D01*
X16796Y178873D01*
X16555Y178965D01*
X16536D01*
X16462Y178984D01*
X16351Y179002D01*
X16203Y179040D01*
X15981Y179058D01*
X15703Y179077D01*
X15370Y179095D01*
D02*
G37*
G36*
X25591Y149325D02*
X25480D01*
X25406Y149307D01*
X25221Y149288D01*
X24961Y149233D01*
X24684Y149140D01*
X24369Y148992D01*
X24073Y148807D01*
X23776Y148547D01*
X23739Y148511D01*
X23665Y148418D01*
X23536Y148251D01*
X23406Y148011D01*
X23276Y147733D01*
X23147Y147381D01*
X23073Y146992D01*
X23036Y146548D01*
Y146511D01*
Y146418D01*
X23054Y146251D01*
X23073Y146048D01*
X23110Y145807D01*
X23184Y145548D01*
X23258Y145270D01*
X23369Y144992D01*
X23387Y144955D01*
X23443Y144863D01*
X23517Y144733D01*
X23628Y144566D01*
X23758Y144400D01*
X23925Y144196D01*
X24110Y144030D01*
X24332Y143863D01*
X24369Y143844D01*
X24443Y143807D01*
X24573Y143733D01*
X24739Y143678D01*
X24924Y143604D01*
X25147Y143530D01*
X25387Y143492D01*
X25647Y143474D01*
X25739D01*
X25813Y143492D01*
X25998Y143511D01*
X26239Y143567D01*
X26498Y143678D01*
X26795Y143807D01*
X27091Y144011D01*
X27239Y144122D01*
X27369Y144270D01*
Y144289D01*
X27406Y144307D01*
X27480Y144418D01*
X27591Y144604D01*
X27739Y144844D01*
X27868Y145159D01*
X27980Y145529D01*
X28054Y145955D01*
X28091Y146455D01*
Y146474D01*
Y146511D01*
Y146585D01*
X28072Y146677D01*
Y146788D01*
X28054Y146918D01*
X27998Y147214D01*
X27924Y147548D01*
X27794Y147899D01*
X27609Y148233D01*
X27369Y148547D01*
X27332Y148584D01*
X27239Y148677D01*
X27091Y148788D01*
X26887Y148936D01*
X26628Y149085D01*
X26332Y149196D01*
X25980Y149288D01*
X25591Y149325D01*
D02*
G37*
G36*
X196998Y73125D02*
X196887D01*
X196813Y73107D01*
X196628Y73088D01*
X196369Y73033D01*
X196091Y72940D01*
X195776Y72792D01*
X195480Y72607D01*
X195184Y72347D01*
X195147Y72311D01*
X195072Y72218D01*
X194943Y72051D01*
X194813Y71810D01*
X194684Y71533D01*
X194554Y71181D01*
X194480Y70792D01*
X194443Y70348D01*
Y70311D01*
Y70218D01*
X194461Y70051D01*
X194480Y69848D01*
X194517Y69607D01*
X194591Y69348D01*
X194665Y69070D01*
X194776Y68792D01*
X194795Y68755D01*
X194850Y68663D01*
X194924Y68533D01*
X195035Y68366D01*
X195165Y68200D01*
X195332Y67996D01*
X195517Y67829D01*
X195739Y67663D01*
X195776Y67644D01*
X195850Y67607D01*
X195980Y67533D01*
X196147Y67478D01*
X196332Y67404D01*
X196554Y67330D01*
X196795Y67292D01*
X197054Y67274D01*
X197146D01*
X197220Y67292D01*
X197406Y67311D01*
X197646Y67366D01*
X197906Y67478D01*
X198202Y67607D01*
X198498Y67811D01*
X198646Y67922D01*
X198776Y68070D01*
Y68089D01*
X198813Y68107D01*
X198887Y68218D01*
X198998Y68404D01*
X199146Y68644D01*
X199276Y68959D01*
X199387Y69329D01*
X199461Y69755D01*
X199498Y70255D01*
Y70274D01*
Y70311D01*
Y70385D01*
X199480Y70477D01*
Y70588D01*
X199461Y70718D01*
X199405Y71014D01*
X199331Y71348D01*
X199202Y71699D01*
X199016Y72033D01*
X198776Y72347D01*
X198739Y72385D01*
X198646Y72477D01*
X198498Y72588D01*
X198294Y72736D01*
X198035Y72884D01*
X197739Y72996D01*
X197387Y73088D01*
X196998Y73125D01*
D02*
G37*
G36*
X185777Y103080D02*
Y103062D01*
X185759Y103025D01*
Y102951D01*
X185722Y102877D01*
X185703Y102747D01*
X185666Y102617D01*
X185592Y102303D01*
X185499Y101932D01*
X185370Y101525D01*
X185240Y101081D01*
X185074Y100618D01*
X183685Y96877D01*
X188018D01*
X186684Y100395D01*
Y100414D01*
X186666Y100469D01*
X186629Y100562D01*
X186592Y100673D01*
X186536Y100803D01*
X186481Y100969D01*
X186425Y101155D01*
X186351Y101340D01*
X186203Y101766D01*
X186055Y102210D01*
X185907Y102654D01*
X185777Y103080D01*
D02*
G37*
G36*
Y52280D02*
Y52262D01*
X185759Y52225D01*
Y52151D01*
X185722Y52077D01*
X185703Y51947D01*
X185666Y51817D01*
X185592Y51503D01*
X185499Y51132D01*
X185370Y50725D01*
X185240Y50280D01*
X185074Y49818D01*
X183685Y46077D01*
X188018D01*
X186684Y49595D01*
Y49614D01*
X186666Y49669D01*
X186629Y49762D01*
X186592Y49873D01*
X186536Y50003D01*
X186481Y50169D01*
X186425Y50355D01*
X186351Y50540D01*
X186203Y50966D01*
X186055Y51410D01*
X185907Y51854D01*
X185777Y52280D01*
D02*
G37*
G36*
Y77680D02*
Y77662D01*
X185759Y77625D01*
Y77551D01*
X185722Y77477D01*
X185703Y77347D01*
X185666Y77217D01*
X185592Y76903D01*
X185499Y76532D01*
X185370Y76125D01*
X185240Y75680D01*
X185074Y75218D01*
X183685Y71477D01*
X188018D01*
X186684Y74995D01*
Y75014D01*
X186666Y75069D01*
X186629Y75162D01*
X186592Y75273D01*
X186536Y75403D01*
X186481Y75569D01*
X186425Y75755D01*
X186351Y75940D01*
X186203Y76366D01*
X186055Y76810D01*
X185907Y77254D01*
X185777Y77680D01*
D02*
G37*
G36*
Y26880D02*
Y26862D01*
X185759Y26825D01*
Y26751D01*
X185722Y26677D01*
X185703Y26547D01*
X185666Y26417D01*
X185592Y26103D01*
X185499Y25732D01*
X185370Y25325D01*
X185240Y24880D01*
X185074Y24418D01*
X183685Y20677D01*
X188018D01*
X186684Y24195D01*
Y24214D01*
X186666Y24269D01*
X186629Y24362D01*
X186592Y24473D01*
X186536Y24603D01*
X186481Y24769D01*
X186425Y24955D01*
X186351Y25140D01*
X186203Y25566D01*
X186055Y26010D01*
X185907Y26454D01*
X185777Y26880D01*
D02*
G37*
G36*
X26998Y73125D02*
X26887D01*
X26813Y73107D01*
X26628Y73088D01*
X26369Y73033D01*
X26091Y72940D01*
X25776Y72792D01*
X25480Y72607D01*
X25184Y72347D01*
X25147Y72311D01*
X25073Y72218D01*
X24943Y72051D01*
X24813Y71810D01*
X24684Y71533D01*
X24554Y71181D01*
X24480Y70792D01*
X24443Y70348D01*
Y70311D01*
Y70218D01*
X24462Y70051D01*
X24480Y69848D01*
X24517Y69607D01*
X24591Y69348D01*
X24665Y69070D01*
X24776Y68792D01*
X24795Y68755D01*
X24850Y68663D01*
X24924Y68533D01*
X25036Y68366D01*
X25165Y68200D01*
X25332Y67996D01*
X25517Y67829D01*
X25739Y67663D01*
X25776Y67644D01*
X25850Y67607D01*
X25980Y67533D01*
X26147Y67478D01*
X26332Y67404D01*
X26554Y67330D01*
X26795Y67292D01*
X27054Y67274D01*
X27146D01*
X27220Y67292D01*
X27406Y67311D01*
X27646Y67366D01*
X27906Y67478D01*
X28202Y67607D01*
X28498Y67811D01*
X28646Y67922D01*
X28776Y68070D01*
Y68089D01*
X28813Y68107D01*
X28887Y68218D01*
X28998Y68404D01*
X29146Y68644D01*
X29276Y68959D01*
X29387Y69329D01*
X29461Y69755D01*
X29498Y70255D01*
Y70274D01*
Y70311D01*
Y70385D01*
X29479Y70477D01*
Y70588D01*
X29461Y70718D01*
X29405Y71014D01*
X29331Y71348D01*
X29202Y71699D01*
X29017Y72033D01*
X28776Y72347D01*
X28739Y72385D01*
X28646Y72477D01*
X28498Y72588D01*
X28294Y72736D01*
X28035Y72884D01*
X27739Y72996D01*
X27387Y73088D01*
X26998Y73125D01*
D02*
G37*
G36*
X15777Y52280D02*
Y52262D01*
X15759Y52225D01*
Y52151D01*
X15722Y52077D01*
X15703Y51947D01*
X15666Y51817D01*
X15592Y51503D01*
X15499Y51132D01*
X15370Y50725D01*
X15240Y50280D01*
X15074Y49818D01*
X13685Y46077D01*
X18018D01*
X16684Y49595D01*
Y49614D01*
X16666Y49669D01*
X16629Y49762D01*
X16592Y49873D01*
X16536Y50003D01*
X16481Y50169D01*
X16425Y50355D01*
X16351Y50540D01*
X16203Y50966D01*
X16055Y51410D01*
X15907Y51854D01*
X15777Y52280D01*
D02*
G37*
G36*
Y103080D02*
Y103062D01*
X15759Y103025D01*
Y102951D01*
X15722Y102877D01*
X15703Y102747D01*
X15666Y102617D01*
X15592Y102303D01*
X15499Y101932D01*
X15370Y101525D01*
X15240Y101081D01*
X15074Y100618D01*
X13685Y96877D01*
X18018D01*
X16684Y100395D01*
Y100414D01*
X16666Y100469D01*
X16629Y100562D01*
X16592Y100673D01*
X16536Y100803D01*
X16481Y100969D01*
X16425Y101155D01*
X16351Y101340D01*
X16203Y101766D01*
X16055Y102210D01*
X15907Y102654D01*
X15777Y103080D01*
D02*
G37*
G36*
Y77680D02*
Y77662D01*
X15759Y77625D01*
Y77551D01*
X15722Y77477D01*
X15703Y77347D01*
X15666Y77217D01*
X15592Y76903D01*
X15499Y76532D01*
X15370Y76125D01*
X15240Y75680D01*
X15074Y75218D01*
X13685Y71477D01*
X18018D01*
X16684Y74995D01*
Y75014D01*
X16666Y75069D01*
X16629Y75162D01*
X16592Y75273D01*
X16536Y75403D01*
X16481Y75569D01*
X16425Y75755D01*
X16351Y75940D01*
X16203Y76366D01*
X16055Y76810D01*
X15907Y77254D01*
X15777Y77680D01*
D02*
G37*
G36*
X206812Y21659D02*
X206701D01*
X206627Y21640D01*
X206423Y21622D01*
X206164Y21566D01*
X205868Y21473D01*
X205571Y21344D01*
X205257Y21159D01*
X204979Y20918D01*
X204942Y20881D01*
X204868Y20788D01*
X204757Y20622D01*
X204627Y20418D01*
X204479Y20140D01*
X204368Y19826D01*
X204294Y19474D01*
X204257Y19085D01*
Y19048D01*
Y18974D01*
X204275Y18844D01*
X204294Y18677D01*
X204331Y18474D01*
X204386Y18252D01*
X204460Y18029D01*
X204553Y17789D01*
X204571Y17770D01*
X204609Y17678D01*
X204683Y17566D01*
X204794Y17437D01*
X204923Y17270D01*
X205090Y17104D01*
X205275Y16955D01*
X205497Y16807D01*
X205534Y16789D01*
X205609Y16752D01*
X205738Y16696D01*
X205905Y16641D01*
X206108Y16585D01*
X206349Y16530D01*
X206608Y16493D01*
X206868Y16474D01*
X206979D01*
X207053Y16493D01*
X207275Y16511D01*
X207534Y16566D01*
X207830Y16659D01*
X208145Y16770D01*
X208442Y16955D01*
X208738Y17196D01*
X208775Y17233D01*
X208849Y17326D01*
X208979Y17492D01*
X209108Y17696D01*
X209238Y17955D01*
X209367Y18270D01*
X209441Y18640D01*
X209478Y19029D01*
Y19048D01*
Y19085D01*
Y19140D01*
X209460Y19214D01*
X209441Y19418D01*
X209386Y19696D01*
X209293Y19974D01*
X209164Y20288D01*
X208979Y20603D01*
X208719Y20899D01*
X208682Y20937D01*
X208590Y21010D01*
X208423Y21140D01*
X208201Y21288D01*
X207923Y21418D01*
X207590Y21548D01*
X207219Y21622D01*
X206812Y21659D01*
D02*
G37*
G36*
X206868Y26973D02*
X206719D01*
X206553Y26936D01*
X206331Y26899D01*
X206090Y26825D01*
X205831Y26732D01*
X205590Y26584D01*
X205349Y26380D01*
X205331Y26362D01*
X205257Y26288D01*
X205164Y26158D01*
X205072Y25991D01*
X204960Y25788D01*
X204868Y25547D01*
X204794Y25288D01*
X204775Y24992D01*
Y24973D01*
Y24955D01*
X204794Y24843D01*
X204812Y24677D01*
X204849Y24473D01*
X204923Y24232D01*
X205016Y23992D01*
X205164Y23733D01*
X205349Y23510D01*
X205368Y23492D01*
X205460Y23418D01*
X205590Y23325D01*
X205757Y23233D01*
X205979Y23121D01*
X206238Y23029D01*
X206534Y22955D01*
X206868Y22936D01*
X206905D01*
X207016Y22955D01*
X207182Y22973D01*
X207405Y23010D01*
X207645Y23084D01*
X207886Y23177D01*
X208145Y23325D01*
X208367Y23510D01*
X208386Y23529D01*
X208460Y23621D01*
X208553Y23733D01*
X208664Y23899D01*
X208775Y24103D01*
X208867Y24344D01*
X208941Y24621D01*
X208960Y24918D01*
Y24936D01*
Y24955D01*
Y25066D01*
X208923Y25232D01*
X208886Y25436D01*
X208812Y25658D01*
X208701Y25899D01*
X208553Y26140D01*
X208349Y26380D01*
X208330Y26399D01*
X208238Y26473D01*
X208108Y26565D01*
X207941Y26677D01*
X207719Y26788D01*
X207479Y26880D01*
X207182Y26954D01*
X206868Y26973D01*
D02*
G37*
G36*
X185370Y179095D02*
X181703D01*
Y174522D01*
X185148D01*
X185277Y174540D01*
X185407D01*
X185555Y174559D01*
X185907Y174596D01*
X186296Y174670D01*
X186684Y174781D01*
X187036Y174929D01*
X187203Y175021D01*
X187333Y175133D01*
X187370Y175170D01*
X187444Y175244D01*
X187555Y175392D01*
X187684Y175577D01*
X187814Y175818D01*
X187925Y176114D01*
X187999Y176447D01*
X188036Y176836D01*
Y176855D01*
Y176873D01*
Y176966D01*
X188018Y177132D01*
X187981Y177318D01*
X187944Y177521D01*
X187870Y177762D01*
X187759Y177984D01*
X187629Y178206D01*
X187610Y178225D01*
X187555Y178299D01*
X187462Y178391D01*
X187351Y178521D01*
X187184Y178651D01*
X186999Y178762D01*
X186796Y178873D01*
X186555Y178965D01*
X186536D01*
X186462Y178984D01*
X186351Y179002D01*
X186203Y179040D01*
X185981Y179058D01*
X185703Y179077D01*
X185370Y179095D01*
D02*
G37*
G36*
X-18708Y566107D02*
Y556018D01*
X-4362D01*
X-18708Y566107D01*
D02*
G37*
G36*
X15370Y255295D02*
X11703D01*
Y250721D01*
X15148D01*
X15277Y250740D01*
X15407D01*
X15555Y250759D01*
X15907Y250796D01*
X16296Y250870D01*
X16684Y250981D01*
X17036Y251129D01*
X17203Y251222D01*
X17333Y251333D01*
X17370Y251370D01*
X17444Y251444D01*
X17555Y251592D01*
X17684Y251777D01*
X17814Y252018D01*
X17925Y252314D01*
X17999Y252647D01*
X18036Y253036D01*
Y253055D01*
Y253073D01*
Y253166D01*
X18018Y253332D01*
X17981Y253517D01*
X17944Y253721D01*
X17870Y253962D01*
X17759Y254184D01*
X17629Y254406D01*
X17610Y254425D01*
X17555Y254499D01*
X17462Y254592D01*
X17351Y254721D01*
X17184Y254851D01*
X16999Y254962D01*
X16796Y255073D01*
X16555Y255166D01*
X16536D01*
X16462Y255184D01*
X16351Y255203D01*
X16203Y255240D01*
X15981Y255258D01*
X15703Y255277D01*
X15370Y255295D01*
D02*
G37*
G36*
X185370Y204495D02*
X181703D01*
Y199921D01*
X185148D01*
X185277Y199940D01*
X185407D01*
X185555Y199959D01*
X185907Y199996D01*
X186296Y200070D01*
X186684Y200181D01*
X187036Y200329D01*
X187203Y200422D01*
X187333Y200533D01*
X187370Y200570D01*
X187444Y200644D01*
X187555Y200792D01*
X187684Y200977D01*
X187814Y201218D01*
X187925Y201514D01*
X187999Y201847D01*
X188036Y202236D01*
Y202255D01*
Y202273D01*
Y202366D01*
X188018Y202532D01*
X187981Y202717D01*
X187944Y202921D01*
X187870Y203162D01*
X187759Y203384D01*
X187629Y203606D01*
X187610Y203625D01*
X187555Y203699D01*
X187462Y203792D01*
X187351Y203921D01*
X187184Y204051D01*
X186999Y204162D01*
X186796Y204273D01*
X186555Y204366D01*
X186536D01*
X186462Y204384D01*
X186351Y204403D01*
X186203Y204440D01*
X185981Y204458D01*
X185703Y204477D01*
X185370Y204495D01*
D02*
G37*
G36*
X248230Y592579D02*
X236799D01*
Y584341D01*
Y584295D01*
Y584156D01*
Y583971D01*
X236845Y583647D01*
Y583323D01*
X236892Y582953D01*
X236984Y582073D01*
X237169Y581101D01*
X237447Y580130D01*
X237817Y579250D01*
X238049Y578834D01*
X238326Y578510D01*
X238419Y578417D01*
X238604Y578232D01*
X238974Y577954D01*
X239437Y577631D01*
X240039Y577307D01*
X240779Y577029D01*
X241612Y576844D01*
X242584Y576751D01*
X242908D01*
X243325Y576797D01*
X243787Y576890D01*
X244296Y576983D01*
X244898Y577168D01*
X245453Y577445D01*
X246009Y577769D01*
X246055Y577816D01*
X246240Y577954D01*
X246472Y578186D01*
X246795Y578464D01*
X247119Y578880D01*
X247397Y579343D01*
X247675Y579852D01*
X247906Y580454D01*
Y580500D01*
X247952Y580685D01*
X247999Y580963D01*
X248091Y581333D01*
X248137Y581888D01*
X248184Y582582D01*
X248230Y583415D01*
Y584434D01*
Y592579D01*
D02*
G37*
G36*
X185370Y255295D02*
X181703D01*
Y250721D01*
X185148D01*
X185277Y250740D01*
X185407D01*
X185555Y250759D01*
X185907Y250796D01*
X186296Y250870D01*
X186684Y250981D01*
X187036Y251129D01*
X187203Y251222D01*
X187333Y251333D01*
X187370Y251370D01*
X187444Y251444D01*
X187555Y251592D01*
X187684Y251777D01*
X187814Y252018D01*
X187925Y252314D01*
X187999Y252647D01*
X188036Y253036D01*
Y253055D01*
Y253073D01*
Y253166D01*
X188018Y253332D01*
X187981Y253517D01*
X187944Y253721D01*
X187870Y253962D01*
X187759Y254184D01*
X187629Y254406D01*
X187610Y254425D01*
X187555Y254499D01*
X187462Y254592D01*
X187351Y254721D01*
X187184Y254851D01*
X186999Y254962D01*
X186796Y255073D01*
X186555Y255166D01*
X186536D01*
X186462Y255184D01*
X186351Y255203D01*
X186203Y255240D01*
X185981Y255258D01*
X185703Y255277D01*
X185370Y255295D01*
D02*
G37*
G36*
X231292Y566107D02*
Y556018D01*
X245638D01*
X231292Y566107D01*
D02*
G37*
G36*
X-1770Y592579D02*
X-13201D01*
Y584341D01*
Y584295D01*
Y584156D01*
Y583971D01*
X-13154Y583647D01*
Y583323D01*
X-13108Y582953D01*
X-13016Y582073D01*
X-12831Y581101D01*
X-12553Y580130D01*
X-12183Y579250D01*
X-11951Y578834D01*
X-11674Y578510D01*
X-11581Y578417D01*
X-11396Y578232D01*
X-11026Y577954D01*
X-10563Y577631D01*
X-9961Y577307D01*
X-9221Y577029D01*
X-8388Y576844D01*
X-7416Y576751D01*
X-7092D01*
X-6676Y576797D01*
X-6213Y576890D01*
X-5704Y576983D01*
X-5102Y577168D01*
X-4547Y577445D01*
X-3991Y577769D01*
X-3945Y577816D01*
X-3760Y577954D01*
X-3528Y578186D01*
X-3205Y578464D01*
X-2881Y578880D01*
X-2603Y579343D01*
X-2325Y579852D01*
X-2094Y580454D01*
Y580500D01*
X-2048Y580685D01*
X-2001Y580963D01*
X-1909Y581333D01*
X-1863Y581888D01*
X-1816Y582582D01*
X-1770Y583415D01*
Y584434D01*
Y592579D01*
D02*
G37*
G36*
X185370Y229895D02*
X181703D01*
Y225322D01*
X185148D01*
X185277Y225340D01*
X185407D01*
X185555Y225359D01*
X185907Y225396D01*
X186296Y225470D01*
X186684Y225581D01*
X187036Y225729D01*
X187203Y225821D01*
X187333Y225933D01*
X187370Y225970D01*
X187444Y226044D01*
X187555Y226192D01*
X187684Y226377D01*
X187814Y226618D01*
X187925Y226914D01*
X187999Y227247D01*
X188036Y227636D01*
Y227655D01*
Y227673D01*
Y227766D01*
X188018Y227932D01*
X187981Y228118D01*
X187944Y228321D01*
X187870Y228562D01*
X187759Y228784D01*
X187629Y229006D01*
X187610Y229025D01*
X187555Y229099D01*
X187462Y229191D01*
X187351Y229321D01*
X187184Y229451D01*
X186999Y229562D01*
X186796Y229673D01*
X186555Y229765D01*
X186536D01*
X186462Y229784D01*
X186351Y229802D01*
X186203Y229840D01*
X185981Y229858D01*
X185703Y229877D01*
X185370Y229895D01*
D02*
G37*
G36*
X277626Y285573D02*
X277459D01*
X277330Y285554D01*
X277163Y285536D01*
X276996Y285499D01*
X276793Y285462D01*
X276570Y285425D01*
X276089Y285277D01*
X275830Y285166D01*
X275570Y285054D01*
X275293Y284906D01*
X275033Y284740D01*
X274774Y284554D01*
X274534Y284332D01*
X274515Y284314D01*
X274478Y284277D01*
X274422Y284203D01*
X274330Y284091D01*
X274237Y283962D01*
X274126Y283795D01*
X274015Y283592D01*
X273885Y283351D01*
X273774Y283092D01*
X273645Y282777D01*
X273534Y282444D01*
X273441Y282073D01*
X273348Y281666D01*
X273293Y281203D01*
X273256Y280721D01*
X273237Y280203D01*
Y280184D01*
Y280110D01*
Y279981D01*
X273256Y279814D01*
X273274Y279629D01*
X273311Y279407D01*
X273348Y279148D01*
X273385Y278888D01*
X273534Y278296D01*
X273645Y278000D01*
X273756Y277685D01*
X273904Y277388D01*
X274070Y277092D01*
X274256Y276814D01*
X274478Y276555D01*
X274496Y276537D01*
X274534Y276500D01*
X274608Y276426D01*
X274700Y276352D01*
X274830Y276241D01*
X274978Y276129D01*
X275145Y276018D01*
X275330Y275889D01*
X275552Y275759D01*
X275793Y275648D01*
X276052Y275537D01*
X276330Y275426D01*
X276626Y275352D01*
X276922Y275278D01*
X277255Y275241D01*
X277607Y275222D01*
X277700D01*
X277792Y275241D01*
X277922D01*
X278089Y275259D01*
X278274Y275296D01*
X278496Y275333D01*
X278718Y275389D01*
X278977Y275463D01*
X279218Y275555D01*
X279496Y275648D01*
X279755Y275778D01*
X280014Y275944D01*
X280274Y276111D01*
X280533Y276315D01*
X280774Y276555D01*
X280792Y276574D01*
X280829Y276611D01*
X280885Y276703D01*
X280977Y276814D01*
X281070Y276944D01*
X281162Y277111D01*
X281273Y277314D01*
X281403Y277537D01*
X281514Y277796D01*
X281625Y278092D01*
X281718Y278407D01*
X281829Y278740D01*
X281903Y279111D01*
X281959Y279518D01*
X281996Y279944D01*
X282014Y280388D01*
Y280407D01*
Y280462D01*
Y280536D01*
Y280647D01*
X281996Y280777D01*
Y280944D01*
X281977Y281110D01*
X281940Y281314D01*
X281885Y281740D01*
X281792Y282184D01*
X281662Y282666D01*
X281477Y283110D01*
Y283129D01*
X281459Y283166D01*
X281422Y283221D01*
X281385Y283295D01*
X281255Y283517D01*
X281088Y283777D01*
X280866Y284073D01*
X280588Y284369D01*
X280274Y284666D01*
X279922Y284925D01*
X279903D01*
X279885Y284962D01*
X279829Y284980D01*
X279737Y285036D01*
X279644Y285073D01*
X279533Y285128D01*
X279255Y285258D01*
X278922Y285369D01*
X278533Y285480D01*
X278089Y285554D01*
X277626Y285573D01*
D02*
G37*
G36*
X246129D02*
X245962D01*
X245833Y285554D01*
X245666Y285536D01*
X245499Y285499D01*
X245296Y285462D01*
X245074Y285425D01*
X244592Y285277D01*
X244333Y285166D01*
X244074Y285054D01*
X243796Y284906D01*
X243537Y284740D01*
X243277Y284554D01*
X243037Y284332D01*
X243018Y284314D01*
X242981Y284277D01*
X242926Y284203D01*
X242833Y284091D01*
X242740Y283962D01*
X242629Y283795D01*
X242518Y283592D01*
X242389Y283351D01*
X242278Y283092D01*
X242148Y282777D01*
X242037Y282444D01*
X241944Y282073D01*
X241852Y281666D01*
X241796Y281203D01*
X241759Y280721D01*
X241741Y280203D01*
Y280184D01*
Y280110D01*
Y279981D01*
X241759Y279814D01*
X241778Y279629D01*
X241815Y279407D01*
X241852Y279148D01*
X241889Y278888D01*
X242037Y278296D01*
X242148Y278000D01*
X242259Y277685D01*
X242407Y277388D01*
X242574Y277092D01*
X242759Y276814D01*
X242981Y276555D01*
X243000Y276537D01*
X243037Y276500D01*
X243111Y276426D01*
X243203Y276352D01*
X243333Y276241D01*
X243481Y276129D01*
X243648Y276018D01*
X243833Y275889D01*
X244055Y275759D01*
X244296Y275648D01*
X244555Y275537D01*
X244833Y275426D01*
X245129Y275352D01*
X245425Y275278D01*
X245759Y275241D01*
X246110Y275222D01*
X246203D01*
X246296Y275241D01*
X246425D01*
X246592Y275259D01*
X246777Y275296D01*
X246999Y275333D01*
X247222Y275389D01*
X247481Y275463D01*
X247721Y275555D01*
X247999Y275648D01*
X248258Y275778D01*
X248518Y275944D01*
X248777Y276111D01*
X249036Y276315D01*
X249277Y276555D01*
X249295Y276574D01*
X249332Y276611D01*
X249388Y276703D01*
X249480Y276814D01*
X249573Y276944D01*
X249666Y277111D01*
X249777Y277314D01*
X249906Y277537D01*
X250018Y277796D01*
X250129Y278092D01*
X250221Y278407D01*
X250332Y278740D01*
X250406Y279111D01*
X250462Y279518D01*
X250499Y279944D01*
X250517Y280388D01*
Y280407D01*
Y280462D01*
Y280536D01*
Y280647D01*
X250499Y280777D01*
Y280944D01*
X250480Y281110D01*
X250443Y281314D01*
X250388Y281740D01*
X250295Y282184D01*
X250166Y282666D01*
X249980Y283110D01*
Y283129D01*
X249962Y283166D01*
X249925Y283221D01*
X249888Y283295D01*
X249758Y283517D01*
X249592Y283777D01*
X249369Y284073D01*
X249092Y284369D01*
X248777Y284666D01*
X248425Y284925D01*
X248407D01*
X248388Y284962D01*
X248333Y284980D01*
X248240Y285036D01*
X248147Y285073D01*
X248036Y285128D01*
X247759Y285258D01*
X247425Y285369D01*
X247036Y285480D01*
X246592Y285554D01*
X246129Y285573D01*
D02*
G37*
G36*
X15370Y229895D02*
X11703D01*
Y225322D01*
X15148D01*
X15277Y225340D01*
X15407D01*
X15555Y225359D01*
X15907Y225396D01*
X16296Y225470D01*
X16684Y225581D01*
X17036Y225729D01*
X17203Y225821D01*
X17333Y225933D01*
X17370Y225970D01*
X17444Y226044D01*
X17555Y226192D01*
X17684Y226377D01*
X17814Y226618D01*
X17925Y226914D01*
X17999Y227247D01*
X18036Y227636D01*
Y227655D01*
Y227673D01*
Y227766D01*
X18018Y227932D01*
X17981Y228118D01*
X17944Y228321D01*
X17870Y228562D01*
X17759Y228784D01*
X17629Y229006D01*
X17610Y229025D01*
X17555Y229099D01*
X17462Y229191D01*
X17351Y229321D01*
X17184Y229451D01*
X16999Y229562D01*
X16796Y229673D01*
X16555Y229765D01*
X16536D01*
X16462Y229784D01*
X16351Y229802D01*
X16203Y229840D01*
X15981Y229858D01*
X15703Y229877D01*
X15370Y229895D01*
D02*
G37*
G36*
X-42374Y295573D02*
X-42541D01*
X-42670Y295554D01*
X-42837Y295536D01*
X-43004Y295499D01*
X-43208Y295462D01*
X-43430Y295425D01*
X-43911Y295277D01*
X-44170Y295166D01*
X-44430Y295054D01*
X-44707Y294906D01*
X-44967Y294740D01*
X-45226Y294555D01*
X-45466Y294332D01*
X-45485Y294314D01*
X-45522Y294277D01*
X-45578Y294203D01*
X-45670Y294091D01*
X-45763Y293962D01*
X-45874Y293795D01*
X-45985Y293592D01*
X-46115Y293351D01*
X-46226Y293092D01*
X-46355Y292777D01*
X-46466Y292444D01*
X-46559Y292073D01*
X-46652Y291666D01*
X-46707Y291203D01*
X-46744Y290721D01*
X-46763Y290203D01*
Y290184D01*
Y290110D01*
Y289981D01*
X-46744Y289814D01*
X-46726Y289629D01*
X-46689Y289407D01*
X-46652Y289148D01*
X-46615Y288888D01*
X-46466Y288296D01*
X-46355Y288000D01*
X-46244Y287685D01*
X-46096Y287388D01*
X-45929Y287092D01*
X-45744Y286814D01*
X-45522Y286555D01*
X-45504Y286537D01*
X-45466Y286500D01*
X-45392Y286426D01*
X-45300Y286352D01*
X-45170Y286241D01*
X-45022Y286129D01*
X-44855Y286018D01*
X-44670Y285889D01*
X-44448Y285759D01*
X-44207Y285648D01*
X-43948Y285537D01*
X-43670Y285426D01*
X-43374Y285352D01*
X-43078Y285278D01*
X-42745Y285241D01*
X-42393Y285222D01*
X-42300D01*
X-42208Y285241D01*
X-42078D01*
X-41911Y285259D01*
X-41726Y285296D01*
X-41504Y285333D01*
X-41282Y285389D01*
X-41023Y285463D01*
X-40782Y285555D01*
X-40504Y285648D01*
X-40245Y285778D01*
X-39986Y285944D01*
X-39726Y286111D01*
X-39467Y286315D01*
X-39226Y286555D01*
X-39208Y286574D01*
X-39171Y286611D01*
X-39115Y286703D01*
X-39023Y286814D01*
X-38930Y286944D01*
X-38838Y287111D01*
X-38726Y287314D01*
X-38597Y287537D01*
X-38486Y287796D01*
X-38375Y288092D01*
X-38282Y288407D01*
X-38171Y288740D01*
X-38097Y289111D01*
X-38041Y289518D01*
X-38004Y289944D01*
X-37986Y290388D01*
Y290407D01*
Y290462D01*
Y290536D01*
Y290648D01*
X-38004Y290777D01*
Y290944D01*
X-38023Y291110D01*
X-38060Y291314D01*
X-38115Y291740D01*
X-38208Y292184D01*
X-38338Y292666D01*
X-38523Y293110D01*
Y293129D01*
X-38541Y293166D01*
X-38578Y293221D01*
X-38615Y293295D01*
X-38745Y293517D01*
X-38912Y293777D01*
X-39134Y294073D01*
X-39412Y294369D01*
X-39726Y294666D01*
X-40078Y294925D01*
X-40097D01*
X-40115Y294962D01*
X-40171Y294980D01*
X-40263Y295036D01*
X-40356Y295073D01*
X-40467Y295128D01*
X-40745Y295258D01*
X-41078Y295369D01*
X-41467Y295480D01*
X-41911Y295554D01*
X-42374Y295573D01*
D02*
G37*
G36*
X-73871D02*
X-74038D01*
X-74167Y295554D01*
X-74334Y295536D01*
X-74501Y295499D01*
X-74704Y295462D01*
X-74926Y295425D01*
X-75408Y295277D01*
X-75667Y295166D01*
X-75926Y295054D01*
X-76204Y294906D01*
X-76463Y294740D01*
X-76723Y294555D01*
X-76963Y294332D01*
X-76982Y294314D01*
X-77019Y294277D01*
X-77074Y294203D01*
X-77167Y294091D01*
X-77259Y293962D01*
X-77371Y293795D01*
X-77482Y293592D01*
X-77611Y293351D01*
X-77723Y293092D01*
X-77852Y292777D01*
X-77963Y292444D01*
X-78056Y292073D01*
X-78148Y291666D01*
X-78204Y291203D01*
X-78241Y290721D01*
X-78259Y290203D01*
Y290184D01*
Y290110D01*
Y289981D01*
X-78241Y289814D01*
X-78222Y289629D01*
X-78185Y289407D01*
X-78148Y289148D01*
X-78111Y288888D01*
X-77963Y288296D01*
X-77852Y288000D01*
X-77741Y287685D01*
X-77593Y287388D01*
X-77426Y287092D01*
X-77241Y286814D01*
X-77019Y286555D01*
X-77000Y286537D01*
X-76963Y286500D01*
X-76889Y286426D01*
X-76797Y286352D01*
X-76667Y286241D01*
X-76519Y286129D01*
X-76352Y286018D01*
X-76167Y285889D01*
X-75945Y285759D01*
X-75704Y285648D01*
X-75445Y285537D01*
X-75167Y285426D01*
X-74871Y285352D01*
X-74575Y285278D01*
X-74241Y285241D01*
X-73889Y285222D01*
X-73797D01*
X-73704Y285241D01*
X-73575D01*
X-73408Y285259D01*
X-73223Y285296D01*
X-73001Y285333D01*
X-72779Y285389D01*
X-72519Y285463D01*
X-72279Y285555D01*
X-72001Y285648D01*
X-71742Y285778D01*
X-71482Y285944D01*
X-71223Y286111D01*
X-70964Y286315D01*
X-70723Y286555D01*
X-70705Y286574D01*
X-70668Y286611D01*
X-70612Y286703D01*
X-70519Y286814D01*
X-70427Y286944D01*
X-70334Y287111D01*
X-70223Y287314D01*
X-70094Y287537D01*
X-69983Y287796D01*
X-69871Y288092D01*
X-69779Y288407D01*
X-69668Y288740D01*
X-69594Y289111D01*
X-69538Y289518D01*
X-69501Y289944D01*
X-69483Y290388D01*
Y290407D01*
Y290462D01*
Y290536D01*
Y290648D01*
X-69501Y290777D01*
Y290944D01*
X-69520Y291110D01*
X-69557Y291314D01*
X-69612Y291740D01*
X-69705Y292184D01*
X-69834Y292666D01*
X-70019Y293110D01*
Y293129D01*
X-70038Y293166D01*
X-70075Y293221D01*
X-70112Y293295D01*
X-70242Y293517D01*
X-70408Y293777D01*
X-70631Y294073D01*
X-70908Y294369D01*
X-71223Y294666D01*
X-71575Y294925D01*
X-71593D01*
X-71612Y294962D01*
X-71667Y294980D01*
X-71760Y295036D01*
X-71853Y295073D01*
X-71964Y295128D01*
X-72242Y295258D01*
X-72575Y295369D01*
X-72964Y295480D01*
X-73408Y295554D01*
X-73871Y295573D01*
D02*
G37*
%LPD*%
D10*
X261800Y270300D02*
G03*
X274500Y270300I6350J0D01*
G01*
X-59200Y270700D02*
G03*
X-46500Y270700I6350J0D01*
G01*
X274800Y270300D02*
X320800D01*
Y-200D02*
Y270300D01*
X212900Y-200D02*
Y270300D01*
Y-200D02*
X320800D01*
X212900Y270300D02*
X261800D01*
X-46200Y270700D02*
X-200D01*
Y200D02*
Y270700D01*
X-108100Y200D02*
Y270700D01*
Y200D02*
X-200D01*
X-108100Y270700D02*
X-59200D01*
D17*
X135000Y306000D02*
X325000Y306000D01*
X135000Y306000D02*
Y1216000D01*
X325000Y306000D02*
Y1216250D01*
Y851093D02*
Y1216000D01*
X135000Y1081420D02*
Y1216000D01*
Y1081420D02*
X135680Y1082100D01*
X135000Y851000D02*
Y1081420D01*
Y1216000D02*
X325000Y1216000D01*
X299800Y847595D02*
X324987Y851093D01*
X230000Y837900D02*
X299800Y847595D01*
X160200D02*
X230000Y837900D01*
X142200Y850095D02*
X160200Y847595D01*
X135680Y851000D02*
X142200Y850095D01*
X135680Y1082100D02*
X142200Y1081195D01*
X160200Y1078695D01*
X299800D02*
X324973Y1082191D01*
X230000Y1069000D02*
X299800Y1078695D01*
X160200D02*
X230000Y1069000D01*
X-107800Y850095D02*
X-89800Y847595D01*
X-114319Y851000D02*
X-107800Y850095D01*
X-115000Y306000D02*
Y1214750D01*
Y851000D02*
Y1081420D01*
Y306000D02*
X75000Y306000D01*
X-89800Y847595D02*
X-20000Y837900D01*
X-115000Y1081420D02*
Y1216250D01*
Y1081420D02*
X-114319Y1082100D01*
X-107800Y1081195D01*
X-89800Y1078695D01*
X-115000Y1216250D02*
X75000Y1216250D01*
X-89800Y1078695D02*
X-20000Y1069000D01*
Y837900D02*
X49800Y847595D01*
X74987Y851093D01*
X75000Y306000D02*
Y1214750D01*
Y851093D02*
Y1216250D01*
X-20000Y1069000D02*
X49800Y1078695D01*
X74974Y1082191D01*
X60800Y205050D02*
X148800D01*
X60800Y1550D02*
X148800D01*
Y205050D01*
X60800Y90600D02*
X73050D01*
Y116000D01*
X60800D02*
X73050D01*
X60800D02*
Y205050D01*
Y1550D02*
Y90600D01*
X97500Y227735D02*
X107657Y212500D01*
Y227735D02*
X97500Y212500D01*
X112735D02*
X117813D01*
X115274D01*
Y227735D01*
X112735Y225196D01*
X270157Y16696D02*
X267617Y19235D01*
X262539D01*
X260000Y16696D01*
Y14157D01*
X262539Y11617D01*
X267617D01*
X270157Y9078D01*
Y6539D01*
X267617Y4000D01*
X262539D01*
X260000Y6539D01*
X275235Y4000D02*
X280313D01*
X277774D01*
Y19235D01*
X275235Y16696D01*
X-49843D02*
X-52382Y19235D01*
X-57461D01*
X-60000Y16696D01*
Y14157D01*
X-57461Y11617D01*
X-52382D01*
X-49843Y9078D01*
Y6539D01*
X-52382Y4000D01*
X-57461D01*
X-60000Y6539D01*
X-34608Y4000D02*
X-44765D01*
X-34608Y14157D01*
Y16696D01*
X-37147Y19235D01*
X-42226D01*
X-44765Y16696D01*
M02*
