M48
;Layer_Color=9474304
;FILE_FORMAT=4:4
METRIC,LZ
;TYPE=PLATED
T1F00S00C0.8000
T2F00S00C0.9000
T3F00S00C1.0000
T4F00S00C3.2500
%
T01
X-000898Y00861
Y008815
Y00902
X-000718Y008995
Y00879
Y008585
X-000538Y00856
Y008765
Y00897
Y009175
X-000718Y0092
X-000898Y009225
Y00943
X-000718Y009405
Y00961
X-000898Y009635
Y00984
Y010045
Y01025
Y010455
X-000718Y01043
Y010225
Y01002
Y009815
Y010635
X-000898Y01066
X000138Y009175
Y00897
Y008765
Y00856
X000318Y008585
X000498Y00861
Y008815
X000318Y00879
Y008995
X000498Y00902
Y009225
X000318Y0092
Y009405
Y00961
Y009815
Y01002
Y010225
Y01043
Y010635
X000498Y01066
Y010455
Y01025
Y010045
Y00984
Y009635
Y00943
X001602Y00943
Y009635
Y00984
Y010045
Y01025
Y010455
X001782Y01043
Y010635
X001602Y01066
X001782Y010225
Y01002
Y009815
Y00961
Y009405
Y0092
Y008995
Y00879
Y008585
X001602Y00861
Y008815
Y00902
Y009225
X001962Y009175
Y00897
Y008765
Y00856
X002638Y00856
X002818Y008585
Y00879
Y008995
Y0092
Y009405
Y00961
Y009815
Y01002
Y010225
Y01043
Y010635
X002998Y01066
Y010455
Y01025
Y010045
Y00984
Y009635
Y00943
Y009225
Y00902
Y008815
Y00861
X002638Y008765
Y00897
Y009175
T02
X-000922Y000216
Y00047
Y000724
Y000978
Y001232
Y001486
Y00174
Y001994
Y002248
Y002502
X-00016
Y002248
Y001994
Y00174
Y001486
Y001232
Y000978
Y000724
Y00047
Y000216
X002288Y000212
Y000466
Y00072
Y000974
Y001228
Y001482
Y001736
Y00199
Y002244
Y002498
X00305
Y002244
Y00199
Y001736
Y001482
Y001228
Y000974
Y00072
Y000466
Y000212
T03
X000921Y000525
Y000779
Y001033
Y001287
Y001541
X001175
Y001287
Y001033
Y000779
Y000525
T04
X00105Y00634
Y00934
M30
